<?xml version="1.0" encoding="UTF-8" standalone="no"?>
<!-- Created with Inkscape (http://www.inkscape.org/) -->

<svg
   xmlns:dc="http://purl.org/dc/elements/1.1/"
   xmlns:cc="http://creativecommons.org/ns#"
   xmlns:rdf="http://www.w3.org/1999/02/22-rdf-syntax-ns#"
   xmlns:svg="http://www.w3.org/2000/svg"
   xmlns="http://www.w3.org/2000/svg"
   xmlns:sodipodi="http://sodipodi.sourceforge.net/DTD/sodipodi-0.dtd"
   xmlns:inkscape="http://www.inkscape.org/namespaces/inkscape"
   version="1.1"
   id="svg2"
   xml:space="preserve"
   width="520"
   height="520"
   viewBox="0 0 519.99999 519.99999"
   sodipodi:docname="Icon.svg"
   inkscape:version="0.92.5 (2060ec1f9f, 2020-04-08)"><metadata
     id="metadata8"><rdf:RDF><cc:Work
         rdf:about=""><dc:format>image/svg+xml</dc:format><dc:type
           rdf:resource="http://purl.org/dc/dcmitype/StillImage" /><dc:title></dc:title></cc:Work></rdf:RDF></metadata><defs
     id="defs6"><clipPath
       clipPathUnits="userSpaceOnUse"
       id="clipPath28"><path
         d="m 612.914,793.255 c -4.574,-3.411 -6.613,-6.199 -6.603,-11.98 v 0 c 0.185,-111.995 0.33,-223.99 -0.159,-335.981 v 0 c -0.05,-11.382 2.648,-18.402 13.313,-22.812 v 0 c 4.216,-1.743 6.963,-2.113 10.958,0.207 v 0 c 51.031,29.632 102.143,59.124 153.332,88.482 v 0 c 4.417,2.533 6.026,5.405 6.008,10.533 v 0 c -0.192,55.186 -0.658,110.384 0.265,165.557 v 0 c 0.223,13.344 -3.123,21.396 -15.48,26.407 v 0 c -7.316,2.969 -13.922,7.687 -22.092,12.324 v 0 -7.919 c -0.008,-58.827 -0.056,-117.654 0.064,-176.48 v 0 c 0.009,-4.202 -1.295,-6.556 -5.041,-8.541 v 0 c -8.387,-4.443 -16.476,-9.451 -24.721,-14.166 v 0 c -1.792,-1.026 -3.733,-1.793 -6.406,-3.057 v 0 17.461 c -0.002,69.341 -0.033,138.68 0.07,208.019 v 0 c 0.005,4.132 -1.201,6.633 -4.958,8.643 v 0 c -8.727,4.667 -17.183,9.841 -25.779,14.755 v 0 c -1.626,0.929 -3.393,1.611 -6.159,2.903 v 0 c 0,-3.602 0.001,-5.968 0,-8.335 v 0 c -0.005,-64.689 -0.012,-129.379 -0.015,-194.069 v 0 c -0.002,-22.035 0.063,-44.07 -0.091,-66.105 v 0 c -0.015,-2.148 -0.711,-5.345 -2.198,-6.261 v 0 c -10.621,-6.547 -21.53,-12.629 -33.86,-19.73 v 0 9.399 c 0.003,99.864 -0.043,199.729 0.146,299.594 v 0 c 0.01,5.442 -2.114,7.859 -6.302,10.917 v 0 c -4.362,3.185 -8.368,4.874 -12.419,4.874 v 0 c -3.807,0 -7.654,-1.493 -11.873,-4.639"
         id="path26"
         inkscape:connector-curvature="0" /></clipPath><linearGradient
       x1="0"
       y1="0"
       x2="1"
       y2="0"
       gradientUnits="userSpaceOnUse"
       gradientTransform="matrix(183.88695,0,0,-183.88695,606.15131,609.47778)"
       spreadMethod="pad"
       id="linearGradient38"><stop
         style="stop-opacity:1;stop-color:#8ccdaa"
         offset="0"
         id="stop34" /><stop
         style="stop-opacity:1;stop-color:#41c0c8"
         offset="1"
         id="stop36" /></linearGradient><clipPath
       clipPathUnits="userSpaceOnUse"
       id="clipPath48"><path
         d="M 565.712,765.577 C 531.74,746.008 497.741,726.485 463.918,706.662 v 0 c -1.987,-1.166 -3.602,-4.768 -3.609,-7.242 v 0 c -0.192,-59.637 -0.107,-119.275 -0.204,-178.911 v 0 c -0.007,-4.116 1.261,-6.591 4.923,-8.686 v 0 c 33.332,-19.062 66.554,-38.314 99.828,-57.479 v 0 c 1.429,-0.822 3.04,-1.334 4.614,-2.013 v 0 c 0.421,1.18 0.675,1.557 0.675,1.934 v 0 c 0.063,40.026 0.083,80.052 0.198,120.077 v 0 c 0.009,3.603 -1.708,4.434 -4.872,4.395 v 0 c -8.691,-0.106 -17.397,-0.307 -26.074,0.066 v 0 c -5.045,0.216 -6.069,-1.853 -6.015,-6.38 v 0 c 0.204,-16.979 0.092,-33.961 0.061,-50.942 v 0 c -0.003,-1.67 -0.261,-3.338 -0.48,-5.942 v 0 c -11.767,6.762 -22.672,12.861 -33.332,19.363 v 0 c -1.4,0.854 -2.17,3.768 -2.175,5.73 v 0 c -0.117,46.092 -0.142,92.185 0.078,138.276 v 0 c 0.01,2.234 1.856,5.315 3.778,6.537 v 0 c 8.179,5.2 16.695,9.871 25.119,14.678 v 0 c 1.963,1.123 4.049,2.031 6.579,3.286 v 0 c 0.219,-2 0.418,-2.976 0.42,-3.951 v 0 c 0.028,-14.15 0.187,-28.304 -0.059,-42.45 v 0 c -0.079,-4.576 1.449,-5.978 5.929,-5.8 v 0 c 7.87,0.314 15.787,0.451 23.641,-0.039 v 0 c 5.896,-0.367 7.535,1.64 7.492,7.451 v 0 c -0.253,33.961 -0.134,67.925 -0.159,101.888 v 0 c -10e-4,1.966 -0.175,3.93 -0.318,6.885 v 0 c -2.106,-0.892 -3.241,-1.239 -4.244,-1.816"
         id="path46"
         inkscape:connector-curvature="0" /></clipPath><linearGradient
       x1="0"
       y1="0"
       x2="1"
       y2="0"
       gradientUnits="userSpaceOnUse"
       gradientTransform="matrix(110.3287,0,0,-110.3287,460.10492,609.862)"
       spreadMethod="pad"
       id="linearGradient58"><stop
         style="stop-opacity:1;stop-color:#8ccdaa"
         offset="0"
         id="stop54" /><stop
         style="stop-opacity:1;stop-color:#41c0c8"
         offset="1"
         id="stop56" /></linearGradient></defs><sodipodi:namedview
     pagecolor="#ffffff"
     bordercolor="#666666"
     borderopacity="1"
     objecttolerance="10"
     gridtolerance="10"
     guidetolerance="10"
     inkscape:pageopacity="0"
     inkscape:pageshadow="2"
     inkscape:window-width="1920"
     inkscape:window-height="1043"
     id="namedview4"
     showgrid="false"
     inkscape:zoom="0.67158545"
     inkscape:cx="200.74076"
     inkscape:cy="252.13884"
     inkscape:window-x="1920"
     inkscape:window-y="0"
     inkscape:window-maximized="1"
     inkscape:current-layer="g10" /><g
     id="g10"
     inkscape:groupmode="layer"
     inkscape:label="Final Logo"
     transform="matrix(1.3333333,0,0,-1.3333333,0,519.99997)"><g
       id="g22"
       transform="translate(-429.01112,-414.3181)"><g
         id="g24"
         clip-path="url(#clipPath28)"><g
           id="g30"><g
             id="g32"><path
               d="m 612.914,793.255 c -4.574,-3.411 -6.613,-6.199 -6.603,-11.98 v 0 c 0.185,-111.995 0.33,-223.99 -0.159,-335.981 v 0 c -0.05,-11.382 2.648,-18.402 13.313,-22.812 v 0 c 4.216,-1.743 6.963,-2.113 10.958,0.207 v 0 c 51.031,29.632 102.143,59.124 153.332,88.482 v 0 c 4.417,2.533 6.026,5.405 6.008,10.533 v 0 c -0.192,55.186 -0.658,110.384 0.265,165.557 v 0 c 0.223,13.344 -3.123,21.396 -15.48,26.407 v 0 c -7.316,2.969 -13.922,7.687 -22.092,12.324 v 0 -7.919 c -0.008,-58.827 -0.056,-117.654 0.064,-176.48 v 0 c 0.009,-4.202 -1.295,-6.556 -5.041,-8.541 v 0 c -8.387,-4.443 -16.476,-9.451 -24.721,-14.166 v 0 c -1.792,-1.026 -3.733,-1.793 -6.406,-3.057 v 0 17.461 c -0.002,69.341 -0.033,138.68 0.07,208.019 v 0 c 0.005,4.132 -1.201,6.633 -4.958,8.643 v 0 c -8.727,4.667 -17.183,9.841 -25.779,14.755 v 0 c -1.626,0.929 -3.393,1.611 -6.159,2.903 v 0 c 0,-3.602 0.001,-5.968 0,-8.335 v 0 c -0.005,-64.689 -0.012,-129.379 -0.015,-194.069 v 0 c -0.002,-22.035 0.063,-44.07 -0.091,-66.105 v 0 c -0.015,-2.148 -0.711,-5.345 -2.198,-6.261 v 0 c -10.621,-6.547 -21.53,-12.629 -33.86,-19.73 v 0 9.399 c 0.003,99.864 -0.043,199.729 0.146,299.594 v 0 c 0.01,5.442 -2.114,7.859 -6.302,10.917 v 0 c -4.362,3.185 -8.368,4.874 -12.419,4.874 v 0 c -3.807,0 -7.654,-1.493 -11.873,-4.639"
               style="fill:url(#linearGradient38);stroke:none"
               id="path40"
               inkscape:connector-curvature="0" /></g></g></g></g><g
       id="g42"
       transform="translate(-429.01112,-414.3181)"><g
         id="g44"
         clip-path="url(#clipPath48)"><g
           id="g50"><g
             id="g52"><path
               d="M 565.712,765.577 C 531.74,746.008 497.741,726.485 463.918,706.662 v 0 c -1.987,-1.166 -3.602,-4.768 -3.609,-7.242 v 0 c -0.192,-59.637 -0.107,-119.275 -0.204,-178.911 v 0 c -0.007,-4.116 1.261,-6.591 4.923,-8.686 v 0 c 33.332,-19.062 66.554,-38.314 99.828,-57.479 v 0 c 1.429,-0.822 3.04,-1.334 4.614,-2.013 v 0 c 0.421,1.18 0.675,1.557 0.675,1.934 v 0 c 0.063,40.026 0.083,80.052 0.198,120.077 v 0 c 0.009,3.603 -1.708,4.434 -4.872,4.395 v 0 c -8.691,-0.106 -17.397,-0.307 -26.074,0.066 v 0 c -5.045,0.216 -6.069,-1.853 -6.015,-6.38 v 0 c 0.204,-16.979 0.092,-33.961 0.061,-50.942 v 0 c -0.003,-1.67 -0.261,-3.338 -0.48,-5.942 v 0 c -11.767,6.762 -22.672,12.861 -33.332,19.363 v 0 c -1.4,0.854 -2.17,3.768 -2.175,5.73 v 0 c -0.117,46.092 -0.142,92.185 0.078,138.276 v 0 c 0.01,2.234 1.856,5.315 3.778,6.537 v 0 c 8.179,5.2 16.695,9.871 25.119,14.678 v 0 c 1.963,1.123 4.049,2.031 6.579,3.286 v 0 c 0.219,-2 0.418,-2.976 0.42,-3.951 v 0 c 0.028,-14.15 0.187,-28.304 -0.059,-42.45 v 0 c -0.079,-4.576 1.449,-5.978 5.929,-5.8 v 0 c 7.87,0.314 15.787,0.451 23.641,-0.039 v 0 c 5.896,-0.367 7.535,1.64 7.492,7.451 v 0 c -0.253,33.961 -0.134,67.925 -0.159,101.888 v 0 c -10e-4,1.966 -0.175,3.93 -0.318,6.885 v 0 c -2.106,-0.892 -3.241,-1.239 -4.244,-1.816"
               style="fill:url(#linearGradient58);stroke:none"
               id="path60"
               inkscape:connector-curvature="0" /></g></g></g></g></g></svg>