<?xml version="1.0" encoding="UTF-8" standalone="no"?>
<!-- Generator: Adobe Illustrator 23.0.3, SVG Export Plug-In . SVG Version: 6.00 Build 0)  -->

<svg
   xmlns:dc="http://purl.org/dc/elements/1.1/"
   xmlns:cc="http://creativecommons.org/ns#"
   xmlns:rdf="http://www.w3.org/1999/02/22-rdf-syntax-ns#"
   xmlns:svg="http://www.w3.org/2000/svg"
   xmlns="http://www.w3.org/2000/svg"
   xmlns:sodipodi="http://sodipodi.sourceforge.net/DTD/sodipodi-0.dtd"
   xmlns:inkscape="http://www.inkscape.org/namespaces/inkscape"
   version="1.1"
   id="Layer_1"
   x="0px"
   y="0px"
   viewBox="0 0 1024 1024"
   style="enable-background:new 0 0 1024 1024;"
   xml:space="preserve"
   sodipodi:docname="btn_facebook_dark.svg"
   inkscape:version="0.92.5 (2060ec1f9f, 2020-04-08)"><metadata
   id="metadata14"><rdf:RDF><cc:Work
       rdf:about=""><dc:format>image/svg+xml</dc:format><dc:type
         rdf:resource="http://purl.org/dc/dcmitype/StillImage" /><dc:title></dc:title></cc:Work></rdf:RDF></metadata><defs
   id="defs12">
	
	
</defs><sodipodi:namedview
   pagecolor="#ffffff"
   bordercolor="#666666"
   borderopacity="1"
   objecttolerance="10"
   gridtolerance="10"
   guidetolerance="10"
   inkscape:pageopacity="0"
   inkscape:pageshadow="2"
   inkscape:window-width="1858"
   inkscape:window-height="1016"
   id="namedview10"
   showgrid="false"
   inkscape:zoom="0.23046875"
   inkscape:cx="512"
   inkscape:cy="512"
   inkscape:window-x="1502"
   inkscape:window-y="27"
   inkscape:window-maximized="1"
   inkscape:current-layer="Layer_1" />
<style
   type="text/css"
   id="style2">
	.st0{fill:#1977F3;}
	.st1{fill:#FEFEFE;}
</style>
<g
   id="g885"><path
     class="st0"
     d="M 1024,512 C 1024,229.3 794.7,0 512,0 229.3,0 0,229.3 0,512 0,767.5 187.2,979.4 432,1017.8 V 660 H 302 V 512 H 432 V 399.2 C 432,270.9 508.5,200 625.4,200 c 56,0 114.6,10 114.6,10 v 126 h -64.6 c -63.6,0 -83.4,39.5 -83.4,80 v 96 H 734 L 711.3,660 H 592 v 357.8 C 836.8,979.4 1024,767.6 1024,512 Z"
     id="path4"
     inkscape:connector-curvature="0"
     style="fill:#fefefe;fill-opacity:1" /><path
     class="st1"
     d="M 711.3,660 734,512 H 592 v -96 c 0,-40.5 19.8,-80 83.4,-80 H 740 V 210 c 0,0 -58.6,-10 -114.6,-10 C 508.5,200 432,270.8 432,399.2 V 512 H 302 v 148 h 130 v 357.8 c 26.1,4.1 52.8,6.2 80,6.2 27.2,0 53.9,-2.2 80,-6.2 V 660 Z"
     id="path6"
     inkscape:connector-curvature="0"
     style="fill:#1977f3;fill-opacity:1" /></g>
</svg>