<svg width="58" height="32" viewBox="0 0 58 32" fill="none" xmlns="http://www.w3.org/2000/svg">
<path fill-rule="evenodd" clip-rule="evenodd" d="M0.36377 2.78582C0.36377 1.28474 1.71875 0.0678711 3.38861 0.0678711H54.0662C55.7368 0.0678711 57.091 1.28445 57.091 2.78582V29.3499C57.091 30.851 55.7361 32.0679 54.0662 32.0679H3.38861C1.71804 32.0679 0.36377 30.8513 0.36377 29.3499V2.78582ZM0.363971 15.0764H3.08886L3.70327 13.7508H5.0788L5.6916 15.0764H11.053V14.0629L11.5316 15.0807H14.3149L14.7934 14.0478V15.0764H28.1176L28.1114 12.9004H28.3692C28.5497 12.906 28.6024 12.9209 28.6024 13.1875V15.0764H35.4938V14.5698C36.0496 14.8362 36.9142 15.0764 38.0518 15.0764H40.951L41.5714 13.7508H42.947L43.5537 15.0764H49.1406V13.8172L49.9866 15.0764H54.4636V6.75267H50.0329V7.73571L49.4124 6.75267H44.8661V7.73571L44.2963 6.75267H38.1553C37.1273 6.75267 36.2237 6.88102 35.4938 7.2387V6.75267H31.2559V7.2387C30.7914 6.87004 30.1585 6.75267 29.4547 6.75267H13.9721L12.9333 8.90254L11.8665 6.75267H6.98985V7.73571L6.45413 6.75267H2.29514L0.36377 10.7102V15.0764H0.363971ZM17.5831 13.9041H15.9482L15.9421 9.22998L13.6296 13.9041H12.2293L9.91076 9.22584V13.9041H6.66705L6.05425 12.573H2.73366L2.11462 13.9041H0.382486L3.23839 7.93606H5.60788L8.32029 13.5866V7.93606H10.9232L13.0104 11.9847L14.9277 7.93606H17.5829V13.9041H17.5831ZM5.47848 11.3289L4.38691 8.9497L3.30158 11.3289H5.47848ZM24.0993 13.9041H18.7717V7.93606H24.0993V9.17885H20.3666V10.2546H24.0098V11.4779H20.3666V12.6698H24.0993V13.9041ZM31.6111 9.54338C31.6111 10.4949 30.9011 10.9865 30.4873 11.1341C30.8363 11.2529 31.1343 11.4628 31.2762 11.6367C31.5014 11.9336 31.5402 12.1987 31.5402 12.7317V13.9041H29.9317L29.9256 13.1515C29.9256 12.7924 29.9641 12.2759 29.6739 11.9888C29.4408 11.7789 29.0856 11.7334 28.5115 11.7334H26.7995V13.9041H25.2048V7.93606H28.8729C29.688 7.93606 30.2885 7.95532 30.8041 8.22192C31.3086 8.48851 31.6111 8.8777 31.6111 9.54338ZM29.5256 10.3815C29.3064 10.5005 29.0472 10.5045 28.7367 10.5045H26.7993V9.17885H28.763C29.041 9.17885 29.3309 9.19001 29.5193 9.2865C29.7262 9.37345 29.8542 9.5585 29.8542 9.81411C29.8542 10.0749 29.7324 10.2848 29.5256 10.3815ZM34.1633 13.9041H32.536V7.93606H34.1633V13.9041ZM53.0419 13.9041H50.7819L47.759 9.42475V13.9041H44.5111L43.8904 12.573H40.5775L39.9753 13.9041H38.1092C37.334 13.9041 36.3525 13.7508 35.7966 13.244C35.2362 12.7373 34.9445 12.0509 34.9445 10.9656C34.9445 10.0805 35.1188 9.27138 35.8043 8.63198C36.3199 8.15567 37.1273 7.93606 38.2263 7.93606H39.7703V9.21486H38.2587C37.6767 9.21486 37.348 9.29226 37.0315 9.5684C36.7596 9.81969 36.573 10.2947 36.573 10.9203C36.573 11.5597 36.7151 12.0207 37.0116 12.3218C37.2571 12.558 37.7033 12.6297 38.1231 12.6297H38.8393L41.087 7.93624H43.4766L46.1768 13.5812V7.93624H48.605L51.4084 12.0927V7.93624H53.0419V13.9041ZM43.3468 11.3289L42.2432 8.9497L41.1456 11.3289H43.3468ZM57.091 23.4067C56.7036 23.9134 55.9488 24.1703 54.9268 24.1703H51.8469V22.8903H54.9144C55.2186 22.8903 55.4316 22.8544 55.5597 22.7425C55.6708 22.6501 55.7483 22.516 55.7483 22.3531C55.7483 22.1792 55.6708 22.0411 55.5535 21.9583C55.4378 21.8673 55.2693 21.8259 54.9916 21.8259C53.4941 21.7803 51.626 21.8673 51.626 19.9782C51.626 19.1124 52.2406 18.201 53.9142 18.201H57.0908V17.0133H54.1393C53.2486 17.0133 52.6016 17.2041 52.1434 17.5007V17.0133H47.7777C47.0796 17.0133 46.2601 17.1681 45.8725 17.5007V17.0133H38.0766V17.5007C37.4561 17.1004 36.4092 17.0133 35.926 17.0133H30.7838V17.5007C30.2929 17.0756 29.2013 17.0133 28.536 17.0133H22.7809L21.464 18.2881L20.2305 17.0133H11.6336V25.3427H20.0687L21.4257 24.0477L22.7041 25.3427L27.9035 25.3469V23.3874H28.4147C29.1045 23.397 29.9182 23.3721 30.636 23.0946V25.3425H34.9246V23.1716H35.1315C35.3955 23.1716 35.4215 23.1813 35.4215 23.4173V25.3424H48.4495C49.2766 25.3424 50.1412 25.153 50.6199 24.8093V25.3424H54.7523C55.6123 25.3424 56.4521 25.2345 57.091 24.9584V23.4067ZM31.2625 20.1674C31.2625 21.8257 29.8793 22.1681 28.4853 22.1681H26.4954V24.1703H23.3956L21.4318 22.1942L19.3909 24.1703H13.0738V18.2008H19.4881L21.4503 20.1575L23.4789 18.2008H28.5749C29.8405 18.2008 31.2625 18.5142 31.2625 20.1674ZM18.5835 22.9263H14.6624V21.7385H18.1637V20.5206H14.6624V19.4353H18.6608L20.4052 21.1749L18.5835 22.9263ZM24.9069 23.6274L22.4583 21.1958L24.9069 18.8415V23.6274ZM28.5563 20.9557H26.4954V19.4355H28.5749C29.1506 19.4355 29.5503 19.6454 29.5503 20.1674C29.5503 20.6837 29.1691 20.9557 28.5563 20.9557ZM39.3165 18.2008H44.6392V19.4353H40.9047V20.5206H44.5481V21.7385H40.9047V22.9263L44.6392 22.9317V24.1703H39.3165V18.2008ZM37.3018 21.3962C37.6568 21.5134 37.947 21.7234 38.083 21.8973C38.3082 22.1888 38.3408 22.4607 38.3472 22.9869V24.1703H36.7461V23.4234C36.7461 23.0643 36.7848 22.5326 36.4883 22.255C36.2553 22.0411 35.9001 21.99 35.3183 21.99H33.6139V24.1703H32.0114V18.2008H35.6934C36.5008 18.2008 37.0888 18.2327 37.6123 18.4825C38.1156 18.7545 38.4322 19.1271 38.4322 19.8081C38.432 20.7609 37.7216 21.2471 37.3018 21.3962ZM36.3386 20.6533C36.1253 20.7665 35.8614 20.7762 35.5511 20.7762H33.6137V19.4355H35.5775C35.8614 19.4355 36.1456 19.4409 36.3386 19.5433C36.5453 19.64 36.6688 19.8249 36.6688 20.0803C36.6688 20.3357 36.5453 20.5415 36.3386 20.6533ZM50.7294 21.0219C51.0399 21.3094 51.2064 21.6723 51.2064 22.2867C51.2064 23.5709 50.3094 24.1703 48.701 24.1703H45.5948V22.8903H48.6886C48.991 22.8903 49.2056 22.8544 49.34 22.7425C49.4497 22.6501 49.5284 22.516 49.5284 22.3531C49.5284 22.1792 49.4432 22.0411 49.3338 21.9583C49.2118 21.8673 49.0436 21.8259 48.7658 21.8259C47.2744 21.7803 45.4066 21.8673 45.4066 19.9782C45.4066 19.1124 46.0148 18.201 47.6867 18.201H50.884V19.4715H47.9584C47.6684 19.4715 47.4799 19.4812 47.3195 19.5793C47.1448 19.676 47.08 19.8195 47.08 20.0088C47.08 20.234 47.2283 20.3872 47.4289 20.4535C47.5972 20.5058 47.7779 20.5211 48.0496 20.5211L48.9081 20.5418C49.7739 20.5607 50.3682 20.6947 50.7294 21.0219ZM57.091 19.4711H54.1844C53.8942 19.4711 53.7014 19.4809 53.539 19.579C53.3708 19.6756 53.306 19.8191 53.306 20.0085C53.306 20.2337 53.4481 20.3868 53.6547 20.4531C53.823 20.5055 54.0037 20.5208 54.2694 20.5208L55.1337 20.5415C56.0059 20.5607 56.5881 20.6948 56.9431 21.0219C57.0077 21.0675 57.0466 21.1186 57.091 21.1697V19.4711Z" fill="white"/>
</svg>
