<svg xmlns="http://www.w3.org/2000/svg" width="100" height="100"><g transform="translate(155.153 -382.028)"><rect width="63.214" height="40.714" x="-136.758" y="413.183" fill="#f9f9f9" fill-rule="evenodd" stroke="#000" stroke-linecap="round" stroke-linejoin="round" stroke-width=".8" rx="3.599" ry="3.599"/><g transform="scale(.91734 1.0901)" style="line-height:125%;-inkscape-font-specification:Sans Bold" fill="#1a1a1a" font-family="Sans" font-size="11.886" font-weight="400" letter-spacing="0" word-spacing="0"><path d="M-144.80555 393.74386l3.13983 0c.70806.00001 1.24781.0542 1.61925.16251.49912.14703.92666.4082 1.28263.7835.35596.37532.6268.83478.81253 1.37839.18571.54363.27857 1.21396.27858 2.01101-.00001.70032-.0871 1.30391-.26117 1.81077-.21281.61907-.51654 1.12012-.91119 1.50317-.29793.29019-.70033.51654-1.20718.67904-.37919.11994-.88605.17992-1.52059.17992l-3.23269 0zm1.71791 1.43933l0 5.63545 1.28263 0c.47978 0 .82607-.0271 1.03888-.0813.27857-.0697.50975-.18766.69354-.35403.18378-.16637.33371-.44012.44979-.82123.11607-.38111.17411-.90055.17412-1.55831-.00001-.65776-.0581-1.16268-.17412-1.51478-.11608-.35209-.27858-.6268-.48751-.82414-.20894-.19732-.47398-.3308-.79512-.40046-.23989-.0542-.70999-.0812-1.41031-.0812zM-136.26242 402.25217l0-8.50831 1.71791 0 0 8.50831zM-133.34893 399.48378l1.67148-.16251c.10059.56103.30469.9731.61229 1.2362.3076.26311.72257.39466 1.24491.39466.55329 0 .97019-.11705 1.25071-.35113.28051-.23408.42076-.50783.42077-.82123-.00001-.2012-.059-.37241-.17701-.51364-.11802-.14122-.32405-.26406-.6181-.36853-.20121-.0697-.6597-.19346-1.37549-.37144-.92087-.22828-1.56702-.5088-1.93846-.84155-.52234-.46816-.78351-1.03887-.78351-1.71211 0-.43334.12285-.83863.36854-1.21588.24569-.37724.59972-.66453 1.06209-.86186.46236-.19732 1.02049-.29598 1.67438-.29599 1.06789.00001 1.87171.23409 2.41146.70225.53975.46818.82316 1.09305.85025 1.87461l-1.71791.0754c-.0735-.43721-.23119-.75158-.473-.94311-.24183-.19151-.60457-.28728-1.08821-.28728-.49912 0-.88991.10254-1.17236.3076-.18185.13155-.27278.3076-.27277.52814-.00001.2012.0851.37338.25536.51653.21667.18186.74288.37145 1.57862.56877.83574.19733 1.45384.40143 1.8543.6123.40046.21087.71386.49912.94021.86476.22634.36564.33951.81736.33952 1.35517-.00001.48752-.13543.94408-.40626 1.36969-.27085.42561-.6539.74191-1.14914.94891-.49526.207-1.1124.3105-1.8514.3105-1.07563 0-1.9017-.24859-2.47821-.74578-.5765-.49719-.92086-1.22169-1.03306-2.1735zM-119.53019 399.12394l1.66568.52814c-.25538.92861-.68002 1.61829-1.27393 2.06904-.59392.45076-1.34744.67614-2.26056.67614-1.1298 0-2.0584-.38595-2.7858-1.15785-.72741-.7719-1.09111-1.82721-1.09111-3.16595 0-1.41611.36564-2.51592 1.09691-3.29943.73127-.7835 1.69276-1.17525 2.88447-1.17526 1.0408.00001 1.88621.3076 2.53624.92279.38691.36371.67709.88605.87056 1.56702l-1.7005.40626c-.1006-.44108-.31051-.7893-.62971-1.04468-.31921-.25535-.70709-.38304-1.16365-.38304-.63068 0-1.14238.22635-1.53509.67904-.39273.4527-.58909 1.1859-.58908 2.19962-.00001 1.07563.19345 1.84173.58037 2.29829.38691.45656.88991.68484 1.50898.68484.45655 0 .84927-.14509 1.17816-.43528.32887-.29019.56489-.74675.70806-1.36969zM-116.73278 398.05025c0-.86669.12961-1.5941.38885-2.18221.19346-.43335.45753-.8222.79221-1.16656.33468-.34435.70129-.59971 1.09981-.7661.53008-.2244 1.1414-.3366 1.83399-.33661 1.25361.00001 2.25669.38886 3.00925 1.16655.75254.77771 1.12882 1.85914 1.12883 3.2443-.00001 1.37356-.37339 2.44822-1.12013 3.22399-.74675.77577-1.745 1.16365-2.99473 1.16365-1.26523 0-2.27121-.38595-3.01796-1.15785-.74675-.7719-1.12012-1.83495-1.12012-3.18916zm1.77014-.058c0 .96343.22248 1.69373.66743 2.19092.44496.49719 1.00985.74578 1.6947.74578.68484 0 1.24684-.24666 1.68599-.73998.43915-.49332.65872-1.23329.65873-2.21994-.00001-.97502-.21378-1.70242-.64132-2.18221-.42755-.47977-.99535-.71966-1.7034-.71966-.70806 0-1.27876.24279-1.71211.72837-.43335.48559-.65002 1.21782-.65002 2.19672zM-104.97437 402.25217l-3.04117-8.50831 1.863 0 2.1532 6.29708 2.08354-6.29708 1.82238 0-3.04697 8.50831zM-99.205438 402.25217l0-8.50831 6.308682 0 0 1.43933-4.590771 0 0 1.88622 4.271565 0 0 1.43353-4.271565 0 0 2.3157 4.753276 0 0 1.43353zM-91.260098 402.25217l0-8.50831 3.61574 0c.90925.00001 1.56991.0764 1.981983.22925.41206.15284.741906.42465.98954.81543.24762.39079.371433.83768.371441 1.34066-.000008.63842-.187663 1.1656-.562965 1.58153-.375316.41594-.936345.67807-1.683089.78641.371435.21667.678066.45463.919896.71386.241816.25924.567793.71967.977932 1.38129l1.038873 1.65988-2.05453 0-1.242004-1.8514c-.44109-.66163-.742885-1.07853-.905386-1.25071-.162509-.17218-.334687-.29019-.516534-.35403-.181855-.0638-.470107-.0958-.864759-.0958l-.348226 0 0 3.5519zm1.717912-4.90998l1.271023 0c.824128 0 1.338728-.0348 1.543799-.10447.20506-.0696.365631-.18958.481712-.35983.116069-.17024.174106-.38304.174112-.63841-.000006-.28632-.07642-.5175-.229248-.69355-.152838-.17604-.368544-.28728-.647119-.33372-.139295-.0193-.557165-.029-1.253611-.029l-1.340668 0z" style="-inkscape-font-specification:Sans Bold" font-weight="700"/></g><path fill="#fc8100" fill-rule="evenodd" d="m -98.426738,433.991 c 0,2.49308 -2.021042,4.51412 -4.514122,4.51412 -2.49308,0 -4.51412,-2.02104 -4.51412,-4.51412 0,-2.49308 2.02104,-4.51412 4.51412,-4.51412 2.49308,0 4.514122,2.02104 4.514122,4.51412 z" transform="matrix(1.1049 0 0 1.1049 10.703 -45.555)"/><path fill="#fc8100" d="m -73.944196,438.87947 -45.562494,13.78125 -1.59375,0.84375 43.77678,0 c 1.993662,0 3.379464,-1.30992 3.379464,-3.30358 z"/></g></svg>