<svg width="65" height="32" viewBox="0 0 65 32" fill="none" xmlns="http://www.w3.org/2000/svg">
<path fill-rule="evenodd" clip-rule="evenodd" d="M0.54541 29.2821C0.54541 30.7831 2.0741 32 3.95806 32H61.1328C63.0175 32 64.5454 30.7834 64.5454 29.2821V2.71794C64.5454 1.21686 63.0167 0 61.1328 0H3.95806C2.0733 0 0.54541 1.21657 0.54541 2.71794V29.2821ZM13.2969 31.4215H60.8641C62.4666 31.4215 63.7657 30.3875 63.7657 29.1121V16.9223C63.7657 16.9223 45.9417 26.9386 13.2969 31.4215ZM8.00034 14.6148C7.43121 14.9994 6.69192 15.1672 5.52141 15.1672H5.03538V10.5708H5.52141C6.69192 10.5708 7.40205 10.7277 8.00034 11.1329C8.6268 11.5505 9.00366 12.1974 9.00366 12.8634C9.00366 13.5304 8.6268 14.1972 8.00034 14.6148ZM5.88424 9.393H3.22539V16.344H5.87025C7.27662 16.344 8.29228 16.0956 9.18373 15.5416C10.2431 14.8852 10.8696 13.8962 10.8696 12.8733C10.8696 10.8219 8.82187 9.393 5.88424 9.393ZM11.703 16.344H13.5144V9.393H11.703V16.344ZM17.9436 12.0436C16.8567 11.7425 16.5374 11.5438 16.5374 11.1684C16.5374 10.7307 17.1061 10.3979 17.8868 10.3979C18.4295 10.3979 18.8756 10.565 19.3475 10.9608L20.2953 10.0319C19.5163 9.52195 18.5847 9.26119 17.5665 9.26119C15.9234 9.26119 14.6701 10.1154 14.6701 11.253C14.6701 12.2106 15.2536 12.7007 16.9549 13.1591C17.664 13.3463 18.0249 13.4711 18.2071 13.5549C18.5689 13.7319 18.7502 13.9822 18.7502 14.2741C18.7502 14.8372 18.1519 15.2545 17.3438 15.2545C16.4798 15.2545 15.7839 14.9312 15.3667 14.3275L14.1967 15.171C15.0312 16.0878 16.0334 16.4941 17.4118 16.4941C19.2941 16.4941 20.6147 15.5574 20.6147 14.2118C20.6147 13.1075 20.0041 12.6075 17.9436 12.0436ZM21.186 12.8545C21.186 14.8976 23.3293 16.4818 26.0875 16.4818C26.8675 16.4818 27.5352 16.3671 28.3589 16.0768V14.4808C27.6346 15.0233 26.9931 15.2422 26.1718 15.2422C24.3475 15.2422 23.0526 14.252 23.0526 12.8446C23.0526 11.51 24.3887 10.4573 26.0875 10.4573C26.9518 10.4573 27.6055 10.6879 28.3589 11.2393V9.64412C27.5635 9.34228 26.9098 9.21714 26.1306 9.21714C23.3863 9.21714 21.186 10.8335 21.186 12.8545ZM42.7211 14.0512L40.2445 9.38233H38.2658L42.2066 16.5116H43.1814L47.1932 9.38233H45.2297L42.7211 14.0512ZM48.0123 16.344H53.1493V15.1672H49.8224V13.2909H53.0266V12.1136H49.8224V10.5708H53.1493V9.393H48.0123V16.344ZM56.6875 12.593H56.1583V10.4879H56.7162C57.8442 10.4879 58.4574 10.8418 58.4574 11.5183C58.4574 12.217 57.8442 12.593 56.6875 12.593ZM60.3212 11.4452C60.3212 10.1438 59.124 9.393 57.0348 9.393H54.349V16.344H56.1583V13.5517H56.3944L58.9015 16.344H61.1292L58.2059 13.4158C59.5703 13.2079 60.3212 12.5094 60.3212 11.4452ZM28.9488 12.8674V12.865C28.9488 10.8227 31.1606 9.16955 33.8891 9.16955C36.6176 9.16955 38.8295 10.8227 38.8295 12.865V12.8674C38.8295 14.9097 36.6176 16.5652 33.8891 16.5652C31.1606 16.5652 28.9488 14.9097 28.9488 12.8674Z" fill="white"/>
</svg>
