<svg width="57" height="32" viewBox="0 0 57 32" fill="none" xmlns="http://www.w3.org/2000/svg">
<g clip-path="url(#clip0_174_2967)">
<path d="M52.9092 0C55.1146 0 56.9092 1.57592 56.9092 3.51297V28.487C56.9092 30.4241 55.1146 32 52.9092 32H4.18188C1.97628 32 0.181885 30.4241 0.181885 28.487V3.51297C0.181885 1.57592 1.97628 0 4.18188 0H52.9092ZM9.09781 16.4546C10.4529 16.4546 11.5166 16.1116 12.2889 15.4249C13.0608 14.7385 13.4472 13.7867 13.4472 12.5691C13.4472 11.7341 13.1436 11.1289 12.5371 10.7536C11.9302 10.3789 11.1384 10.1911 10.1615 10.1911H6.3794C6.07999 10.1911 5.91454 10.3256 5.88311 10.5944L4.34671 19.2573C4.33074 19.3424 4.35444 19.4202 4.41758 19.4909C4.48044 19.5619 4.55934 19.5971 4.65392 19.5971H6.45035C6.76543 19.5971 6.93861 19.4628 6.97041 19.1937L7.39581 16.8583C7.41135 16.7451 7.46676 16.6531 7.56134 16.5822C7.65577 16.5115 7.77404 16.4651 7.91587 16.444C8.0577 16.4229 8.19143 16.4124 8.31773 16.4124C8.44366 16.4124 8.59336 16.4195 8.76691 16.4336C8.94009 16.4477 9.05056 16.4546 9.09781 16.4546ZM18.4939 15.2337C18.7852 15.4674 18.9312 15.7895 18.9312 16.2C18.9312 16.7237 18.7302 17.1591 18.3284 17.5055C17.9264 17.8528 17.4337 18.0258 16.8511 18.0258C16.3938 18.0258 16.0273 17.9128 15.7519 17.6861C15.4759 17.46 15.3381 17.1486 15.3381 16.7519C15.3381 16.2285 15.535 15.7858 15.9292 15.4249C16.3228 15.064 16.8114 14.8835 17.3946 14.8835C17.8357 14.8835 18.2021 15.0003 18.4939 15.2337ZM21.7202 13.6519C21.7358 13.5669 21.7122 13.4892 21.6494 13.4184C21.5863 13.3477 21.5076 13.3122 21.4132 13.3122H19.6167C19.3958 13.3122 19.2621 13.5458 19.2148 14.013C18.7893 13.447 18.0407 13.1636 16.9692 13.1636C15.8346 13.1636 14.8693 13.5458 14.0735 14.3102C13.2776 15.0746 12.8799 15.9737 12.8799 17.0068C12.8799 17.8422 13.1518 18.5074 13.6955 19.0026C14.2391 19.4983 14.9678 19.7458 15.8819 19.7458C16.3229 19.7458 16.7802 19.6607 17.2528 19.491C17.7256 19.3211 18.1038 19.0947 18.3875 18.8116C18.3243 18.9813 18.2929 19.13 18.2929 19.2573C18.2929 19.484 18.3953 19.597 18.6002 19.597H20.2312C20.5303 19.597 20.7039 19.4627 20.7511 19.1935L21.7202 13.6519ZM24.817 21.7839C24.9902 21.7839 25.1319 21.7134 25.2425 21.5718L31.2701 13.758C31.3015 13.7299 31.3172 13.6806 31.3172 13.6094C31.3172 13.5388 31.2854 13.4714 31.2229 13.4078C31.1597 13.3441 31.0886 13.3121 31.0101 13.3121H29.19C29.0163 13.3121 28.8745 13.3833 28.7645 13.5244L26.2589 16.8369L25.2188 13.652C25.1398 13.4256 24.9665 13.3121 24.6989 13.3121H22.9258C22.8468 13.3121 22.776 13.3441 22.7133 13.4078C22.6501 13.4714 22.6187 13.5388 22.6187 13.6094C22.6187 13.6379 22.7724 14.0553 23.0796 14.8621C23.3868 15.6691 23.7177 16.5397 24.0723 17.474C24.4269 18.408 24.6119 18.9038 24.6277 18.96C23.3355 20.5455 22.6895 21.3948 22.6895 21.5078C22.6895 21.692 22.7918 21.7839 22.9968 21.7839H24.817ZM35.95 16.4546C37.3053 16.4546 38.3688 16.1116 39.1412 15.4249C39.9133 14.7385 40.2995 13.7867 40.2995 12.5691C40.2995 11.7341 39.996 11.1289 39.3894 10.7536C38.7826 10.3789 37.9909 10.1911 37.0139 10.1911H33.2555C32.9401 10.1911 32.7667 10.3256 32.7354 10.5944L31.1991 19.2573C31.1831 19.3424 31.2067 19.4202 31.2699 19.4909C31.3325 19.5619 31.4116 19.5971 31.5062 19.5971H33.4444C33.6334 19.5971 33.7594 19.5052 33.8226 19.3211L34.2482 16.8583C34.2638 16.7451 34.3189 16.6531 34.4137 16.5822C34.5082 16.5115 34.6262 16.4651 34.7682 16.444C34.91 16.4229 35.0438 16.4124 35.1701 16.4124C35.2961 16.4124 35.4457 16.4195 35.6191 16.4336C35.7924 16.4477 35.903 16.4546 35.95 16.4546ZM45.3462 15.2337C45.6375 15.4674 45.7836 15.7895 45.7836 16.2C45.7836 16.7095 45.5826 17.1414 45.1808 17.495C44.779 17.8489 44.2945 18.0258 43.7271 18.0258C43.2699 18.0258 42.8999 17.9128 42.6161 17.6861C42.3324 17.46 42.1905 17.1486 42.1905 16.7519C42.1905 16.2285 42.3875 15.7858 42.7816 15.4249C43.1751 15.064 43.664 14.8835 44.2472 14.8835C44.688 14.8835 45.0544 15.0003 45.3462 15.2337ZM48.5728 13.6519C48.5883 13.5669 48.5647 13.4892 48.5017 13.4184C48.4385 13.3477 48.3599 13.3122 48.2654 13.3122H46.4688C46.2481 13.3122 46.1144 13.5458 46.0672 14.013C45.657 13.447 44.909 13.1636 43.8215 13.1636C42.6868 13.1636 41.7214 13.5458 40.9259 14.3102C40.13 15.0746 39.7322 15.9737 39.7322 17.0068C39.7322 17.8422 40.004 18.5074 40.5476 19.0026C41.0913 19.4983 41.8201 19.7458 42.7343 19.7458C43.1911 19.7458 43.6561 19.6607 44.1288 19.491C44.6016 19.3211 44.9716 19.0947 45.2399 18.8116C45.2399 18.8257 45.2239 18.8893 45.1926 19.0025C45.1608 19.1159 45.1453 19.2011 45.1453 19.2573C45.1453 19.484 45.2475 19.597 45.4526 19.597H47.0838C47.3827 19.597 47.5564 19.4627 47.6035 19.1935L48.5728 13.6519ZM52.7567 10.5094H52.7566V10.4884C52.7566 10.2902 52.6538 10.1911 52.4492 10.1911H50.7001C50.5264 10.1911 50.424 10.269 50.3928 10.4248L48.8562 19.2575L48.8325 19.2999C48.8325 19.371 48.8642 19.438 48.9273 19.5016C48.99 19.5653 49.0691 19.5972 49.1636 19.5972H50.7238C51.0229 19.5972 51.1884 19.4629 51.2202 19.1937L52.7567 10.5094ZM37.203 12.3885C37.3922 12.5371 37.4865 12.7531 37.4866 13.0361C37.4866 13.6307 37.3131 14.034 36.9666 14.2465C36.6198 14.4588 36.0998 14.5649 35.4065 14.5649L34.6501 14.5861L35.052 12.3142C35.0832 12.1586 35.1856 12.0807 35.3592 12.0807H35.7845C36.1311 12.0807 36.4069 12.0949 36.6121 12.1231C36.8166 12.1516 37.0139 12.2399 37.203 12.3885ZM10.3035 12.3249C10.587 12.4878 10.6816 12.8312 10.587 13.3548C10.5079 13.8503 10.3033 14.1757 9.9724 14.3314C9.64143 14.4874 9.16869 14.565 8.5542 14.565L7.77412 14.5862L8.17605 12.3143C8.20747 12.1587 8.30985 12.0808 8.48325 12.0808H8.93258C9.5626 12.0808 10.0199 12.1624 10.3035 12.3249Z" fill="white"/>
</g>
<defs>
<clipPath id="clip0_174_2967">
<rect width="56.7273" height="32" fill="white" transform="translate(0.181885)"/>
</clipPath>
</defs>
</svg>
