<svg width="56" height="32" viewBox="0 0 56 32" fill="none" xmlns="http://www.w3.org/2000/svg">
<path d="M0 2.71795C0 1.21687 1.32023 0 2.94728 0H52.3254C53.9532 0 55.2727 1.21658 55.2727 2.71795V29.2821C55.2727 30.7831 53.9525 32 52.3254 32H2.94728C1.31954 32 0 30.7834 0 29.2821V2.71795ZM38.655 9.69427C37.8759 9.42482 36.6551 9.13566 35.1306 9.13566C31.245 9.13566 28.5079 10.9396 28.4846 13.5249C28.4627 15.436 30.4386 16.5021 31.9302 17.1383C33.4608 17.7902 33.9754 18.206 33.9682 18.7881C33.9584 19.6796 32.7458 20.0869 31.6155 20.0869C30.0416 20.0869 29.2054 19.8854 27.914 19.3888L27.4073 19.1773L26.8554 22.1548C27.7738 22.526 29.4723 22.8477 31.2358 22.8643C35.3694 22.8643 38.0528 21.0811 38.0833 18.3203C38.0981 16.8074 37.0505 15.6559 34.7818 14.7067C33.4072 14.0914 32.5655 13.6809 32.5744 13.0579C32.5744 12.505 33.2869 11.9139 34.8264 11.9139C36.1123 11.8955 37.0437 12.154 37.7695 12.4234L38.1219 12.5769L38.655 9.69427ZM48.7387 9.3795H45.7001C44.7588 9.3795 44.0544 9.61634 43.6409 10.4824L37.8008 22.6712H41.9301C41.9301 22.6712 42.6054 21.0323 42.7581 20.6725C43.2093 20.6725 47.2207 20.6782 47.7942 20.6782C47.9118 21.1438 48.2727 22.6712 48.2727 22.6712H51.9215L48.7387 9.3795ZM43.8897 17.9521C44.2149 17.1858 45.4564 14.2342 45.4564 14.2342C45.4332 14.2696 45.7792 13.4642 45.9778 12.9648L46.2436 14.1115C46.2436 14.1115 46.9966 17.2863 47.1539 17.952H43.8897V17.9521ZM20.462 22.667H24.3927L26.853 9.36679H22.9206L20.462 22.667ZM12.9035 16.6024L11.5248 10.4911C11.2868 9.64895 10.5964 9.39764 9.74233 9.36829H3.40137L3.35119 9.64501C4.89366 9.98923 6.27297 10.4859 7.48178 11.1038L10.9779 22.6555L15.1384 22.6511L21.3293 9.37651H17.1638L13.3139 18.4462L12.9037 16.6031C12.9036 16.6029 12.9036 16.6026 12.9035 16.6024Z" fill="white"/>
</svg>
