<svg version="1.1" id="Layer_1" xmlns="http://www.w3.org/2000/svg" xmlns:xlink="http://www.w3.org/1999/xlink" x="0" y="0" viewBox="0 0 768 768" xml:space="preserve">
  <style>
    .st33,.st34,.st35{fill:none;stroke:#999;stroke-width:.8018;stroke-miterlimit:10}.st34,.st35{stroke:#1a1a1a;stroke-width:1.6036}.st35{stroke:#4d4d4d;stroke-width:1.2826}.st36{fill:#999}.st49{fill:#1a1a1a}.st70,.st71,.st80{opacity:.72;fill:#595959;enable-background:new}.st71,.st80{opacity:.47}.st80{opacity:.35}.st81,.st82,.st84,.st87,.st89,.st96{opacity:.42;fill:#595959;enable-background:new}.st82,.st84,.st87,.st89,.st96{opacity:.48}.st84,.st87,.st89,.st96{opacity:.49}.st87,.st89,.st96{opacity:6.000000e-02}.st89,.st96{opacity:.62}.st96{opacity:.13}.st102,.st105,.st107,.st109,.st112{opacity:.45;fill:#595959;enable-background:new}.st105,.st107,.st109,.st112{opacity:.37}.st107,.st109,.st112{opacity:.31}.st109,.st112{opacity:.16}.st112{opacity:.67}.st121{fill:#4d4d4d}
  </style>
  <defs>
    <path id="SVGID_1_" d="M0 0h768v768H0z"/>
  </defs>
  <clipPath id="SVGID_2_">
    <use xlink:href="#SVGID_1_" overflow="visible"/>
  </clipPath>
  <g style="mix-blend-mode: color-dodge;" clip-path="url(#SVGID_2_)">
    <linearGradient id="SVGID_3_" gradientUnits="userSpaceOnUse" x1="96.5994" y1="755.1606" x2="257.6344" y2="755.1606" gradientTransform="matrix(-.631 .7758 .7758 .631 -401.3121 -471.7257)">
      <stop offset=".00492611" stop-color="#9c9c9c"/>
      <stop offset=".1664" stop-color="#909090"/>
      <stop offset=".4621" stop-color="#6e6e6e"/>
      <stop offset=".8559" stop-color="#393939"/>
      <stop offset="1" stop-color="#242424"/>
    </linearGradient>
    <path opacity=".08" fill="url(#SVGID_3_)" d="m16.1-7.7-118.2 112.1 295.6 142.1z"/>
    <linearGradient id="SVGID_4_" gradientUnits="userSpaceOnUse" x1="-284.8042" y1="55.5981" x2="-88.2092" y2="55.5981" gradientTransform="scale(1 -1) rotate(48.604 943.75881446 352.2277217)">
      <stop offset=".00492611" stop-color="#9c9c9c"/>
      <stop offset=".1664" stop-color="#909090"/>
      <stop offset=".4621" stop-color="#6e6e6e"/>
      <stop offset=".8559" stop-color="#393939"/>
      <stop offset="1" stop-color="#242424"/>
    </linearGradient>
    <path opacity=".08" fill="url(#SVGID_4_)" d="m321.8 737.3 182.8-29.2-76.8-139.8z"/>
    <linearGradient id="SVGID_5_" gradientUnits="userSpaceOnUse" x1="-39.8228" y1="741.3447" x2="100.2742" y2="741.3447" gradientTransform="matrix(-.7307 -.6827 -.6827 .7307 660.6558 -398.4593)">
      <stop offset=".00492611" stop-color="#9c9c9c"/>
      <stop offset=".1664" stop-color="#909090"/>
      <stop offset=".4621" stop-color="#6e6e6e"/>
      <stop offset=".8559" stop-color="#393939"/>
      <stop offset="1" stop-color="#242424"/>
    </linearGradient>
    <path opacity=".15" fill="url(#SVGID_5_)" d="m133.6 19.2 18.5 184.3-86.8-39.1z"/>
    <linearGradient id="SVGID_6_" gradientUnits="userSpaceOnUse" x1="65.9729" y1="589.341" x2="302.1995" y2="589.341" gradientTransform="scale(-1 1) rotate(67.685 494.75000994 246.17932857)">
      <stop offset=".00492611" stop-color="#9c9c9c"/>
      <stop offset=".1664" stop-color="#909090"/>
      <stop offset=".4621" stop-color="#6e6e6e"/>
      <stop offset=".8559" stop-color="#393939"/>
      <stop offset="1" stop-color="#242424"/>
    </linearGradient>
    <path opacity=".09" fill="url(#SVGID_6_)" d="m16.9-7.7-94.5 216.6-24.5-104.5z"/>
    <linearGradient id="SVGID_7_" gradientUnits="userSpaceOnUse" x1="-25.0783" y1="593.5433" x2="193.5879" y2="593.5433" gradientTransform="scale(1 -1) rotate(82.19 557.2606894 332.82456163)">
      <stop offset=".00492611" stop-color="#9c9c9c"/>
      <stop offset=".1664" stop-color="#909090"/>
      <stop offset=".4621" stop-color="#6e6e6e"/>
      <stop offset=".8559" stop-color="#393939"/>
      <stop offset="1" stop-color="#242424"/>
    </linearGradient>
    <path opacity=".03" fill="url(#SVGID_7_)" d="m279.6-3.8-15.4 209.6-87.6-3z"/>
    <linearGradient id="SVGID_8_" gradientUnits="userSpaceOnUse" x1="42.482" y1="1144.1938" x2="337.2129" y2="1144.1938" gradientTransform="matrix(-.9914 .1306 .1306 .9914 124.4374 -645.8328)">
      <stop offset=".00492611" stop-color="#9c9c9c"/>
      <stop offset=".1664" stop-color="#909090"/>
      <stop offset=".4621" stop-color="#6e6e6e"/>
      <stop offset=".8559" stop-color="#393939"/>
      <stop offset="1" stop-color="#242424"/>
    </linearGradient>
    <path opacity=".07" fill="url(#SVGID_8_)" d="m72.2 424.7 171.3 158.2-305.7-63.7z"/>
    <linearGradient id="SVGID_9_" gradientUnits="userSpaceOnUse" x1="102.9271" y1="114.0192" x2="293.4718" y2="114.0192" gradientTransform="matrix(.9899 .1416 .1416 -.9899 -147.1349 787.7158)">
      <stop offset=".00492611" stop-color="#9c9c9c"/>
      <stop offset=".1664" stop-color="#909090"/>
      <stop offset=".4621" stop-color="#6e6e6e"/>
      <stop offset=".8559" stop-color="#393939"/>
      <stop offset="1" stop-color="#242424"/>
    </linearGradient>
    <path opacity=".11" fill="url(#SVGID_9_)" d="M-33 714.2 135.2 745l29.2-59.9z"/>
    <linearGradient id="SVGID_10_" gradientUnits="userSpaceOnUse" x1="90.7583" y1="1299.0914" x2="175.5816" y2="1299.0914" gradientTransform="matrix(-.9481 .318 .318 .9481 -.08799317 -646.6208)">
      <stop offset=".00492611" stop-color="#9c9c9c"/>
      <stop offset=".1664" stop-color="#909090"/>
      <stop offset=".4621" stop-color="#6e6e6e"/>
      <stop offset=".8559" stop-color="#393939"/>
      <stop offset="1" stop-color="#242424"/>
    </linearGradient>
    <path opacity=".12" fill="url(#SVGID_10_)" d="M278.8 737.3h43l-31.5-232.7z"/>
    <linearGradient id="SVGID_11_" gradientUnits="userSpaceOnUse" x1="-368.6344" y1="642.3132" x2="-179.6127" y2="642.3132" gradientTransform="matrix(.3599 -.933 -.933 -.3599 708.4507 456.0871)">
      <stop offset=".00492611" stop-color="#9c9c9c"/>
      <stop offset=".1664" stop-color="#909090"/>
      <stop offset=".4621" stop-color="#6e6e6e"/>
      <stop offset=".8559" stop-color="#393939"/>
      <stop offset="1" stop-color="#242424"/>
    </linearGradient>
    <path opacity=".04" fill="url(#SVGID_11_)" d="M48.4 394 26.9 588.3l-89.1-69.1z"/>
    <linearGradient id="SVGID_12_" gradientUnits="userSpaceOnUse" x1="-110.6844" y1="1077.1259" x2="-16.9384" y2="1077.1259" gradientTransform="matrix(-.9754 -.2202 -.2202 .9754 382.3834 -600.6647)">
      <stop offset=".00492611" stop-color="#9c9c9c"/>
      <stop offset=".1664" stop-color="#909090"/>
      <stop offset=".4621" stop-color="#6e6e6e"/>
      <stop offset=".8559" stop-color="#393939"/>
      <stop offset="1" stop-color="#242424"/>
    </linearGradient>
    <path opacity=".12" fill="url(#SVGID_12_)" d="m169 421.6 2.3 110.6 98.3-130.5z"/>
    <linearGradient id="SVGID_13_" gradientUnits="userSpaceOnUse" x1="18.3058" y1="208.102" x2="286.456" y2="208.102" gradientTransform="matrix(.9387 .3446 .3446 -.9387 -280.6079 708.611)">
      <stop offset=".00492611" stop-color="#9c9c9c"/>
      <stop offset=".1664" stop-color="#909090"/>
      <stop offset=".4621" stop-color="#6e6e6e"/>
      <stop offset=".8559" stop-color="#393939"/>
      <stop offset="1" stop-color="#242424"/>
    </linearGradient>
    <path opacity=".09" fill="url(#SVGID_13_)" d="m-171.3 463.9 107.6 165.9L66 594.4z"/>
    <g>
      <path class="st34" d="m321.8 737.3 182.8-29.2M321.8 737.3l106-169"/>
      <path class="st33" d="m134.4 18.4-16.9-32.2"/>
      <path class="st35" d="m26.9 752.6 137.5-67.5"/>
      <path class="st34" d="m66 594.4-129.7 35.4M54.5 696.6 66 594.4M1.5 747.3l53-50.7M339.5 307.2l-146-60.7M16.1-7.7l177.4 254.2M290.3 778.8 54.5 696.6M66 594.4l224.3 184.4M339.5 307.2 66 594.4M1.5 747.3l32.3-72.2"/>
      <path class="st35" d="m-85.2 770.3 112.1-17.7M321.8 737.3h-43M290.3 778.8l-11.5-41.5M351 582.9l-29.2 154.4M26.9 752.6l-200.5-208.1M176.6 202.8 129 139M264.2 205.8l-87.6-3M195.8-23.8 129 139"/>
      <path class="st33" d="M117.5-13.8 82.2 43M65.3 164.4 19.2 212M152.1 203.5l-86.8-39.1M134.4 18.4l-69.1 146M279.6-3.8 134.4 18.4M-168.2 153.6l233.5 10.8M48.4 394-192 299.5M-62.2 519.2 48.4 394M26.9 588.3l-89.1-69.1M306.4 506.9l-46.8-7.7M243.5 582.9l16.1-83.7M306.4 506.9l-62.9 76M266.5 688.9l-23-106M164.4 685.1l102.1 3.8M135.2 745l29.2-59.9M350.2 374l-90.6 125.2M350.2 374l-87.5-42.2"/>
      <path class="st34" d="M23.8 186.6 19.2 212M23.8 186.6l-41.5 14.6M16.1-7.7l-118.2 112.1M73 284.9l120.5-38.4M109.8 375.6 73 284.9M-75.3 397.8 73 284.9M54.5 696.6l-7.7 65.3M1.5 747.3l45.3 14.6M339.5 307.2l-49.2 197.4M385.5 184.3l-46 122.9M269.6 401.7 169 421.6"/>
      <path class="st35" d="M246.5 382.5 215 371.7M262.7 331.8 215 371.7M72.2 424.7l142.8-53M48.4 394l23.8 30.7M50.7 327.9 48.4 394M8.4 277.2l64.6 7.7M50.7 327.9l22.3-43M205.8 526.1l-34.5 6.1M66 594.4l105.3-62.2M169 421.6l2.3 110.6M404.7 435.5l-65.2-128.3M351 582.9l-60.7-78.3"/>
      <path class="st33" d="M417 103.7 279.6-3.8M245 145.9 279.6-3.8M264.2 205.8 245 145.9M558.3 519.2l-218.8-212M350.2 374l-80.6 27.7M243.5 582.9 162 612.1M66 594.4l-39.1-6.1M19.2 212l74.5 24.5M134.4 18.4 82.2 43M424.7 515.3l179.7 137.5M453.9 762.6l150.5-109.8M290.3 778.8l163.6-16.2M491.5 794.9l-37.6-32.3"/>
      <circle class="st33" cx="65.3" cy="164.4" r="10"/>
      <path class="st33" d="M266.5 680.4c4.6 0 8.4 3.8 8.4 8.4 0 4.6-3.8 8.4-8.4 8.4-4.6 0-8.4-3.8-8.4-8.4-.1-4.5 3.8-8.4 8.4-8.4zM279.6-13.1c5.4 0 10 4.6 10 9.2 0 5.4-4.6 10-10 10s-10-4.6-10-10c0-5.3 4.6-9.2 10-9.2z"/>
      <path class="st36" d="M243.5 574.5c4.6 0 8.4 3.8 8.4 8.4 0 4.6-3.8 8.4-8.4 8.4s-8.4-3.8-8.4-8.4c-.1-4.6 3.7-8.4 8.4-8.4zM48.4 386.3c3.8 0 6.9 3.1 6.9 6.9s-3.1 6.9-6.9 6.9-6.9-3.1-6.9-6.9c-.8-3.1 2.3-6.9 6.9-6.9zM306.4 502.3c2.3 0 4.6 2.3 4.6 4.6s-2.3 4.6-4.6 4.6-4.6-2.3-4.6-4.6c0-3.1 2.3-4.6 4.6-4.6zM152.1 198.9c3.1 0 5.4 2.3 5.4 5.4 0 3.1-2.3 5.4-5.4 5.4-3.1 0-5.4-2.3-5.4-5.4.8-3.1 3.1-5.4 5.4-5.4zM135.2 736.5c5.4 0 9.2 3.8 9.2 9.2s-3.8 9.2-9.2 9.2-9.2-3.8-9.2-9.2 3.8-9.2 9.2-9.2zM259.6 494.6c2.3 0 4.6 2.3 4.6 4.6s-2.3 4.6-4.6 4.6-4.6-2.3-4.6-4.6 2.3-4.6 4.6-4.6zM65.3 156.7c3.8 0 7.7 3.1 7.7 7.7 0 3.8-3.1 7.7-7.7 7.7s-7.7-3.1-7.7-7.7c.8-3.9 3.8-7.7 7.7-7.7z"/>
      <circle class="st36" cx="164.4" cy="685.1" r="6.1"/>
      <path class="st36" d="M19.2 204.3c4.6 0 7.7 3.8 7.7 7.7 0 4.6-3.8 7.7-7.7 7.7-4.6 0-7.7-3.8-7.7-7.7s3.9-7.7 7.7-7.7zM26.9 582.9c3.1 0 5.4 2.3 5.4 5.4 0 3.1-2.3 5.4-5.4 5.4s-5.4-2.3-5.4-5.4c0-3.1 2.3-5.4 5.4-5.4zM134.4 10.8c3.8 0 7.7 3.1 7.7 7.7 0 3.8-3.1 7.7-7.7 7.7-3.8 0-7.7-3.1-7.7-7.7.8-3.9 3.9-7.7 7.7-7.7zM350.2 367.9c3.1 0 6.1 3.1 6.1 6.1 0 3.1-3.1 6.1-6.1 6.1s-6.1-3.1-6.1-6.1 3-6.1 6.1-6.1zM264.2 202.8c2.3 0 3.8 1.5 3.8 3.8s-1.5 3.8-3.8 3.8-3.8-1.5-3.8-3.8 2.3-3.8 3.8-3.8zM262.7 327.9c2.3 0 4.6 2.3 4.6 4.6s-2.3 4.6-4.6 4.6-4.6-2.3-4.6-4.6c-.1-3 2.3-4.6 4.6-4.6zM266.5 683.5c3.1 0 5.4 2.3 5.4 5.4 0 3.1-2.3 5.4-5.4 5.4s-5.4-2.3-5.4-5.4 2.3-5.4 5.4-5.4zM279.6-11.5c4.6 0 7.7 3.8 7.7 7.7 0 4.6-3.8 7.7-7.7 7.7-4.6 0-7.7-3.8-7.7-7.7s3-7.7 7.7-7.7zM82.2 36.1c3.8 0 6.9 3.1 6.9 6.9s-3.1 6.9-6.9 6.9c-3.8 0-6.9-3.1-6.9-6.9s3-6.9 6.9-6.9z"/>
      <path d="M243.5 571.4c6.9 0 12.3 5.4 12.3 12.3s-5.4 12.3-12.3 12.3-12.3-5.4-12.3-12.3c.7-6.9 6.1-12.3 12.3-12.3z" fill="none" stroke="#999" stroke-width="2.2771" stroke-miterlimit="10"/>
      <path d="M176.6 193.5c5.4 0 9.2 3.8 9.2 9.2s-3.8 9.2-9.2 9.2-9.2-3.8-9.2-9.2 3.9-9.2 9.2-9.2z" fill="none" stroke="#999" stroke-width="1.7779" stroke-miterlimit="10"/>
      <path class="st36" d="M246.5 375.6c3.8 0 6.9 3.1 6.9 6.9s-3.1 6.9-6.9 6.9-6.9-3.1-6.9-6.9c.8-3.9 3.1-6.9 6.9-6.9z"/>
      <path d="M417 95.2c4.6 0 8.4 3.8 8.4 8.4s-3.8 8.4-8.4 8.4c-4.6 0-8.4-3.8-8.4-8.4s3.8-8.4 8.4-8.4z" fill="#424242"/>
      <path class="st36" d="M171.3 102.9c3.8 0 7.7 3.1 7.7 7.7 0 3.8-3.1 7.7-7.7 7.7-3.8 0-7.7-3.1-7.7-7.7.8-3.8 3.8-7.7 7.7-7.7zM92.9 230.4c3.8 0 6.9 3.1 6.9 6.9s-3.1 6.9-6.9 6.9c-3.8 0-6.9-3.1-6.9-6.9 0-4.6 3.1-6.9 6.9-6.9zM84.5-6.9c3.8 0 7.7 3.1 7.7 7.7 0 3.8-3.1 7.7-7.7 7.7-3.8 0-7.7-3.1-7.7-7.7s3.8-7.7 7.7-7.7z"/>
      <circle class="st36" cx="558.3" cy="519.2" r="3.8"/>
      <path class="st36" d="M161.3 607.5c2.3 0 4.6 2.3 4.6 4.6s-2.3 4.6-4.6 4.6-4.6-2.3-4.6-4.6 1.5-4.6 4.6-4.6zM245 141.3c2.3 0 4.6 2.3 4.6 4.6s-2.3 4.6-4.6 4.6-4.6-2.3-4.6-4.6 1.5-4.6 4.6-4.6z"/>
      <path d="M482.3 630.5c3.8 0 7.7 3.1 7.7 7.7 0 3.8-3.1 7.7-7.7 7.7-3.8 0-7.7-3.1-7.7-7.7s3.1-7.7 7.7-7.7z" fill="none" stroke="#999" stroke-width=".6153" stroke-miterlimit="10"/>
      <path class="st36" d="M482.3 632.1c3.1 0 6.1 2.3 6.1 6.1 0 3.1-2.3 6.1-6.1 6.1-3.1 0-6.1-2.3-6.1-6.1s2.3-6.1 6.1-6.1zM604.4 644.4c4.6 0 8.4 3.8 8.4 8.4s-3.8 8.4-8.4 8.4c-4.6 0-8.4-3.8-8.4-8.4s3.8-8.4 8.4-8.4z"/>
      <path class="st33" d="m482.3 638.2 122.1 14.6M321.8 737.3l160.5-99.1M427.8 568.3l54.5 69.9"/>
      <g>
        <path class="st49" d="M66 585.2c5.4 0 9.2 3.8 9.2 9.2s-3.8 9.2-9.2 9.2-9.2-3.8-9.2-9.2c.8-4.6 4.6-9.2 9.2-9.2zM339.5 300.3c3.8 0 6.9 3.1 6.9 6.9 0 3.8-3.1 6.9-6.9 6.9-3.8 0-6.9-3.1-6.9-6.9-.1-3.8 3-6.9 6.9-6.9zM54.5 687.4c5.4 0 9.2 3.8 9.2 9.2s-3.8 9.2-9.2 9.2-9.2-3.8-9.2-9.2c0-5.4 3.9-9.2 9.2-9.2z"/>
        <circle class="st49" cx="16.1" cy="-7.7" r="8.4"/>
        <circle transform="matrix(.00235 -1 1 .00235 -745.7296 747.0459)" class="st49" cx="1.5" cy="747.3" r="8.4"/>
        <circle class="st49" cx="33.8" cy="675.1" r="3.8"/>
        <path class="st49" d="M193.5 238.8c3.8 0 6.9 3.1 6.9 6.9 0 3.8-3.1 6.9-6.9 6.9-3.8 0-6.9-3.1-6.9-6.9 0-3.8 3.1-6.9 6.9-6.9z"/>
        <path d="M164.4 675.8c5.4 0 9.2 3.8 9.2 9.2s-3.8 9.2-9.2 9.2c-5.4 0-9.2-3.8-9.2-9.2-.1-4.6 3.8-9.2 9.2-9.2z" fill="none" stroke="#1a1a1a" stroke-width="1.7587" stroke-miterlimit="10"/>
        <path d="M334.1 735.7c.8 6.9-4.6 13.1-11.5 13.8-6.9.8-13.1-4.6-13.8-11.5" fill="none" stroke="#1a1a1a" stroke-width="2.274" stroke-miterlimit="10"/>
        <path d="M27.6-5.4c-.8 6.1-6.9 10-13.1 9.2s-9.9-6.9-9.1-13 6.1-10 13.1-9.2" fill="none" stroke="#1a1a1a" stroke-width="2.0767" stroke-miterlimit="10"/>
        <path d="M125.2 752.6c-3.8-5.4-3.1-13.1 3.1-16.9 5.4-3.8 13.1-3.1 16.9 3.1 3.8 5.4 3.1 13.1-3.1 16.9" fill="none" stroke="#1a1a1a" stroke-width="2.1443" stroke-miterlimit="10"/>
        <path class="st49" d="M171.3 527.6c2.3 0 3.8 1.5 3.8 3.8s-1.5 3.8-3.8 3.8-3.8-1.5-3.8-3.8 1.5-3.8 3.8-3.8zM385.5 179.7c2.3 0 4.6 2.3 4.6 4.6s-2.3 4.6-4.6 4.6-4.6-2.3-4.6-4.6c-.7-3.1 1.6-4.6 4.6-4.6zM269.6 396.3c3.1 0 5.4 2.3 5.4 5.4 0 3.1-2.3 5.4-5.4 5.4s-5.4-2.3-5.4-5.4c0-3.1 2.3-5.4 5.4-5.4zM72.2 275.7c5.4 0 9.2 3.8 9.2 9.2s-3.8 9.2-9.2 9.2c-5.4 0-9.2-3.8-9.2-9.2 0-4.6 3.8-9.2 9.2-9.2zM23.8 180.5c3.1 0 6.1 2.3 6.1 6.1 0 3.1-2.3 6.1-6.1 6.1s-6.1-2.3-6.1-6.1c.7-3 3-6.1 6.1-6.1zM109.8 371.7c2.3 0 4.6 2.3 4.6 4.6s-2.3 4.6-4.6 4.6-4.6-2.3-4.6-4.6c.8-3.1 2.3-4.6 4.6-4.6zM40.7 760.3c2.3 0 4.6 2.3 4.6 4.6s-2.3 4.6-4.6 4.6-4.6-2.3-4.6-4.6 2.3-4.6 4.6-4.6zM290.3 496.1c4.6 0 8.4 3.8 8.4 8.4 0 4.6-3.8 8.4-8.4 8.4-4.6 0-8.4-3.8-8.4-8.4 0-4.5 3.8-8.4 8.4-8.4z"/>
        <path class="st49" d="M46.8 754.2c3.8 0 7.7 3.1 7.7 7.7 0 3.8-3.1 7.7-7.7 7.7s-7.7-3.1-7.7-7.7c.1-4.7 3.1-7.7 7.7-7.7zM427.8 562.9c3.1 0 5.4 2.3 5.4 5.4 0 3.1-2.3 5.4-5.4 5.4s-5.4-2.3-5.4-5.4c0-2.3 2.3-5.4 5.4-5.4zM709.6 745c2.3 0 4.6 2.3 4.6 4.6s-2.3 4.6-4.6 4.6-4.6-2.3-4.6-4.6 2.3-4.6 4.6-4.6zM504.6 700.4c3.8 0 7.7 3.1 7.7 7.7 0 3.8-3.1 7.7-7.7 7.7-3.8 0-7.7-3.1-7.7-7.7 0-3.8 3.8-7.7 7.7-7.7z"/>
      </g>
      <g>
        <path class="st35" d="m321.8 737.3 102.9-222"/>
        <path d="M237.3 510.7c0-.8.8-2.3 2.3-2.3.8 0 2.3.8 2.3 2.3s-.8 2.3-2.3 2.3c-1.5 0-2.3-.7-2.3-2.3z" opacity=".74" fill="#595959"/>
        <path d="M383.2 467.7c0-1.5 1.5-3.1 3.1-3.1s3.1 1.5 3.1 3.1-1.5 3.1-3.1 3.1c-1.5.8-3.1-.8-3.1-3.1z" opacity=".41" fill="#595959"/>
        <path d="M13.1 47.6c0-3.1 2.3-6.1 6.1-6.1 3.1 0 6.1 2.3 6.1 6.1s-3.1 6.1-6.1 6.1-6.1-2.2-6.1-6.1z" opacity=".52" fill="#595959"/>
        <path class="st70" d="M218.1 215c0-2.3 1.5-3.8 3.8-3.8s3.8 1.5 3.8 3.8-1.5 3.8-3.8 3.8c-1.5.1-3.8-1.5-3.8-3.8z"/>
        <path class="st71" d="M482.3 513c0-.8.8-1.5 1.5-1.5s1.5.8 1.5 1.5c0 .8-.8 1.5-1.5 1.5-.7.1-1.5-.7-1.5-1.5z"/>
        <circle class="st71" cx="325.6" cy="588.3" r="3.8"/>
        <circle cx="550.7" cy="754.9" r="7.7" opacity=".85" fill="#595959"/>
        <path class="st80" d="M137.5 198.9c0-3.1 2.3-5.4 5.4-5.4 3.1 0 5.4 2.3 5.4 5.4 0 3.1-2.3 5.4-5.4 5.4-3.1.8-5.4-2.3-5.4-5.4z"/>
        <path class="st81" d="M260.4 321c0-.8.8-1.5 1.5-1.5.8 0 1.5.8 1.5 1.5 0 .8-.8 1.5-1.5 1.5-.8.8-1.5.1-1.5-1.5z"/>
        <path class="st82" d="M119.8 343.3c0-.8.8-.8.8-.8.8 0 .8.8.8.8 0 .8-.8.8-.8.8 0 .7-.8 0-.8-.8z"/>
        <circle cx="304.1" cy="604.4" r="3.8" opacity=".69" fill="#595959"/>
        <path class="st84" d="M324.1 92.2c0-3.1 2.3-6.1 6.1-6.1 3.1 0 6.1 2.3 6.1 6.1 0 3.1-2.3 6.1-6.1 6.1-3.8-.8-6.1-3.1-6.1-6.1z"/>
        <path class="st89" d="M306.4 357.1c0-4.6 3.8-7.7 7.7-7.7 3.8 0 7.7 3.8 7.7 7.7 0 4.6-3.8 7.7-7.7 7.7-3.8 0-7.7-3.1-7.7-7.7z"/>
        <circle class="st87" cx="458.7" cy="14.7" r="10"/>
        <path d="M319.5 702.7c0-3.1 2.3-5.4 5.4-5.4 3.1 0 5.4 2.3 5.4 5.4 0 3.1-2.3 5.4-5.4 5.4-3.1 0-5.4-2.3-5.4-5.4z" opacity=".2" fill="#595959"/>
        <path d="M379.4 710.4c0-5.4 3.8-9.2 9.2-9.2 5.4 0 9.2 3.8 9.2 9.2s-3.8 9.2-9.2 9.2c-5.4 0-9.2-3.8-9.2-9.2z" opacity=".01" fill="#595959"/>
        <circle class="st96" cx="483.8" cy="360.2" r="1.5"/>
        <path d="M139.8 664.3c0-.8.8-1.5 1.5-1.5s1.5.8 1.5 1.5-.8 1.5-1.5 1.5c-.8.1-1.5-.7-1.5-1.5z" opacity=".77" fill="#595959"/>
        <path class="st82" d="M389.4 375.6c0-3.8 3.1-6.9 6.9-6.9s6.9 3.1 6.9 6.9-3.1 6.9-6.9 6.9c-3.9 0-6.9-3.1-6.9-6.9z"/>
        <path class="st96" d="M322.6 487.7c0-2.3 2.3-4.6 4.6-4.6s4.6 2.3 4.6 4.6-2.3 4.6-4.6 4.6-4.6-2.3-4.6-4.6z"/>
        <path class="st84" d="M5.4 391.7c0-3.8 3.1-6.9 6.9-6.9s6.9 3.1 6.9 6.9-3.1 6.9-6.9 6.9c-3.9.8-6.9-2.3-6.9-6.9z"/>
        <path d="M414.7 763.4c.8-.8.8 0 .8 0 0 .8 0 .8-.8 0 0 .8 0 .8 0 0z" opacity=".14" fill="#595959"/>
        <path class="st102" d="M219.6 337.2c0-.8.8-1.5 1.5-1.5s1.5.8 1.5 1.5-.8 1.5-1.5 1.5-1.5-.8-1.5-1.5z"/>
        <path class="st80" d="M89.9 546c0-6.1 5.4-11.5 11.5-11.5s11.5 5.4 11.5 11.5-5.4 11.5-11.5 11.5c-6.9-.7-11.5-5.3-11.5-11.5z"/>
        <circle cx="240.4" cy="598.3" r="4.6" opacity=".58" fill="#595959"/>
        <path class="st105" d="M434.7 256.5c0-2.3 1.5-3.8 3.8-3.8s3.8 1.5 3.8 3.8-1.5 3.8-3.8 3.8c-1.5.8-3.8-1.5-3.8-3.8z"/>
        <path d="M415.5 515.3c0-5.4 3.8-9.2 9.2-9.2 5.4 0 9.2 3.8 9.2 9.2s-3.8 9.2-9.2 9.2c-5.4 0-9.2-3.8-9.2-9.2z" fill="#595959"/>
        <path class="st107" d="M301.1 128.3c0-1.5 1.5-3.1 3.1-3.1s3.1 1.5 3.1 3.1-1.5 3.1-3.1 3.1-3.1-1.6-3.1-3.1z"/>
        <path class="st109" d="M376.3 169.7s0-.7 0 0c.8-.8.8 0 .8 0 0 .8 0 .8-.8 0 0 .8 0 .8 0 0z"/>
        <path class="st70" d="M450.8 485.4c2.3 0 3.8 2.3 3.1 3.8 0 2.3-2.3 3.8-3.8 3.1-2.3 0-3.8-2.3-3.1-3.8 0-2.4 1.5-3.9 3.8-3.1z"/>
        <path d="M671.2 523c1.5 0 3.1 1.5 3.1 3.8 0 1.5-1.5 3.1-3.8 3.1-1.5 0-3.1-1.5-3.1-3.8.8-1.6 2.3-3.1 3.8-3.1z" opacity=".17" fill="#595959"/>
        <path class="st80" d="M473.1 405.5c3.1 0 5.4 3.1 5.4 6.1 0 3.1-3.1 5.4-6.1 5.4-3.1 0-5.4-3.1-5.4-6.1-.1-3.9 3-6.2 6.1-5.4z"/>
        <path class="st81" d="M341.8 519.2c.8 0 1.5.8 1.5 1.5 0 .8-.8 1.5-1.5 1.5s-1.5-.8-1.5-1.5c-.1-1.5.7-1.5 1.5-1.5z"/>
        <path class="st82" d="M330.2 377.1c.8 0 .8.8.8 1.5 0 .8-.8.8-1.5.8s-.8-.8-.8-1.5c.8-.8.8-.8 1.5-.8z"/>
        <path class="st84" d="M510.7 649.7c3.1 0 5.4 3.1 5.4 6.1s-3.1 5.4-6.1 5.4-5.4-3.1-5.4-6.1c.7-3.1 3-6.1 6.1-5.4z"/>
        <path class="st89" d="M302.6 561.4c4.6 0 7.7 3.8 6.9 8.4 0 4.6-3.8 7.7-8.4 6.9-4.6 0-7.7-3.8-6.9-8.4-.1-3.8 3.8-6.9 8.4-6.9z"/>
        <path class="st87" d="M632.8 735.7c2.3 0 3.8 2.3 3.8 3.8 0 2.3-2.3 3.8-3.8 3.8-2.3 0-3.8-2.3-3.8-3.8 0-2.2 2.3-3.8 3.8-3.8z"/>
        <path class="st96" d="M286.5 737.3c.8 0 1.5.8 1.5 1.5s-.8 1.5-1.5 1.5c-.8 0-1.5-.8-1.5-1.5-.1-1.5.7-2.3 1.5-1.5z"/>
        <path class="st82" d="M278 643.6c3.8 0 6.1 3.8 6.1 6.9 0 3.8-3.8 6.1-6.9 6.1-3.8 0-6.1-3.8-6.1-6.9 0-3.8 3.1-6.1 6.9-6.1z"/>
        <path class="st102" d="M329.5 477.7c.8 0 1.5.8 1.5 1.5 0 .8-.8 1.5-1.5 1.5s-1.5-.8-1.5-1.5c-.1-1.5.7-2.3 1.5-1.5z"/>
        <path class="st105" d="M393.2 698.1c2.3 0 3.8 2.3 3.8 4.6s-2.3 3.8-4.6 3.8-3.8-2.3-3.8-4.6 2.3-4.6 4.6-3.8z"/>
        <path class="st107" d="M531.5 574.5c1.5 0 2.3 1.5 2.3 3.1s-1.5 2.3-3.1 2.3c-1.5 0-2.3-1.5-2.3-3.1s1.5-3.1 3.1-2.3z"/>
        <path class="st109" d="M430.1 676.6c.8.8 0 .8 0 .8-.8 0-.8 0 0-.8-.8 0-.8 0 0 0z"/>
        <circle class="st112" cx="321.8" cy="641.3" r="3.8"/>
        <path class="st112" d="M25.3 236.5c0-3.8 3.1-7.7 7.7-7.7 3.8 0 7.7 3.1 7.7 7.7 0 3.8-3.1 7.7-7.7 7.7s-7.7-3-7.7-7.7z"/>
        <path d="M411.6 453.9c0-2.3 2.3-4.6 4.6-4.6s4.6 2.3 4.6 4.6-2.3 4.6-4.6 4.6c-3 0-4.6-1.5-4.6-4.6z" opacity=".71" fill="#595959"/>
        <path d="M443.1 761.9c0-6.1 4.6-10.8 10.8-10.8 6.1 0 10.8 4.6 10.8 10.8 0 6.1-4.6 10.8-10.8 10.8-6.2-.1-10.8-4.7-10.8-10.8z" opacity=".97" fill="#595959"/>
      </g>
      <path class="st34" d="m709.6 749.6-205-41.5M427.8 568.3l281.8 181.3M290.3 504.6l137.5 63.7M504.6 708.1l-214.3 70.7"/>
      <g>
        <path class="st121" d="M321.8 728.1c4.6 0 9.2 3.8 9.2 9.2s-3.8 9.2-9.2 9.2c-4.6 0-9.2-3.8-9.2-9.2s3.8-9.2 9.2-9.2zM278.8 731.9c3.1 0 4.6 2.3 4.6 4.6 0 3.1-2.3 4.6-4.6 4.6-3.1 0-4.6-2.3-4.6-4.6s2.3-4.6 4.6-4.6zM26.9 747.3c3.1 0 5.4 2.3 5.4 5.4 0 3.1-2.3 5.4-5.4 5.4s-5.4-2.3-5.4-5.4c0-3.1 2.3-5.4 5.4-5.4zM129 130.6c4.6 0 9.2 3.8 9.2 9.2 0 4.6-3.8 9.2-9.2 9.2-4.6 0-9.2-3.8-9.2-9.2.8-5.4 4.6-9.2 9.2-9.2zM176.6 195.8c3.8 0 6.9 3.1 6.9 6.9s-3.1 6.9-6.9 6.9-6.9-3.1-6.9-6.9 3.1-6.9 6.9-6.9z"/>
        <path d="M48.4 384.8c5.4 0 9.2 3.8 9.2 9.2 0 5.4-3.8 9.2-9.2 9.2s-9.2-3.8-9.2-9.2c-.8-5.4 3.8-9.2 9.2-9.2z" fill="none" stroke="#4d4d4d" stroke-width="1.8778" stroke-miterlimit="10"/>
        <path d="M339.5 297.2c5.4 0 10 4.6 10 10s-4.6 10-10 10-10-4.6-10-10 4.6-10 10-10z" fill="none" stroke="#4d4d4d" stroke-width="1.7787" stroke-miterlimit="10"/>
        <path d="M350.2 365.6c4.6 0 8.4 3.8 8.4 8.4 0 4.6-3.8 8.4-8.4 8.4-4.6 0-8.4-3.8-8.4-8.4 0-4.6 3.8-8.4 8.4-8.4z" fill="none" stroke="#4d4d4d" stroke-width=".8018" stroke-miterlimit="10"/>
        <path d="M264.2 201.2c3.1 0 5.4 2.3 5.4 5.4 0 3.1-2.3 5.4-5.4 5.4s-5.4-2.3-5.4-5.4c.8-3.1 2.3-5.4 5.4-5.4z" fill="none" stroke="#4d4d4d" stroke-width="1.6159" stroke-miterlimit="10"/>
        <path d="M20 223.5c-6.1 0-11.5-4.6-11.5-10.8s4.6-11.5 10.8-11.5" fill="none" stroke="#4d4d4d" stroke-width="2.281" stroke-miterlimit="10"/>
        <path class="st121" d="M351 576.8c3.1 0 6.1 3.1 6.1 6.1 0 3.1-3.1 6.1-6.1 6.1-3.1 0-6.1-3.1-6.1-6.1-.1-3.8 3-6.1 6.1-6.1zM71.4 417.8c3.8 0 6.9 3.1 6.9 6.9 0 3.8-3.1 6.9-6.9 6.9-3.8 0-6.9-3.1-6.9-6.9-.8-3.8 3.1-6.9 6.9-6.9zM169 414c3.8 0 6.9 3.1 6.9 6.9s-3.1 6.9-6.9 6.9c-3.8 0-6.9-3.1-6.9-6.9-.1-3.1 3-6.9 6.9-6.9zM8.4 267.3c5.4 0 9.2 3.8 9.2 9.2s-3.8 9.2-9.2 9.2-9.2-3.8-9.2-9.2c0-4.6 4.6-9.2 9.2-9.2zM127.5 92.2c3.8 0 6.9 3.1 6.9 6.9 0 3.8-3.1 6.9-6.9 6.9-3.8 0-6.9-3.1-6.9-6.9 0-3.9 3-6.9 6.9-6.9zM205.8 523c1.5 0 3.1 1.5 3.1 3.1 0 1.5-.8 3.8-3.1 3.8-1.5 0-3.1-1.5-3.1-3.1.1-1.5 1.6-3.8 3.1-3.8zM49.9 319.5c4.6 0 8.4 3.8 8.4 8.4 0 4.6-3.8 8.4-8.4 8.4s-8.4-3.8-8.4-8.4c0-4.6 3.8-8.4 8.4-8.4zM404.7 428.5c3.8 0 6.1 3.1 6.1 6.1 0 3.8-3.1 6.1-6.1 6.1-3.8 0-6.1-3.1-6.1-6.1-.8-3 2.3-6.1 6.1-6.1zM215 366.3c3.1 0 6.1 2.3 6.1 6.1 0 3.1-2.3 6.1-6.1 6.1s-6.1-2.3-6.1-6.1c0-3 3.1-6.1 6.1-6.1z"/>
      </g>
    </g>
  </g>
</svg>
