<svg version="1.1" id="Layer_1" xmlns="http://www.w3.org/2000/svg" xmlns:xlink="http://www.w3.org/1999/xlink" x="0px" y="0px"
	 width="100%" viewBox="0 0 512 512" enable-background="new 0 0 512 512" xml:space="preserve">
<path fill="#2376CB" opacity="1.000000" stroke="none" 
	d="
M224.000000,1.000002 
	C245.354233,1.000000 266.708466,1.000000 288.368652,1.408378 
	C289.516266,2.207835 290.323273,2.814112 291.204987,2.955968 
	C298.301422,4.097695 305.515900,4.701478 312.499573,6.313296 
	C338.414459,12.294413 363.074951,21.575161 386.129211,35.001808 
	C415.151306,51.904079 440.064423,73.509315 460.514313,100.122246 
	C473.693939,117.273842 484.596741,135.838272 492.962891,155.834625 
	C501.949219,177.313171 508.539764,199.437988 511.081055,222.672134 
	C511.172485,223.508057 512.336060,224.226700 513.000000,225.000000 

	C511.811462,289.182739 511.152466,289.667145 511.109894,290.200714 
	C509.740387,307.361603 505.179291,323.794495 499.528717,339.892578 
	C493.535522,328.955536 486.261566,319.490753 477.116241,311.320770 
	C468.108917,303.274048 457.674561,297.823547 446.893921,292.501648 
	C447.717987,279.317963 449.526642,266.511902 449.085571,253.783768 
	C446.264099,172.358521 393.767365,102.788094 316.233521,76.931770 
	C309.759644,74.772827 305.453796,77.607742 305.059357,84.533936 
	C304.822968,88.684685 304.995667,92.859207 304.999115,97.023033 
	C305.006287,105.711693 307.455872,109.302330 315.524963,112.479790 
	C385.677063,140.104401 426.834717,213.121948 413.587250,287.386902 
	C408.386536,288.010254 403.600159,288.280731 398.883606,289.005341 
	C369.991028,293.444214 348.057404,308.692200 332.727539,333.170197 
	C318.544922,355.816223 315.476074,380.540375 321.107666,406.651215 
	C317.865509,407.990112 314.902008,409.077362 312.011841,410.333313 
	C308.070160,412.046234 305.342987,414.965851 305.145691,419.357910 
	C304.877411,425.331085 304.781250,431.341217 305.133698,437.304657 
	C305.480408,443.171997 310.180725,445.809906 315.744781,443.745392 
	C322.122070,441.379150 328.501465,439.018585 335.155090,436.883667 
	C341.956635,444.077637 348.067719,451.500519 355.109100,457.899780 
	C365.115173,466.993439 377.599091,471.799530 390.114105,476.228882 
	C379.336945,482.015076 368.995575,488.052124 358.107208,492.847046 
	C336.804779,502.228058 314.554688,508.525421 291.326172,511.081055 
	C290.490540,511.173004 289.772736,512.336060 289.000000,513.000000 
	C267.979095,513.000000 246.958206,513.000000 225.630707,512.591431 
	C219.788544,511.122986 214.253815,510.058716 208.717255,509.003967 
	C188.303818,505.115082 168.580383,499.034821 149.713242,490.288818 
	C125.770561,479.190033 104.087875,464.800995 84.379089,447.134949 
	C70.064186,434.303741 57.915470,419.799774 46.697189,404.354614 
	C35.883175,389.466003 27.284845,373.316437 20.223768,356.406403 
	C11.714999,336.029449 5.826605,314.860291 2.930369,292.906555 
	C2.793736,291.870850 1.666110,290.965851 1.000000,290.000000 
	C1.000000,268.312439 1.000000,246.624878 1.409418,224.599640 
	C2.878278,219.059311 3.987651,213.866241 4.988349,208.652298 
	C8.912272,188.207474 15.037587,168.465195 23.804890,149.567307 
	C33.437691,128.803818 44.874401,109.097610 60.447472,92.224373 
	C71.849785,79.870094 83.404610,67.452599 96.249527,56.683067 
	C114.081932,41.731873 134.222046,30.059826 155.789917,21.028463 
	C176.980972,12.154889 198.848328,5.824625 221.677979,2.921127 
	C222.519821,2.814061 223.229004,1.664003 224.000000,1.000002 
M265.379425,190.880127 
	C276.746918,192.854630 284.365021,199.366318 288.133118,210.181885 
	C290.000946,215.543304 293.445862,217.872910 299.032898,217.642212 
	C303.523712,217.456772 308.033600,217.738663 312.525024,217.560715 
	C319.209839,217.295853 322.146759,213.392975 320.528107,206.846985 
	C316.023193,188.628754 305.249084,175.672363 287.680511,168.783798 
	C283.080963,166.980347 278.134033,166.062805 273.002136,164.643097 
	C273.002136,156.988022 273.039520,149.170822 272.990387,141.354172 
	C272.950592,135.022873 269.591522,131.418472 263.280457,131.113739 
	C259.291107,130.921127 255.285095,131.057480 251.286652,131.071915 
	C243.386292,131.100403 240.025833,134.379700 239.970505,142.218613 
	C239.920013,149.370544 239.959824,156.523087 239.959824,163.985062 
	C238.142410,164.361908 236.551010,164.727142 234.946304,165.019424 
	C199.961151,171.391830 180.852051,200.473129 189.857483,233.618118 
	C192.403305,242.988129 197.588852,250.482513 205.580124,256.011292 
	C218.138184,264.699677 232.687866,267.307220 247.287491,270.104218 
	C258.181244,272.191284 269.051147,274.771698 279.601410,278.160553 
	C287.387909,280.661652 292.078613,286.809448 292.971802,295.287262 
	C294.417847,309.012543 288.039124,319.698303 275.314606,325.126434 
	C267.732330,328.361023 259.816010,328.616882 251.768112,328.136627 
	C233.245590,327.031311 220.973679,318.662506 217.635254,301.230560 
	C216.741577,296.564117 213.555588,294.175873 208.667892,294.223175 
	C203.503601,294.273132 198.335693,294.127411 193.174423,294.261932 
	C186.584366,294.433685 183.738266,297.792938 184.830368,304.297791 
	C187.949112,322.873840 197.350189,337.297516 214.410034,345.645721 
	C222.658707,349.682159 231.752731,351.991150 240.998703,355.272003 
	C240.998703,362.453552 240.944275,370.434967 241.016922,378.415283 
	C241.069565,384.199402 244.405777,387.769745 250.186432,388.072113 
	C254.340515,388.289398 258.514465,388.143982 262.679474,388.131683 
	C270.854675,388.107513 274.002045,384.926849 274.034180,376.609161 
	C274.062958,369.151093 274.040253,361.692810 274.040253,354.294067 
	C277.571686,353.402863 280.658691,352.714417 283.693451,351.843781 
	C309.957245,344.309021 326.658112,323.892517 327.278717,298.613922 
	C327.923126,272.364716 317.229156,256.913513 292.335785,248.744049 
	C286.041260,246.678345 279.480347,245.370087 272.983856,243.985947 
	C260.969330,241.426132 248.670425,239.879913 236.941254,236.393356 
	C225.512085,232.996017 221.507462,225.405548 221.931717,212.886185 
	C222.273132,202.811432 227.903198,194.530792 238.392441,192.295364 
	C246.832916,190.496552 255.798111,191.159866 265.379425,190.880127 
M130.160736,356.317932 
	C103.711830,320.612610 92.484093,280.564362 99.556786,236.734741 
	C108.776733,179.598465 139.949051,137.943161 193.049103,113.915833 
	C209.759888,106.354347 209.064087,106.944817 209.009766,88.774750 
	C208.971512,75.984398 206.218643,73.998367 194.109512,78.145363 
	C108.534096,107.452248 54.364689,191.982895 66.161583,281.647583 
	C76.691750,361.684235 121.898178,415.011292 197.760132,442.376831 
	C204.164948,444.687225 208.605637,441.606476 208.957214,434.743744 
	C209.170105,430.588470 209.010101,426.413513 209.000458,422.247467 
	C208.983658,414.996796 206.118942,410.762970 199.370178,408.184265 
	C171.601639,397.573944 148.767578,380.360535 130.160736,356.317932 
z"/>
<path fill="#FD0203" opacity="1.000000" stroke="none" 
	d="
M499.528717,339.892578 
	C507.265839,355.153351 510.860199,371.197571 509.877075,387.926270 
	C508.726501,407.503632 502.352661,425.438477 490.325012,441.156647 
	C474.893280,461.323395 454.228912,473.098022 429.625580,477.820526 
	C416.800903,480.282196 403.793365,479.541992 390.698364,475.928955 
	C377.599091,471.799530 365.115173,466.993439 355.109100,457.899780 
	C348.067719,451.500519 341.956635,444.077637 334.992859,436.605072 
	C330.176697,426.223816 325.797852,416.349274 321.418976,406.474762 
	C315.476074,380.540375 318.544922,355.816223 332.727539,333.170197 
	C348.057404,308.692200 369.991028,293.444214 398.883606,289.005341 
	C403.600159,288.280731 408.386536,288.010254 414.030609,287.533142 
	C425.559814,289.329376 436.199036,291.122314 446.838257,292.915283 
	C457.674561,297.823547 468.108917,303.274048 477.116241,311.320770 
	C486.261566,319.490753 493.535522,328.955536 499.528717,339.892578 
M463.907349,386.423340 
	C467.671478,381.979340 471.412323,377.515350 475.209290,373.099579 
	C477.216553,370.765167 477.826385,368.457733 475.297180,366.142578 
	C468.667908,360.074341 462.083893,353.952271 455.299042,348.062256 
	C453.910400,346.856781 451.781952,346.245758 449.896576,345.909088 
	C422.954742,341.097504 396.004150,336.333191 369.030548,331.703644 
	C365.910980,331.168182 362.641296,331.507233 359.441223,331.440857 
	C360.001251,334.586029 359.994232,337.971008 361.207550,340.839905 
	C376.124451,376.111572 391.214966,411.309814 406.290680,446.514191 
	C406.780090,447.657104 407.589142,448.663177 408.773560,450.583099 
	C427.307495,429.005096 445.369598,407.976410 463.907349,386.423340 
z"/>
<path fill="#FDFEFF" opacity="1.000000" stroke="none" 
	d="
M264.954956,190.805435 
	C255.798111,191.159866 246.832916,190.496552 238.392441,192.295364 
	C227.903198,194.530792 222.273132,202.811432 221.931717,212.886185 
	C221.507462,225.405548 225.512085,232.996017 236.941254,236.393356 
	C248.670425,239.879913 260.969330,241.426132 272.983856,243.985947 
	C279.480347,245.370087 286.041260,246.678345 292.335785,248.744049 
	C317.229156,256.913513 327.923126,272.364716 327.278717,298.613922 
	C326.658112,323.892517 309.957245,344.309021 283.693451,351.843781 
	C280.658691,352.714417 277.571686,353.402863 274.040253,354.294067 
	C274.040253,361.692810 274.062958,369.151093 274.034180,376.609161 
	C274.002045,384.926849 270.854675,388.107513 262.679474,388.131683 
	C258.514465,388.143982 254.340515,388.289398 250.186432,388.072113 
	C244.405777,387.769745 241.069565,384.199402 241.016922,378.415283 
	C240.944275,370.434967 240.998703,362.453552 240.998703,355.272003 
	C231.752731,351.991150 222.658707,349.682159 214.410034,345.645721 
	C197.350189,337.297516 187.949112,322.873840 184.830368,304.297791 
	C183.738266,297.792938 186.584366,294.433685 193.174423,294.261932 
	C198.335693,294.127411 203.503601,294.273132 208.667892,294.223175 
	C213.555588,294.175873 216.741577,296.564117 217.635254,301.230560 
	C220.973679,318.662506 233.245590,327.031311 251.768112,328.136627 
	C259.816010,328.616882 267.732330,328.361023 275.314606,325.126434 
	C288.039124,319.698303 294.417847,309.012543 292.971802,295.287262 
	C292.078613,286.809448 287.387909,280.661652 279.601410,278.160553 
	C269.051147,274.771698 258.181244,272.191284 247.287491,270.104218 
	C232.687866,267.307220 218.138184,264.699677 205.580124,256.011292 
	C197.588852,250.482513 192.403305,242.988129 189.857483,233.618118 
	C180.852051,200.473129 199.961151,171.391830 234.946304,165.019424 
	C236.551010,164.727142 238.142410,164.361908 239.959824,163.985062 
	C239.959824,156.523087 239.920013,149.370544 239.970505,142.218613 
	C240.025833,134.379700 243.386292,131.100403 251.286652,131.071915 
	C255.285095,131.057480 259.291107,130.921127 263.280457,131.113739 
	C269.591522,131.418472 272.950592,135.022873 272.990387,141.354172 
	C273.039520,149.170822 273.002136,156.988022 273.002136,164.643097 
	C278.134033,166.062805 283.080963,166.980347 287.680511,168.783798 
	C305.249084,175.672363 316.023193,188.628754 320.528107,206.846985 
	C322.146759,213.392975 319.209839,217.295853 312.525024,217.560715 
	C308.033600,217.738663 303.523712,217.456772 299.032898,217.642212 
	C293.445862,217.872910 290.000946,215.543304 288.133118,210.181885 
	C284.365021,199.366318 276.746918,192.854630 264.954956,190.805435 
z"/>
<path fill="#FDFEFF" opacity="1.000000" stroke="none" 
	d="
M130.383362,356.598633 
	C148.767578,380.360535 171.601639,397.573944 199.370178,408.184265 
	C206.118942,410.762970 208.983658,414.996796 209.000458,422.247467 
	C209.010101,426.413513 209.170105,430.588470 208.957214,434.743744 
	C208.605637,441.606476 204.164948,444.687225 197.760132,442.376831 
	C121.898178,415.011292 76.691750,361.684235 66.161583,281.647583 
	C54.364689,191.982895 108.534096,107.452248 194.109512,78.145363 
	C206.218643,73.998367 208.971512,75.984398 209.009766,88.774750 
	C209.064087,106.944817 209.759888,106.354347 193.049103,113.915833 
	C139.949051,137.943161 108.776733,179.598465 99.556786,236.734741 
	C92.484093,280.564362 103.711830,320.612610 130.383362,356.598633 
z"/>
<path fill="#FDFEFE" opacity="1.000000" stroke="none" 
	d="
M446.893921,292.501648 
	C436.199036,291.122314 425.559814,289.329376 414.477234,287.390198 
	C426.834717,213.121948 385.677063,140.104401 315.524963,112.479790 
	C307.455872,109.302330 305.006287,105.711693 304.999115,97.023033 
	C304.995667,92.859207 304.822968,88.684685 305.059357,84.533936 
	C305.453796,77.607742 309.759644,74.772827 316.233521,76.931770 
	C393.767365,102.788094 446.264099,172.358521 449.085571,253.783768 
	C449.526642,266.511902 447.717987,279.317963 446.893921,292.501648 
z"/>
<path fill="#FDFDFE" opacity="1.000000" stroke="none" 
	d="
M321.107666,406.651215 
	C325.797852,416.349274 330.176697,426.223816 334.717773,436.376953 
	C328.501465,439.018585 322.122070,441.379150 315.744781,443.745392 
	C310.180725,445.809906 305.480408,443.171997 305.133698,437.304657 
	C304.781250,431.341217 304.877411,425.331085 305.145691,419.357910 
	C305.342987,414.965851 308.070160,412.046234 312.011841,410.333313 
	C314.902008,409.077362 317.865509,407.990112 321.107666,406.651215 
z"/>
<path fill="#FEF7F6" opacity="1.000000" stroke="none" 
	d="
M463.669525,386.685547 
	C445.369598,407.976410 427.307495,429.005096 408.773560,450.583099 
	C407.589142,448.663177 406.780090,447.657104 406.290680,446.514191 
	C391.214966,411.309814 376.124451,376.111572 361.207550,340.839905 
	C359.994232,337.971008 360.001251,334.586029 359.441223,331.440857 
	C362.641296,331.507233 365.910980,331.168182 369.030548,331.703644 
	C396.004150,336.333191 422.954742,341.097504 449.896576,345.909088 
	C451.781952,346.245758 453.910400,346.856781 455.299042,348.062256 
	C462.083893,353.952271 468.667908,360.074341 475.297180,366.142578 
	C477.826385,368.457733 477.216553,370.765167 475.209290,373.099579 
	C471.412323,377.515350 467.671478,381.979340 463.669525,386.685547 
M391.999969,392.451080 
	C397.177368,404.491486 402.354767,416.531860 407.532135,428.572266 
	C410.474304,412.506226 412.381775,396.730560 414.021118,380.927094 
	C414.164093,379.548706 412.877441,377.596252 411.684967,376.577515 
	C405.991211,371.713654 400.153992,367.012360 394.265991,362.382721 
	C387.649780,357.180542 380.924530,352.116974 374.246735,346.993103 
	C373.822052,347.300781 373.397369,347.608490 372.972687,347.916168 
	C379.237122,362.518921 385.501587,377.121643 391.999969,392.451080 
M457.993958,375.748627 
	C446.028076,377.567047 434.062195,379.385437 421.837982,381.243103 
	C419.868225,397.312378 417.933411,413.096313 415.998627,428.880280 
	C416.311066,428.957489 416.623535,429.034729 416.935974,429.111969 
	C432.358612,411.310760 447.781250,393.509521 463.913177,374.889648 
	C461.374451,375.193115 460.079224,375.347931 457.993958,375.748627 
M392.457275,343.015411 
	C387.870026,342.275269 383.282776,341.535126 378.695526,340.794983 
	C390.649506,351.150879 402.718140,360.729797 414.936493,370.113800 
	C416.157745,371.051758 418.954468,371.682037 419.892700,370.969910 
	C427.667999,365.068085 435.177765,358.816467 443.464569,352.106445 
	C426.155579,348.992676 409.738831,346.039398 392.457275,343.015411 
M449.520111,370.036743 
	C454.484406,369.160339 459.448700,368.283905 465.378693,367.237000 
	C460.235901,362.685822 455.914398,358.861420 451.435394,354.897614 
	C443.930023,360.863190 436.605042,366.685364 429.280060,372.507538 
	C429.402985,372.820953 429.525879,373.134369 429.648804,373.447784 
	C435.986267,372.342377 442.323700,371.236969 449.520111,370.036743 
z"/>
<path fill="#FC0607" opacity="1.000000" stroke="none" 
	d="
M391.882996,392.087738 
	C385.501587,377.121643 379.237122,362.518921 372.972687,347.916168 
	C373.397369,347.608490 373.822052,347.300781 374.246735,346.993103 
	C380.924530,352.116974 387.649780,357.180542 394.265991,362.382721 
	C400.153992,367.012360 405.991211,371.713654 411.684967,376.577515 
	C412.877441,377.596252 414.164093,379.548706 414.021118,380.927094 
	C412.381775,396.730560 410.474304,412.506226 407.532135,428.572266 
	C402.354767,416.531860 397.177368,404.491486 391.882996,392.087738 
z"/>
<path fill="#FB0608" opacity="1.000000" stroke="none" 
	d="
M458.388977,375.625671 
	C460.079224,375.347931 461.374451,375.193115 463.913177,374.889648 
	C447.781250,393.509521 432.358612,411.310760 416.935974,429.111969 
	C416.623535,429.034729 416.311066,428.957489 415.998627,428.880280 
	C417.933411,413.096313 419.868225,397.312378 421.837982,381.243103 
	C434.062195,379.385437 446.028076,377.567047 458.388977,375.625671 
z"/>
<path fill="#FA0709" opacity="1.000000" stroke="none" 
	d="
M392.889679,343.050751 
	C409.738831,346.039398 426.155579,348.992676 443.464569,352.106445 
	C435.177765,358.816467 427.667999,365.068085 419.892700,370.969910 
	C418.954468,371.682037 416.157745,371.051758 414.936493,370.113800 
	C402.718140,360.729797 390.649506,351.150879 378.695526,340.794983 
	C383.282776,341.535126 387.870026,342.275269 392.889679,343.050751 
z"/>
<path fill="#F80A0D" opacity="1.000000" stroke="none" 
	d="
M449.090637,370.084167 
	C442.323700,371.236969 435.986267,372.342377 429.648804,373.447784 
	C429.525879,373.134369 429.402985,372.820953 429.280060,372.507538 
	C436.605042,366.685364 443.930023,360.863190 451.435394,354.897614 
	C455.914398,358.861420 460.235901,362.685822 465.378693,367.237000 
	C459.448700,368.283905 454.484406,369.160339 449.090637,370.084167 
z"/>
</svg>