<svg version="1.1" id="Layer_1" xmlns="http://www.w3.org/2000/svg" xmlns:xlink="http://www.w3.org/1999/xlink" x="0px" y="0px"
	 width="100%" viewBox="0 0 701 621" enable-background="new 0 0 701 621" xml:space="preserve">
<path fill="#3E9C7F" opacity="1.000000" stroke="none" 
	d="
M291.000000,1.000000 
	C304.687561,1.000000 318.375122,1.000000 332.781006,1.339725 
	C358.677429,3.174747 383.305511,7.688175 407.285767,15.497912 
	C442.968018,27.118671 475.043823,45.312862 504.040253,69.050102 
	C520.409729,82.450623 535.490479,97.145195 549.164307,113.442200 
	C547.594238,113.988205 546.271973,114.448044 544.577087,115.075043 
	C536.543030,116.312218 528.839417,117.144386 521.227966,118.495773 
	C495.989319,122.976799 473.963623,134.385300 453.675995,150.015350 
	C449.286865,148.638306 445.240753,146.330963 441.189178,146.321228 
	C354.867218,146.114151 268.544617,146.160248 182.222153,146.184113 
	C178.931168,146.185013 175.640228,146.455978 172.443741,146.596939 
	C172.443741,169.358032 172.443741,191.579178 172.443741,214.158356 
	C206.462219,214.158356 240.069168,214.158356 273.713989,214.158356 
	C273.713989,228.554031 273.713989,242.581116 273.713989,256.056183 
	C241.439133,260.422729 209.637619,264.448486 177.933395,269.132843 
	C162.378098,271.431152 147.517792,276.363312 134.726974,285.996857 
	C125.048935,293.285980 125.351189,301.610229 135.781464,307.686157 
	C142.642258,311.682800 149.857986,315.326416 157.322113,317.984100 
	C182.043640,326.786438 207.834152,330.544739 233.841293,332.961792 
	C244.935913,333.992889 256.078705,334.546875 267.151520,335.757324 
	C275.021820,336.617706 274.995636,336.946075 274.996277,344.734558 
	C274.999725,386.395996 274.997864,428.057404 274.997894,469.718842 
	C274.997894,471.661682 274.997925,473.604523 274.997925,475.598633 
	C300.294281,475.598633 325.003510,475.598633 349.969055,475.598633 
	C349.969055,473.245148 349.970642,471.260712 349.968781,469.276306 
	C349.930725,428.614868 349.873566,387.953430 349.868134,347.291992 
	C349.866882,338.004333 351.546539,335.952789 359.904236,335.130005 
	C377.784393,333.369690 395.676025,331.726135 413.722412,330.315063 
	C418.373718,337.942780 422.587219,345.478424 427.408112,352.603088 
	C443.623840,376.567688 465.661621,393.677826 491.833344,405.414337 
	C521.429382,418.686371 552.300171,419.977295 583.792664,413.855560 
	C590.110046,412.627563 596.530396,411.929230 603.000854,411.367004 
	C597.446472,433.196533 587.996826,452.989960 576.491882,471.821777 
	C548.785339,517.173340 512.319153,553.695862 466.386383,580.658447 
	C432.875336,600.329529 396.428528,611.410400 358.406799,617.968628 
	C350.281158,619.370117 342.136108,620.659119 334.000000,622.000000 
	C315.645782,622.000000 297.291534,622.000000 278.244690,621.658386 
	C254.631332,618.944458 232.190735,614.274536 210.492172,606.498840 
	C168.895111,591.592468 132.060501,568.674133 99.216690,539.271118 
	C48.131317,493.537445 16.837196,436.766846 4.847529,369.296814 
	C3.642802,362.517365 2.286149,355.764954 1.000003,349.000000 
	C1.000000,322.979095 1.000000,296.958221 1.338359,270.259857 
	C4.676604,254.929626 6.787599,240.025833 10.841731,225.670792 
	C23.398191,181.210434 46.067093,142.144852 76.203529,107.302460 
	C127.533913,47.956604 191.775223,12.773832 270.012177,3.778272 
	C277.021942,2.972302 284.004700,1.931658 291.000000,1.000000 
z"/>
<path fill="#4E69E3" opacity="1.000000" stroke="none" 
	d="
M454.016479,150.155090 
	C473.963623,134.385300 495.989319,122.976799 521.227966,118.495773 
	C528.839417,117.144386 536.543030,116.312218 545.051025,115.074745 
	C556.027527,115.296127 566.539734,114.106247 576.197754,116.444328 
	C590.636230,119.939682 605.092102,124.636253 618.449219,131.083038 
	C656.422791,149.410919 681.654480,179.426178 695.109802,219.357773 
	C697.426147,226.231918 699.704285,233.118912 702.000000,240.000000 
	C702.000000,256.687561 702.000000,273.375122 701.668945,290.716736 
	C698.190796,301.870483 695.845398,312.695129 691.746582,322.809174 
	C679.267212,353.602142 659.293823,378.437317 630.533325,395.604156 
	C621.572693,400.952667 612.118042,405.473572 602.887451,410.478394 
	C602.885315,410.583466 602.954651,411.022675 602.930054,411.029297 
	C602.905457,411.035889 602.903259,410.986694 602.903259,410.986694 
	C596.530396,411.929230 590.110046,412.627563 583.792664,413.855560 
	C552.300171,419.977295 521.429382,418.686371 491.833344,405.414337 
	C465.661621,393.677826 443.623840,376.567688 427.408112,352.603088 
	C422.587219,345.478424 418.373718,337.942780 413.724396,329.914703 
	C411.961456,325.527008 410.356049,321.820068 408.656250,317.728577 
	C405.813812,300.554138 403.065765,283.764160 400.271912,266.531342 
	C400.185608,264.307343 400.145111,262.526184 400.228394,260.379974 
	C401.676025,252.234009 402.877533,244.429703 404.360352,236.679230 
	C405.676819,229.798126 407.305573,222.976746 408.863068,215.744019 
	C412.181580,208.305283 415.100067,201.073532 418.751404,194.232925 
	C427.748932,177.376358 440.268799,163.255096 454.016479,150.155090 
M617.244812,257.272125 
	C595.421936,228.036163 573.599121,198.800201 551.305908,168.934082 
	C526.401001,202.293472 502.311798,234.560120 478.019440,267.098938 
	C500.665680,279.474854 522.614075,291.298523 544.360779,303.482147 
	C549.364380,306.285431 553.450989,306.036041 558.272522,303.357117 
	C576.983032,292.961304 595.851318,282.849945 614.620422,272.558929 
	C624.582581,267.096680 624.545166,267.028381 617.244812,257.272125 
M559.097961,354.630768 
	C576.523499,331.070892 593.948975,307.510986 611.374512,283.951111 
	C609.638794,283.546448 608.583923,283.866150 607.635864,284.382141 
	C591.606323,293.106873 575.520569,301.732391 559.608887,310.667664 
	C554.143982,313.736511 549.310547,314.002289 543.734619,310.858276 
	C528.397095,302.210205 512.862915,293.910095 497.372345,285.535614 
	C495.789642,284.679962 493.975708,284.252075 492.269073,283.625671 
	C491.957581,284.063904 491.646057,284.502167 491.334564,284.940399 
	C511.297028,311.529053 531.259521,338.117676 551.439270,364.995728 
	C554.160950,361.357941 556.448425,358.300568 559.097961,354.630768 
z"/>
<path fill="#FFFFFF" opacity="1.000000" stroke="none" 
	d="
M602.889587,410.373352 
	C612.118042,405.473572 621.572693,400.952667 630.533325,395.604156 
	C659.293823,378.437317 679.267212,353.602142 691.746582,322.809174 
	C695.845398,312.695129 698.190796,301.870483 701.668945,291.185394 
	C702.000000,401.264252 702.000000,511.528534 702.000000,622.000000 
	C579.645874,622.000000 457.291595,622.000000 334.468658,622.000000 
	C342.136108,620.659119 350.281158,619.370117 358.406799,617.968628 
	C396.428528,611.410400 432.875336,600.329529 466.386383,580.658447 
	C512.319153,553.695862 548.785339,517.173340 576.491882,471.821777 
	C587.996826,452.989960 597.446472,433.196533 603.000854,411.367004 
	C602.903259,410.986694 602.905457,411.035889 603.116699,410.913452 
	C603.328003,410.791016 603.327881,410.352966 603.327881,410.352966 
	C603.327881,410.352966 602.889587,410.373383 602.889587,410.373352 
z"/>
<path fill="#FFFFFF" opacity="1.000000" stroke="none" 
	d="
M702.000000,239.531342 
	C699.704285,233.118912 697.426147,226.231918 695.109802,219.357773 
	C681.654480,179.426178 656.422791,149.410919 618.449219,131.083038 
	C605.092102,124.636253 590.636230,119.939682 576.197754,116.444328 
	C566.539734,114.106247 556.027527,115.296127 545.423645,114.907578 
	C546.271973,114.448044 547.594238,113.988205 549.164307,113.442200 
	C535.490479,97.145195 520.409729,82.450623 504.040253,69.050102 
	C475.043823,45.312862 442.968018,27.118671 407.285767,15.497912 
	C383.305511,7.688175 358.677429,3.174747 333.249634,1.339725 
	C455.911438,1.000000 578.822876,1.000000 702.000000,1.000000 
	C702.000000,80.354027 702.000000,159.708359 702.000000,239.531342 
z"/>
<path fill="#FEFFFF" opacity="1.000000" stroke="none" 
	d="
M1.000003,349.468658 
	C2.286149,355.764954 3.642802,362.517365 4.847529,369.296814 
	C16.837196,436.766846 48.131317,493.537445 99.216690,539.271118 
	C132.060501,568.674133 168.895111,591.592468 210.492172,606.498840 
	C232.190735,614.274536 254.631332,618.944458 277.776001,621.658386 
	C185.740143,622.000000 93.480278,622.000000 1.000000,622.000000 
	C1.000000,531.312561 1.000000,440.624939 1.000003,349.468658 
z"/>
<path fill="#FEFFFF" opacity="1.000000" stroke="none" 
	d="
M290.531342,1.000000 
	C284.004700,1.931658 277.021942,2.972302 270.012177,3.778272 
	C191.775223,12.773832 127.533913,47.956604 76.203529,107.302460 
	C46.067093,142.144852 23.398191,181.210434 10.841731,225.670792 
	C6.787599,240.025833 4.676604,254.929626 1.338359,269.791199 
	C1.000000,180.403534 1.000000,90.807068 1.000000,1.000000 
	C97.354126,1.000000 193.708405,1.000000 290.531342,1.000000 
z"/>
<path fill="#FCFDFD" opacity="1.000000" stroke="none" 
	d="
M408.750641,318.113098 
	C410.356049,321.820068 411.961456,325.527008 413.564941,329.634338 
	C395.676025,331.726135 377.784393,333.369690 359.904236,335.130005 
	C351.546539,335.952789 349.866882,338.004333 349.868134,347.291992 
	C349.873566,387.953430 349.930725,428.614868 349.968781,469.276306 
	C349.970642,471.260712 349.969055,473.245148 349.969055,475.598633 
	C325.003510,475.598633 300.294281,475.598633 274.997925,475.598633 
	C274.997925,473.604523 274.997894,471.661682 274.997894,469.718842 
	C274.997864,428.057404 274.999725,386.395996 274.996277,344.734558 
	C274.995636,336.946075 275.021820,336.617706 267.151520,335.757324 
	C256.078705,334.546875 244.935913,333.992889 233.841293,332.961792 
	C207.834152,330.544739 182.043640,326.786438 157.322113,317.984100 
	C149.857986,315.326416 142.642258,311.682800 135.781464,307.686157 
	C125.351189,301.610229 125.048935,293.285980 134.726974,285.996857 
	C147.517792,276.363312 162.378098,271.431152 177.933395,269.132843 
	C209.637619,264.448486 241.439133,260.422729 273.713989,256.056183 
	C273.713989,242.581116 273.713989,228.554031 273.713989,214.158356 
	C240.069168,214.158356 206.462219,214.158356 172.443741,214.158356 
	C172.443741,191.579178 172.443741,169.358032 172.443741,146.596939 
	C175.640228,146.455978 178.931168,146.185013 182.222153,146.184113 
	C268.544617,146.160248 354.867218,146.114151 441.189178,146.321228 
	C445.240753,146.330963 449.286865,148.638306 453.675995,150.015350 
	C440.268799,163.255096 427.748932,177.376358 418.751404,194.232925 
	C415.100067,201.073532 412.181580,208.305283 408.546936,215.479797 
	C406.677826,215.012711 405.197235,213.932709 403.704010,213.914963 
	C391.902954,213.774597 380.099487,213.836716 368.296783,213.836624 
	C362.361359,213.836563 356.425964,213.836624 350.306396,213.836624 
	C350.306396,228.409134 350.306396,242.437622 350.306396,256.998352 
	C367.079620,258.260315 383.592133,259.502686 400.104645,260.745056 
	C400.145111,262.526184 400.185608,264.307343 399.859772,266.520386 
	C394.124390,266.215393 388.774323,265.265472 383.382385,264.785919 
	C372.170013,263.788757 360.935455,263.040833 349.062988,262.141449 
	C349.062988,278.685425 349.062988,294.736542 349.062988,310.867310 
	C324.204651,310.867310 299.965698,310.867310 275.222290,310.867310 
	C275.222290,294.824554 275.222290,279.066010 275.222290,262.351929 
	C268.415802,262.906586 262.155670,263.216766 255.947067,263.958710 
	C233.840607,266.600372 211.582535,268.465759 189.720383,272.472260 
	C176.851654,274.830627 164.434204,280.206512 152.168396,285.111908 
	C143.443542,288.601135 143.157501,295.526398 150.814926,300.782593 
	C152.848434,302.178436 155.118362,303.269745 157.372101,304.298523 
	C176.063644,312.830872 196.056641,316.383911 216.185608,319.035370 
	C255.534317,324.218506 295.124512,325.947845 334.738220,324.301788 
	C359.452087,323.274841 384.082672,320.244415 408.750641,318.113098 
z"/>
<path fill="#FDFDFF" opacity="1.000000" stroke="none" 
	d="
M617.459473,257.560059 
	C624.545166,267.028381 624.582581,267.096680 614.620422,272.558929 
	C595.851318,282.849945 576.983032,292.961304 558.272522,303.357117 
	C553.450989,306.036041 549.364380,306.285431 544.360779,303.482147 
	C522.614075,291.298523 500.665680,279.474854 478.019440,267.098938 
	C502.311798,234.560120 526.401001,202.293472 551.305908,168.934082 
	C573.599121,198.800201 595.421936,228.036163 617.459473,257.560059 
z"/>
<path fill="#439F84" opacity="1.000000" stroke="none" 
	d="
M408.656250,317.728577 
	C384.082672,320.244415 359.452087,323.274841 334.738220,324.301788 
	C295.124512,325.947845 255.534317,324.218506 216.185608,319.035370 
	C196.056641,316.383911 176.063644,312.830872 157.372101,304.298523 
	C155.118362,303.269745 152.848434,302.178436 150.814926,300.782593 
	C143.157501,295.526398 143.443542,288.601135 152.168396,285.111908 
	C164.434204,280.206512 176.851654,274.830627 189.720383,272.472260 
	C211.582535,268.465759 233.840607,266.600372 255.947067,263.958710 
	C262.155670,263.216766 268.415802,262.906586 275.222290,262.351929 
	C275.222290,279.066010 275.222290,294.824554 275.222290,310.867310 
	C299.965698,310.867310 324.204651,310.867310 349.062988,310.867310 
	C349.062988,294.736542 349.062988,278.685425 349.062988,262.141449 
	C360.935455,263.040833 372.170013,263.788757 383.382385,264.785919 
	C388.774323,265.265472 394.124390,266.215393 399.905579,266.963257 
	C403.065765,283.764160 405.813812,300.554138 408.656250,317.728577 
z"/>
<path fill="#FAFBFF" opacity="1.000000" stroke="none" 
	d="
M558.916870,354.936981 
	C556.448425,358.300568 554.160950,361.357941 551.439270,364.995728 
	C531.259521,338.117676 511.297028,311.529053 491.334564,284.940399 
	C491.646057,284.502167 491.957581,284.063904 492.269073,283.625671 
	C493.975708,284.252075 495.789642,284.679962 497.372345,285.535614 
	C512.862915,293.910095 528.397095,302.210205 543.734619,310.858276 
	C549.310547,314.002289 554.143982,313.736511 559.608887,310.667664 
	C575.520569,301.732391 591.606323,293.106873 607.635864,284.382141 
	C608.583923,283.866150 609.638794,283.546448 611.374512,283.951111 
	C593.948975,307.510986 576.523499,331.070892 558.916870,354.936981 
z"/>
<path fill="#419D81" opacity="1.000000" stroke="none" 
	d="
M400.228394,260.379974 
	C383.592133,259.502686 367.079620,258.260315 350.306396,256.998352 
	C350.306396,242.437622 350.306396,228.409134 350.306396,213.836624 
	C356.425964,213.836624 362.361359,213.836563 368.296783,213.836624 
	C380.099487,213.836716 391.902954,213.774597 403.704010,213.914963 
	C405.197235,213.932709 406.677826,215.012711 408.480408,215.864777 
	C407.305573,222.976746 405.676819,229.798126 404.360352,236.679230 
	C402.877533,244.429703 401.676025,252.234009 400.228394,260.379974 
z"/>
<path fill="#3E9C7F" opacity="1.000000" stroke="none" 
	d="
M602.887451,410.478424 
	C602.889587,410.373383 603.327881,410.352966 603.327881,410.352966 
	C603.327881,410.352966 603.328003,410.791016 603.141357,410.906860 
	C602.954651,411.022675 602.885315,410.583466 602.887451,410.478424 
z"/>
</svg>