<svg class="svg-icon" style="width: 5em; height: 5em;vertical-align: middle;fill: forestgreen;overflow: hidden;" viewBox="0 0 1024 1024" version="1.1" xmlns="http://www.w3.org/2000/svg"><path d="M487.68 682.624c0-172.992 0-346.048 0-518.976 40.128 0 80.256 0 120.384 0C614.656 153.92 610.176 133.248 616.64 123.52c134.784 14.336 260.992 37.248 395.712 51.584-32.192 237.312-64.768 474.304-97.408 711.04-132.352-11.904-285.696-2.88-427.2-5.76-11.648-30.976 19.456-47.616 40.128-51.584 82.496-15.424 217.6 11.648 306.752 0 0-204.48 0-409.024 0-613.568-97.408 0-194.944 0-292.416 0-6.72 145.344-0.96 302.976-2.88 453.12 36.16 7.808 80.832-32.832 129.024-22.976 35.904 7.296 59.008 69.248 34.368 106.048-21.056 31.616-141.888 40.448-194.944 60.224-29.44 11.008-60.864 21.568-91.776 34.368-27.52 11.456-62.464 33.472-88.832 37.312-44.672 6.4-65.92-17.984-91.776-20.032-43.264-3.392-119.488 35.136-160.64 37.248-24.064-63.68-41.6-134.208-62.976-200.704 67.2-54.72 144.64-92.288 217.92-137.664 71.424-44.16 139.84-101.568 229.312-123.264-10.88 63.168 14.656 150.144 0 206.464-6.656 25.664-34.688 33.792-45.888 51.712C431.872 697.472 463.296 685.952 487.68 682.624zM886.208 212.352c1.92 158.656-3.84 324.928 2.88 478.784 21.184-156.544 44.928-310.592 63.104-470.208C930.112 218.176 910.08 213.376 886.208 212.352z"  /><path d="M671.104 387.264c74.496-10.176 129.408 36.16 137.6 100.416 22.656 177.728-250.24 187.648-243.648 14.272C567.488 437.056 607.872 395.904 671.104 387.264zM596.608 496.192c0 7.68 0 15.296 0 22.912C600.32 523.136 609.088 522.048 616.64 522.048c-0.64 12.16 8.448 14.592 11.52 22.912 73.344 56.64 72.832-108.672 108.992-34.432-3.2 9.28-11.008 13.888-20.096 17.216 0 8.64 0 17.216 0 25.792 35.968 5.312 28.864-32.32 60.16-31.552 0-8.576 0-17.216 0-25.792-3.328-3.264-10.112-3.264-17.152-2.816-12.672-27.072-28.672-37.44-54.592-31.552-33.792 7.744-26.624 60.416-45.824 63.104-26.496 3.712-25.024-35.072 0-37.248-0.576-9.024 1.92-21.056-2.88-25.856C624.384 460.928 626.24 494.336 596.608 496.192z"  /></svg>