<?xml version="1.0" encoding="utf-8"?>
<svg viewBox="0 0 135 40" xmlns="http://www.w3.org/2000/svg">
  <defs>
    <linearGradient id="a" x1="31.8" y1="183.29" x2="15.02" y2="166.51" gradientTransform="matrix(1, 0, 0, -1, -10, 192)" gradientUnits="userSpaceOnUse">
      <stop offset="0" stop-color="#00a0ff"/>
      <stop offset="0.01" stop-color="#00a1ff"/>
      <stop offset="0.26" stop-color="#00beff"/>
      <stop offset="0.51" stop-color="#00d2ff"/>
      <stop offset="0.76" stop-color="#00dfff"/>
      <stop offset="1" stop-color="#00e3ff"/>
    </linearGradient>
    <linearGradient id="b" x1="43.83" y1="172" x2="19.64" y2="172" gradientTransform="matrix(1, 0, 0, -1, -10, 192)" gradientUnits="userSpaceOnUse">
      <stop offset="0" stop-color="#ffe000"/>
      <stop offset="0.41" stop-color="#ffbd00"/>
      <stop offset="0.78" stop-color="orange"/>
      <stop offset="1" stop-color="#ff9c00"/>
    </linearGradient>
    <linearGradient id="c" x1="34.83" y1="169.7" x2="12.07" y2="146.95" gradientTransform="matrix(1, 0, 0, -1, -10, 192)" gradientUnits="userSpaceOnUse">
      <stop offset="0" stop-color="#ff3a44"/>
      <stop offset="1" stop-color="#c31162"/>
    </linearGradient>
    <linearGradient id="d" x1="17.3" y1="191.82" x2="27.46" y2="181.66" gradientTransform="matrix(1, 0, 0, -1, -10, 192)" gradientUnits="userSpaceOnUse">
      <stop offset="0" stop-color="#32a071"/>
      <stop offset="0.07" stop-color="#2da771"/>
      <stop offset="0.48" stop-color="#15cf74"/>
      <stop offset="0.8" stop-color="#06e775"/>
      <stop offset="1" stop-color="#00f076"/>
    </linearGradient>
  </defs>
  <title>fil_get</title>
  <path fill="none" d="M0 0h155v60H0z"/>
  <rect width="135" height="40" rx="5" ry="5"/>
  <path d="M 130 0.8 C 132.32 0.8 134.2 2.68 134.2 5 L 134.2 35 C 134.2 37.32 132.32 39.2 130 39.2 L 5 39.2 C 2.68 39.2 0.8 37.32 0.8 35 L 0.8 5 C 0.8 2.68 2.68 0.8 5 0.8 L 130 0.8 M 130 0 L 5 0 C 2.239 0 0 2.239 0 5 L 0 35 C 0 37.761 2.239 40 5 40 L 130 40 C 132.761 40 135 37.761 135 35 L 135 5 C 135 2.239 132.761 0 130 0 Z" fill="#a6a6a6"/>
  <path d="M 47.42 10.24 C 47.454 10.981 47.183 11.704 46.67 12.24 C 46.096 12.836 45.296 13.159 44.47 13.13 C 42.045 13.111 40.55 10.474 41.779 8.384 C 41.913 8.157 42.074 7.947 42.26 7.76 C 42.841 7.167 43.641 6.842 44.47 6.86 C 44.893 6.859 45.311 6.944 45.7 7.11 C 46.062 7.256 46.384 7.486 46.64 7.78 L 46.11 8.31 C 45.705 7.829 45.098 7.566 44.47 7.6 C 43.153 7.594 42.095 8.684 42.14 10 C 42.114 11.817 44.065 12.98 45.651 12.093 C 45.829 11.994 45.993 11.872 46.14 11.73 C 46.448 11.397 46.625 10.964 46.64 10.51 L 44.47 10.51 L 44.47 9.79 L 47.38 9.79 C 47.407 9.939 47.42 10.089 47.42 10.24 Z M 52 7.74 L 49.3 7.74 L 49.3 9.64 L 51.76 9.64 L 51.76 10.36 L 49.3 10.36 L 49.3 12.26 L 52 12.26 L 52 13 L 48.5 13 L 48.5 7 L 52 7 Z M 55.28 13 L 54.51 13 L 54.51 7.74 L 52.83 7.74 L 52.83 7 L 57 7 L 57 7.74 L 55.28 7.74 Z M 59.94 13 L 59.94 7 L 60.71 7 L 60.71 13 Z M 64.13 13 L 63.36 13 L 63.36 7.74 L 61.68 7.74 L 61.68 7 L 65.8 7 L 65.8 7.74 L 64.13 7.74 Z M 73.61 12.22 C 72.393 13.43 70.427 13.43 69.21 12.22 C 68.03 10.971 68.03 9.019 69.21 7.77 C 70.422 6.549 72.398 6.549 73.61 7.77 C 74.795 9.017 74.795 10.973 73.61 12.22 Z M 69.78 11.72 C 70.681 12.618 72.139 12.618 73.04 11.72 C 73.925 10.744 73.925 9.256 73.04 8.28 C 72.139 7.382 70.681 7.382 69.78 8.28 C 68.895 9.256 68.895 10.744 69.78 11.72 Z M 75.58 13 L 75.58 7 L 76.52 7 L 79.44 11.67 L 79.44 7 L 80.21 7 L 80.21 13 L 79.41 13 L 76.36 8.11 L 76.36 13 Z" fill="#fff" stroke="#fff" stroke-miterlimit="10" stroke-width=".2"/>
  <path d="M 68.14 21.75 C 64.868 21.765 62.84 25.317 64.489 28.142 C 66.139 30.968 70.228 30.949 71.851 28.108 C 72.217 27.466 72.41 26.739 72.41 26 C 72.444 23.631 70.509 21.705 68.14 21.75 Z M 68.14 28.58 C 66.159 28.719 64.77 26.66 65.641 24.875 C 66.512 23.09 68.988 22.917 70.099 24.564 C 70.385 24.988 70.539 25.488 70.54 26 C 70.608 27.382 69.523 28.548 68.14 28.58 Z M 58.83 21.75 C 55.558 21.758 53.522 25.304 55.164 28.134 C 56.807 30.963 60.896 30.953 62.526 28.116 C 62.895 27.472 63.09 26.743 63.09 26 C 63.124 23.631 61.189 21.705 58.82 21.75 Z M 58.83 28.58 C 56.849 28.726 55.453 26.674 56.317 24.885 C 57.18 23.097 59.656 22.914 60.773 24.556 C 61.063 24.982 61.219 25.485 61.22 26 C 61.288 27.382 60.203 28.548 58.82 28.58 Z M 47.74 23.06 L 47.74 24.86 L 52.06 24.86 C 51.992 25.708 51.64 26.508 51.06 27.13 C 50.186 28.02 48.977 28.5 47.73 28.45 C 44.035 28.45 41.726 24.45 43.573 21.25 C 44.431 19.765 46.015 18.85 47.73 18.85 C 48.948 18.83 50.124 19.294 51 20.14 L 52.27 18.87 C 51.075 17.66 49.441 16.985 47.74 17 C 42.655 16.802 39.263 22.183 41.634 26.685 C 42.821 28.938 45.196 30.309 47.74 30.21 C 49.472 30.288 51.153 29.614 52.35 28.36 C 53.398 27.209 53.957 25.696 53.91 24.14 C 53.913 23.761 53.88 23.383 53.81 23.01 Z M 93.05 24.46 C 92.516 22.889 91.068 21.811 89.41 21.75 C 87.099 21.745 85.266 23.694 85.41 26 C 85.359 28.356 87.273 30.285 89.63 30.25 C 91.051 30.258 92.381 29.551 93.17 28.37 L 91.72 27.37 C 91.28 28.104 90.486 28.552 89.63 28.55 C 88.744 28.584 87.927 28.072 87.57 27.26 L 93.26 24.91 Z M 87.25 25.88 C 87.165 24.577 88.166 23.459 89.47 23.4 C 90.129 23.357 90.751 23.711 91.05 24.3 Z M 82.63 30 L 84.5 30 L 84.5 17.5 L 82.63 17.5 Z M 79.57 22.7 L 79.5 22.7 C 78.93 22.063 78.115 21.699 77.26 21.7 C 73.984 21.859 72.109 25.504 73.885 28.261 C 74.629 29.418 75.886 30.143 77.26 30.21 C 78.118 30.224 78.938 29.858 79.5 29.21 L 79.56 29.21 L 79.56 29.82 C 79.56 31.45 78.69 32.32 77.29 32.32 C 76.336 32.298 75.491 31.701 75.15 30.81 L 73.52 31.49 C 74.148 33.017 75.639 34.01 77.29 34 C 79.48 34 81.29 32.71 81.29 29.57 L 81.29 22 L 79.57 22 Z M 77.43 28.58 C 75.444 28.405 74.392 26.146 75.537 24.513 C 75.976 23.887 76.669 23.487 77.43 23.42 C 78.777 23.489 79.803 24.655 79.7 26 C 79.815 27.353 78.777 28.528 77.42 28.58 Z M 101.81 17.5 L 97.34 17.5 L 97.34 30 L 99.21 30 L 99.21 25.26 L 101.82 25.26 C 104.807 25.475 106.906 22.375 105.598 19.681 C 104.904 18.25 103.407 17.386 101.82 17.5 Z M 101.81 23.5 L 99.2 23.5 L 99.2 19.24 L 101.85 19.24 C 103.501 19.24 104.533 21.028 103.708 22.458 C 103.324 23.121 102.616 23.53 101.85 23.53 Z M 113.34 21.7 C 111.949 21.617 110.641 22.367 110.01 23.61 L 111.67 24.3 C 112.004 23.684 112.671 23.323 113.37 23.38 C 114.37 23.263 115.271 23.989 115.37 24.99 L 115.37 25.12 C 114.769 24.802 114.1 24.637 113.42 24.64 C 111.63 24.64 109.82 25.64 109.82 27.45 C 109.894 29.076 111.297 30.32 112.92 30.2 C 113.879 30.269 114.8 29.809 115.32 29 L 115.38 29 L 115.38 30 L 117.18 30 L 117.18 25.19 C 117.18 23 115.52 21.73 113.39 21.73 Z M 113.11 28.55 C 112.5 28.55 111.65 28.24 111.65 27.49 C 111.65 26.49 112.71 26.16 113.65 26.16 C 114.244 26.145 114.831 26.29 115.35 26.58 C 115.221 27.699 114.287 28.553 113.16 28.58 Z M 123.74 22 L 121.6 27.42 L 121.54 27.42 L 119.32 22 L 117.32 22 L 120.65 29.58 L 118.75 33.79 L 120.7 33.79 L 125.82 22 Z M 106.93 30 L 108.8 30 L 108.8 17.5 L 106.93 17.5 Z" fill="#fff"/>
  <path d="M 10.44 7.54 C 10.114 7.931 9.95 8.432 9.98 8.94 L 9.98 31.06 C 9.95 31.568 10.114 32.069 10.44 32.46 L 10.51 32.53 L 22.9 20.15 L 22.9 19.86 L 10.51 7.47 Z" fill="url(#a)"/>
  <path d="M 27 24.28 L 22.9 20.15 L 22.9 19.86 L 27 15.72 L 27.09 15.77 L 32 18.56 C 33.4 19.35 33.4 20.65 32 21.45 L 27.11 24.23 Z" fill="url(#b)"/>
  <path d="M 27.12 24.22 L 22.9 20 L 10.44 32.46 C 11.029 32.978 11.902 33.003 12.52 32.52 L 27.13 24.22" fill="url(#c)"/>
  <path d="M 27.12 15.78 L 12.51 7.48 C 11.892 6.997 11.019 7.022 10.43 7.54 L 22.9 20 Z" fill="url(#d)"/>
  <path d="M 27 24.13 L 12.51 32.38 C 11.917 32.823 11.103 32.823 10.51 32.38 L 10.44 32.45 L 10.51 32.52 C 11.102 32.967 11.918 32.967 12.51 32.52 L 27.12 24.22 Z" style="isolation:isolate" opacity=".2"/>
  <path d="M 10.44 32.32 C 10.114 31.929 9.95 31.428 9.98 30.92 L 9.98 31.07 C 9.95 31.578 10.114 32.079 10.44 32.47 L 10.51 32.4 Z M 32 21.3 L 27 24.13 L 27.09 24.22 L 32 21.44 C 32.567 21.174 32.948 20.624 33 20 C 32.886 20.565 32.517 21.045 32 21.3 Z" style="isolation:isolate" opacity=".12"/>
  <path d="M 12.51 7.62 L 32 18.7 C 32.517 18.955 32.886 19.435 33 20 C 32.948 19.376 32.567 18.826 32 18.56 L 12.51 7.48 C 11.11 6.69 9.97 7.35 9.97 8.95 L 9.97 9.1 C 10 7.49 11.12 6.83 12.51 7.62 Z" style="isolation:isolate" fill="#fff" opacity=".25"/>
</svg>