<svg width="90" height="90" viewBox="0 0 90 90" fill="none" xmlns="http://www.w3.org/2000/svg">
<g opacity="0.6">
<path d="M18.936 27.63L24.72 33.27C24.943 33.4881 25.2421 33.6107 25.554 33.612H34.368C34.5763 33.612 34.7809 33.6663 34.9619 33.7694C35.1428 33.8725 35.2938 34.0209 35.4 34.2L38.178 38.646C38.3047 38.848 38.3684 39.0831 38.3609 39.3214C38.3534 39.5597 38.2751 39.7904 38.136 39.984L35.16 44.112C35.0744 44.2295 34.9688 44.331 34.848 44.412L28.692 48.516L28.56 48.6L23.7 51C23.4818 51.1097 23.3023 51.2834 23.1855 51.4978C23.0686 51.7122 23.02 51.9572 23.046 52.2L24.354 62.028L25.464 69.42" stroke="#362C36" stroke-opacity="0.6" stroke-width="2" stroke-linecap="round" stroke-linejoin="round"/>
<path d="M69.078 24.972L60.24 34.026C60.0515 34.2173 59.8044 34.3398 59.538 34.374L50.31 35.604C50.0206 35.6434 49.7555 35.7871 49.5644 36.008C49.3733 36.2289 49.2693 36.5119 49.272 36.804V40.518C49.2706 40.6617 49.2971 40.8044 49.35 40.938L51.114 45.654C51.2004 45.8816 51.354 46.0775 51.5544 46.2158C51.7548 46.354 51.9925 46.428 52.236 46.428H56.928C57.0441 46.4283 57.1595 46.4465 57.27 46.482L63.87 48.462C64.0932 48.5284 64.3308 48.5284 64.554 48.462L76.32 45" stroke="#362C36" stroke-opacity="0.6" stroke-width="2" stroke-linecap="round" stroke-linejoin="round"/>
<path d="M73.308 58.422L60.066 55.704C59.9863 55.6948 59.9057 55.6948 59.826 55.704H54.6C54.3898 55.7025 54.1829 55.7563 54 55.86L50.4 57.924C50.2588 58.0043 50.1353 58.1125 50.0372 58.2419C49.939 58.3714 49.8681 58.5194 49.8288 58.677C49.7896 58.8347 49.7827 58.9986 49.8087 59.159C49.8347 59.3194 49.893 59.4728 49.98 59.61L54.18 66.174C54.265 66.3093 54.3221 66.4603 54.348 66.618L55.674 74.496" stroke="#362C36" stroke-opacity="0.6" stroke-width="2" stroke-linecap="round" stroke-linejoin="round"/>
<path d="M45 76.32C62.2976 76.32 76.32 62.2976 76.32 45C76.32 27.7024 62.2976 13.68 45 13.68C27.7024 13.68 13.68 27.7024 13.68 45C13.68 62.2976 27.7024 76.32 45 76.32Z" stroke="#362C36" stroke-opacity="0.6" stroke-width="2" stroke-linecap="round" stroke-linejoin="round"/>
<path d="M86.874 41.688C86.958 42.78 87 43.884 87 45" stroke="#362C36" stroke-opacity="0.6" stroke-width="2" stroke-linecap="round" stroke-linejoin="round"/>
<path d="M83.91 29.154C84.5292 30.6734 85.0582 32.2281 85.494 33.81" stroke="#362C36" stroke-opacity="0.6" stroke-width="2" stroke-linecap="round" stroke-linejoin="round"/>
<path d="M45 3.00001C51.9266 2.9961 58.7464 4.70681 64.851 7.97952C70.9557 11.2522 76.1553 15.9851 79.986 21.756" stroke="#362C36" stroke-opacity="0.6" stroke-width="2" stroke-linecap="round" stroke-linejoin="round"/>
<path d="M3.294 49.98C3.0988 48.3272 3.00064 46.6643 3 45" stroke="#362C36" stroke-opacity="0.6" stroke-width="2" stroke-linecap="round" stroke-linejoin="round"/>
<path d="M6.96 62.832C5.88307 60.5306 5.01557 58.137 4.368 55.68" stroke="#362C36" stroke-opacity="0.6" stroke-width="2" stroke-linecap="round" stroke-linejoin="round"/>
<path d="M45 87C38.1501 87.0047 31.4032 85.3322 25.3485 82.1287C19.2938 78.9251 14.1156 74.2879 10.266 68.622" stroke="#362C36" stroke-opacity="0.6" stroke-width="2" stroke-linecap="round" stroke-linejoin="round"/>
</g>
</svg>
