<svg width="90" height="90" viewBox="0 0 90 90" fill="none" xmlns="http://www.w3.org/2000/svg">
<g opacity="0.6">
<path d="M77.784 16.044C56.01 16.044 45.126 3.60001 45.126 3.60001C45.126 3.60001 34.236 16.044 12.456 16.044V44.244C12.4551 49.9926 13.7818 55.6637 16.3326 60.8154C18.8834 65.967 22.5895 70.4599 27.162 73.944L45.126 87.6L63.078 73.92C67.6504 70.4359 71.3565 65.943 73.9074 60.7914C76.4582 55.6397 77.7849 49.9686 77.784 44.22V16.044Z" stroke="#362C36" stroke-opacity="0.6" stroke-width="2" stroke-linecap="round" stroke-linejoin="round"/>
<path d="M50.46 75.708L45.126 79.8L30.936 69C27.1319 66.0838 24.0483 62.3329 21.9231 58.0366C19.7978 53.7403 18.6876 49.0132 18.678 44.22V21.954C28.2491 21.0723 37.3959 17.5862 45.126 11.874C50.058 15.6 58.884 20.658 71.562 21.954V44.22C71.5536 49.0128 70.4445 53.7397 68.3203 58.0361C66.196 62.3324 63.1133 66.0835 59.31 69" stroke="#362C36" stroke-opacity="0.6" stroke-width="2" stroke-linecap="round" stroke-linejoin="round"/>
<path d="M32.556 47.766L40.854 57.444L57.444 32.556" stroke="#362C36" stroke-opacity="0.6" stroke-width="2" stroke-linecap="round" stroke-linejoin="round"/>
</g>
</svg>
