<svg width="90" height="90" viewBox="0 0 90 90" fill="none" xmlns="http://www.w3.org/2000/svg">
<g opacity="0.6">
<path d="M45.6 61.902C44.796 61.902 43.98 61.902 43.164 61.902C35.484 61.53 27.924 64.734 27.924 46.11C27.924 35.31 31.068 24.636 34.848 16.71" stroke="#362C36" stroke-opacity="0.6" stroke-width="2" stroke-miterlimit="10" stroke-linecap="round"/>
<path d="M37.542 11.658C39.504 8.4 41.472 6 43.146 4.8C48.972 9.066 58.392 27.504 58.392 46.134C58.392 58.32 55.158 61.134 50.772 61.776" stroke="#362C36" stroke-opacity="0.6" stroke-width="2" stroke-miterlimit="10" stroke-linecap="round"/>
<path d="M29.562 30.234C29.562 30.234 21.45 38.358 19.23 41.034C17.112 43.578 12.288 48.87 14.268 53.472C16.248 58.074 29.022 56.58 29.022 56.58" stroke="#362C36" stroke-opacity="0.6" stroke-width="2" stroke-miterlimit="10" stroke-linecap="round"/>
<path d="M56.538 30.336C56.538 30.336 64.848 38.358 67.068 41.034C69.186 43.578 74.01 48.87 72.03 53.472C70.05 58.074 57.276 56.58 57.276 56.58" stroke="#362C36" stroke-opacity="0.6" stroke-width="2" stroke-miterlimit="10" stroke-linecap="round"/>
<path d="M46.71 23.046C46.7084 23.8203 46.4572 24.5735 45.9936 25.1938C45.5301 25.8141 44.8789 26.2683 44.1367 26.4892C43.3945 26.71 42.6009 26.6856 41.8736 26.4197C41.1464 26.1537 40.5243 25.6604 40.0996 25.0129C39.675 24.3653 39.4704 23.5982 39.5163 22.8252C39.5623 22.0522 39.8562 21.3146 40.3545 20.7219C40.8529 20.1292 41.529 19.713 42.2826 19.535C43.0363 19.3571 43.8272 19.4268 44.538 19.734" stroke="#362C36" stroke-opacity="0.6" stroke-width="2" stroke-miterlimit="10" stroke-linecap="round"/>
<path d="M36.72 64.368V70.518" stroke="#362C36" stroke-opacity="0.6" stroke-width="2" stroke-miterlimit="10" stroke-linecap="round"/>
<path d="M49.578 64.368V70.518" stroke="#362C36" stroke-opacity="0.6" stroke-width="2" stroke-miterlimit="10" stroke-linecap="round"/>
<path d="M43.146 64.77V76.002" stroke="#362C36" stroke-opacity="0.6" stroke-width="2" stroke-miterlimit="10" stroke-linecap="round"/>
<path d="M35.4 81.15C35.048 80.0342 34.4104 79.0297 33.5506 78.2362C32.6907 77.4426 31.6384 76.8876 30.498 76.626C29.8258 75.128 28.7644 73.8375 27.4243 72.8889C26.0841 71.9403 24.5142 71.3683 22.8779 71.2323C21.2417 71.0963 19.5989 71.4013 18.1205 72.1156C16.6421 72.83 15.3823 73.9275 14.472 75.294C13.4112 74.4872 12.146 73.9931 10.8191 73.8676C9.49234 73.742 8.15686 73.99 6.96357 74.5835C5.77029 75.1771 4.76677 76.0924 4.06636 77.2263C3.36596 78.3601 2.99659 79.6673 2.99999 81C2.99999 81.048 2.99999 81.096 2.99999 81.144" stroke="#362C36" stroke-opacity="0.6" stroke-width="2" stroke-miterlimit="10" stroke-linecap="round"/>
<path d="M87 74.094C86.6464 72.978 86.0076 71.9736 85.1468 71.1802C84.286 70.3868 83.233 69.8317 82.092 69.57C81.4198 68.072 80.3584 66.7815 79.0183 65.8329C77.6781 64.8843 76.1082 64.3123 74.4719 64.1763C72.8357 64.0403 71.1929 64.3453 69.7145 65.0596C68.2361 65.774 66.9763 66.8715 66.066 68.238C64.8269 67.2868 63.3081 66.7721 61.746 66.774C60.8032 66.7756 59.8699 66.9632 58.9998 67.3262C58.1297 67.6892 57.3397 68.2204 56.6753 68.8893C56.0108 69.5582 55.485 70.3516 55.1278 71.2242C54.7707 72.0967 54.5893 73.0312 54.594 73.974C54.594 74.016 54.594 74.064 54.594 74.112" stroke="#362C36" stroke-opacity="0.6" stroke-width="2" stroke-miterlimit="10" stroke-linecap="round"/>
<path d="M30.252 3.156L30.984 4.5C31.0203 4.56923 31.0768 4.62574 31.146 4.662L32.484 5.4C32.5492 5.4348 32.6038 5.48668 32.6419 5.55009C32.6799 5.6135 32.7 5.68605 32.7 5.76C32.7 5.83395 32.6799 5.90651 32.6419 5.96991C32.6038 6.03332 32.5492 6.0852 32.484 6.12L31.146 6.858C31.078 6.89594 31.0219 6.95203 30.984 7.02L30.252 8.364C30.2159 8.42763 30.1635 8.48054 30.1003 8.51735C30.037 8.55417 29.9652 8.57356 29.892 8.57356C29.8188 8.57356 29.747 8.55417 29.6837 8.51735C29.6205 8.48054 29.5681 8.42763 29.532 8.364L28.8 7.02C28.7621 6.95203 28.706 6.89594 28.638 6.858L27.3 6.12C27.2348 6.0852 27.1802 6.03332 27.1421 5.96991C27.1041 5.90651 27.084 5.83395 27.084 5.76C27.084 5.68605 27.1041 5.6135 27.1421 5.55009C27.1802 5.48668 27.2348 5.4348 27.3 5.4L28.638 4.662C28.7072 4.62574 28.7637 4.56923 28.8 4.5L29.532 3.156C29.5681 3.09237 29.6205 3.03946 29.6837 3.00265C29.747 2.96584 29.8188 2.94644 29.892 2.94644C29.9652 2.94644 30.037 2.96584 30.1003 3.00265C30.1635 3.03946 30.2159 3.09237 30.252 3.156Z" fill="#362C36" fill-opacity="0.6"/>
<path d="M20.268 13.008L20.712 13.8C20.7342 13.842 20.7674 13.8773 20.808 13.902L21.618 14.346C21.6567 14.368 21.6888 14.3999 21.7112 14.4383C21.7336 14.4768 21.7453 14.5205 21.7453 14.565C21.7453 14.6095 21.7336 14.6532 21.7112 14.6917C21.6888 14.7301 21.6567 14.762 21.618 14.784L20.808 15.228C20.7674 15.2527 20.7342 15.288 20.712 15.33L20.268 16.14C20.246 16.1787 20.2141 16.2108 20.1757 16.2332C20.1372 16.2556 20.0935 16.2673 20.049 16.2673C20.0045 16.2673 19.9608 16.2556 19.9223 16.2332C19.8839 16.2108 19.852 16.1787 19.83 16.14L19.386 15.33C19.3638 15.288 19.3306 15.2527 19.29 15.228L18.48 14.784C18.4413 14.762 18.4092 14.7301 18.3868 14.6917C18.3645 14.6532 18.3527 14.6095 18.3527 14.565C18.3527 14.5205 18.3645 14.4768 18.3868 14.4383C18.4092 14.3999 18.4413 14.368 18.48 14.346L19.29 13.902C19.3306 13.8773 19.3638 13.842 19.386 13.8L19.83 12.99C19.8536 12.9522 19.8867 12.9213 19.9261 12.9005C19.9655 12.8796 20.0097 12.8696 20.0542 12.8715C20.0988 12.8733 20.142 12.8869 20.1796 12.9109C20.2171 12.9349 20.2476 12.9684 20.268 13.008Z" fill="#362C36" fill-opacity="0.6"/>
<path d="M25.716 25.392L26.046 25.992C26.0616 26.0246 26.0867 26.0518 26.118 26.07L26.718 26.4C26.7466 26.417 26.7703 26.4412 26.7867 26.4701C26.8032 26.499 26.8118 26.5317 26.8118 26.565C26.8118 26.5983 26.8032 26.631 26.7867 26.6599C26.7703 26.6888 26.7466 26.713 26.718 26.73L26.118 27.066C26.0883 27.0835 26.0635 27.1083 26.046 27.138L25.716 27.738C25.7003 27.7682 25.6766 27.7935 25.6475 27.8112C25.6184 27.8288 25.585 27.8381 25.551 27.8381C25.517 27.8381 25.4836 27.8288 25.4545 27.8112C25.4254 27.7935 25.4017 27.7682 25.386 27.738L25.05 27.138C25.034 27.1071 25.0089 27.082 24.978 27.066L24.378 26.73C24.3478 26.7143 24.3225 26.6906 24.3049 26.6615C24.2872 26.6324 24.2779 26.599 24.2779 26.565C24.2779 26.531 24.2872 26.4976 24.3049 26.4685C24.3225 26.4394 24.3478 26.4157 24.378 26.4L24.978 26.07C25.0107 26.0536 25.0363 26.0259 25.05 25.992L25.386 25.392C25.4017 25.3618 25.4254 25.3365 25.4545 25.3188C25.4836 25.3012 25.517 25.2919 25.551 25.2919C25.585 25.2919 25.6184 25.3012 25.6475 25.3188C25.6766 25.3365 25.7003 25.3618 25.716 25.392Z" fill="#362C36" fill-opacity="0.6"/>
<path d="M68.208 7.8L68.544 8.4C68.5577 8.4339 68.5833 8.46164 68.616 8.478L69.216 8.808C69.2462 8.8237 69.2715 8.8474 69.2891 8.87649C69.3068 8.90558 69.3161 8.93896 69.3161 8.973C69.3161 9.00703 69.3068 9.04041 69.2891 9.0695C69.2715 9.0986 69.2462 9.12229 69.216 9.138L68.616 9.474C68.5851 9.48997 68.56 9.51513 68.544 9.546L68.208 10.146C68.1933 10.1764 68.1702 10.2021 68.1416 10.2201C68.1129 10.238 68.0798 10.2475 68.046 10.2475C68.0122 10.2475 67.979 10.238 67.9504 10.2201C67.9217 10.2021 67.8987 10.1764 67.884 10.146L67.548 9.546C67.5305 9.5163 67.5057 9.49152 67.476 9.474L66.876 9.138C66.8458 9.12229 66.8205 9.0986 66.8028 9.0695C66.7852 9.04041 66.7758 9.00703 66.7758 8.973C66.7758 8.93896 66.7852 8.90558 66.8028 8.87649C66.8205 8.8474 66.8458 8.8237 66.876 8.808L67.476 8.478C67.5073 8.45982 67.5324 8.43264 67.548 8.4L67.884 7.8C67.8987 7.76956 67.9217 7.7439 67.9504 7.72594C67.979 7.70798 68.0122 7.69846 68.046 7.69846C68.0798 7.69846 68.1129 7.70798 68.1416 7.72594C68.1702 7.7439 68.1933 7.76956 68.208 7.8Z" fill="#362C36" fill-opacity="0.6"/>
<path d="M64.356 15.09L64.8 15.9C64.8244 15.9424 64.8596 15.9776 64.902 16.002L65.712 16.446C65.7507 16.468 65.7828 16.4999 65.8052 16.5383C65.8276 16.5768 65.8393 16.6205 65.8393 16.665C65.8393 16.7095 65.8276 16.7532 65.8052 16.7917C65.7828 16.8301 65.7507 16.862 65.712 16.884L64.902 17.328C64.8596 17.3524 64.8244 17.3876 64.8 17.43L64.356 18.24C64.334 18.2787 64.3021 18.3108 64.2637 18.3332C64.2252 18.3556 64.1815 18.3673 64.137 18.3673C64.0925 18.3673 64.0488 18.3556 64.0103 18.3332C63.9719 18.3108 63.94 18.2787 63.918 18.24L63.474 17.43C63.4538 17.3865 63.4202 17.3508 63.378 17.328L62.568 16.884C62.5293 16.862 62.4972 16.8301 62.4748 16.7917C62.4525 16.7532 62.4407 16.7095 62.4407 16.665C62.4407 16.6205 62.4525 16.5768 62.4748 16.5383C62.4972 16.4999 62.5293 16.468 62.568 16.446L63.378 16.002C63.4202 15.9793 63.4538 15.9435 63.474 15.9L63.918 15.09C63.94 15.0513 63.9719 15.0192 64.0103 14.9968C64.0488 14.9745 64.0925 14.9627 64.137 14.9627C64.1815 14.9627 64.2252 14.9745 64.2637 14.9968C64.3021 15.0192 64.334 15.0513 64.356 15.09Z" fill="#362C36" fill-opacity="0.6"/>
</g>
</svg>
