<svg width="124" height="106" viewBox="0 0 124 106" fill="none" xmlns="http://www.w3.org/2000/svg">
<g clip-path="url(#clip0_902_368)">
<path d="M99.0001 57.71V72C99.0001 72.5764 98.7718 73.1294 98.3651 73.5379C97.9584 73.9465 97.4065 74.1773 96.8301 74.18H64.2001C63.9126 74.176 63.6272 74.2292 63.3604 74.3365C63.0937 74.4437 62.8509 74.6029 62.6462 74.8048C62.4415 75.0067 62.279 75.2473 62.1681 75.5126C62.0571 75.7778 62 76.0624 62.0001 76.35V92.83C62 93.1175 62.0571 93.4021 62.1681 93.6674C62.279 93.9326 62.4415 94.1732 62.6462 94.3751C62.8509 94.577 63.0937 94.7362 63.3604 94.8435C63.6272 94.9507 63.9126 95.0039 64.2001 95H80.8501C81.4221 95.0052 81.9689 95.2362 82.3716 95.6426C82.7742 96.049 83.0001 96.5979 83.0001 97.17V99.53C83.0001 100.105 82.7714 100.657 82.3645 101.064C81.9575 101.471 81.4056 101.7 80.8301 101.7H32.7001C32.1245 101.7 31.5726 101.471 31.1656 101.064C30.7587 100.657 30.5301 100.105 30.5301 99.53V97.17C30.5301 96.5944 30.7587 96.0425 31.1656 95.6355C31.5726 95.2286 32.1245 95 32.7001 95H49.0001C49.5765 95 50.1295 94.7717 50.538 94.365C50.9466 93.9583 51.1774 93.4064 51.1801 92.83V76.35C51.1774 75.7735 50.9466 75.2216 50.538 74.8149C50.1295 74.4083 49.5765 74.18 49.0001 74.18H14.2301C13.6536 74.1773 13.1017 73.9465 12.695 73.5379C12.2884 73.1294 12.0601 72.5764 12.0601 72V66.22" stroke="#DB3358" stroke-width="2" stroke-miterlimit="10" stroke-linecap="round"/>
<path d="M12.0601 51.7301V22.0001C12.0601 21.4246 12.2887 20.8726 12.6956 20.4657C13.1026 20.0587 13.6545 19.8301 14.2301 19.8301H66.9201" stroke="#DB3358" stroke-width="2" stroke-miterlimit="10" stroke-linecap="round"/>
<path d="M94.07 51.3699V66.9399C94.0674 67.5147 93.8379 68.0651 93.4315 68.4715C93.0251 68.8778 92.4747 69.1073 91.9 69.1099H19.12C18.554 69.0944 18.0163 68.8592 17.6206 68.4542C17.225 68.0492 17.0024 67.5061 17 66.9399V27.1099C17.0026 26.5352 17.2321 25.9848 17.6385 25.5784C18.0449 25.172 18.5953 24.9426 19.17 24.9399H60.58" stroke="#DB3358" stroke-width="2" stroke-miterlimit="10" stroke-linecap="round"/>
<path d="M82.3 105.5H96.6" stroke="#DB3358" stroke-width="2" stroke-miterlimit="10" stroke-linecap="round"/>
<path d="M14.4199 105.5H68.9099" stroke="#DB3358" stroke-width="2" stroke-miterlimit="10" stroke-linecap="round"/>
<path d="M94.43 46.84C107.226 46.84 117.6 36.4664 117.6 23.67C117.6 10.8736 107.226 0.5 94.43 0.5C81.6336 0.5 71.26 10.8736 71.26 23.67C71.26 36.4664 81.6336 46.84 94.43 46.84Z" stroke="#DB3358" stroke-width="2" stroke-miterlimit="10" stroke-linecap="round"/>
<path d="M96.2201 29.5998L103.79 12.5298C103.911 12.2312 103.958 11.9077 103.927 11.587C103.896 11.2663 103.788 10.9578 103.613 10.6877C103.437 10.4177 103.198 10.1941 102.918 10.036C102.637 9.87795 102.322 9.79004 102 9.77979H86.8601C86.5389 9.7916 86.2253 9.88064 85.9458 10.0394C85.6664 10.1981 85.4293 10.4219 85.2546 10.6917C85.08 10.9615 84.9729 11.2694 84.9425 11.5894C84.9122 11.9094 84.9593 12.2319 85.0801 12.5298L92.6501 29.5998C92.817 29.93 93.0722 30.2074 93.3873 30.4012C93.7024 30.5951 94.0651 30.6977 94.4351 30.6977C94.8051 30.6977 95.1678 30.5951 95.4829 30.4012C95.798 30.2074 96.0532 29.93 96.2201 29.5998Z" stroke="#DB3358" stroke-miterlimit="10" stroke-linecap="round"/>
<path d="M94.43 39.0601C95.9322 39.0601 97.15 37.8423 97.15 36.3401C97.15 34.8379 95.9322 33.6201 94.43 33.6201C92.9277 33.6201 91.71 34.8379 91.71 36.3401C91.71 37.8423 92.9277 39.0601 94.43 39.0601Z" stroke="#DB3358" stroke-miterlimit="10" stroke-linecap="round"/>
</g>
<defs>
<clipPath id="clip0_902_368">
<rect width="124" height="106" fill="white"/>
</clipPath>
</defs>
</svg>
