<?xml version="1.0" encoding="UTF-8" standalone="no" ?>
<!DOCTYPE svg PUBLIC "-//W3C//DTD SVG 1.1//EN" "http://www.w3.org/Graphics/SVG/1.1/DTD/svg11.dtd">
<svg xmlns="http://www.w3.org/2000/svg" xmlns:xlink="http://www.w3.org/1999/xlink" version="1.1" width="1080" height="1080" viewBox="0 0 1080 1080" xml:space="preserve">
<desc>Created with Fabric.js 5.2.4</desc>
<defs>
</defs>
<rect x="0" y="0" width="100%" height="100%" fill="transparent"></rect>
<g transform="matrix(1 0 0 1 540 540)" id="d236decb-cf14-4772-ae1a-46f811dd537c"  >
</g>
<g transform="matrix(1 0 0 1 540 540)" id="72e80031-a55b-4610-bffe-96879b196e62"  >
<rect style="stroke: none; stroke-width: 1; stroke-dasharray: none; stroke-linecap: butt; stroke-dashoffset: 0; stroke-linejoin: miter; stroke-miterlimit: 4; fill: rgb(255,255,255); fill-rule: nonzero; opacity: 1; visibility: hidden;" vector-effect="non-scaling-stroke"  x="-540" y="-540" rx="0" ry="0" width="1080" height="1080" />
</g>
<g transform="matrix(0 0 0 0 0 0)"  >
<g style=""   >
</g>
</g>
<g transform="matrix(2.06 0 0 2.08 518.01 540)"  >
<path style="stroke: rgb(0,0,0); stroke-width: 0; stroke-dasharray: none; stroke-linecap: butt; stroke-dashoffset: 0; stroke-linejoin: miter; stroke-miterlimit: 4; fill: rgb(211,211,211); fill-rule: nonzero; opacity: 1;" vector-effect="non-scaling-stroke"  transform=" translate(-255.95, -256)" d="M 393 315.6 C 386.7 303.1 378.2 291.70000000000005 367.5 281.40000000000003 C 356.8 271.1 344.4 261.8 330.2 253.30000000000004 C 316.09999999999997 244.80000000000004 301 236.70000000000005 285.09999999999997 229.00000000000003 C 281.29999999999995 227.40000000000003 277.9 226.00000000000003 274.29999999999995 224.50000000000003 L 274.29999999999995 95.50000000000003 C 276.99999999999994 95.40000000000003 279.79999999999995 95.10000000000002 282.49999999999994 95.10000000000002 C 323.29999999999995 95.10000000000002 358.0999999999999 110.60000000000002 383.99999999999994 127.90000000000002 L 383.99999999999994 54.9 C 362.2 44.8 324.8 36.6 277 36.6 C 276.1 36.6 275.3 36.7 274.4 36.7 L 274.4 0 L 237.79999999999998 0 L 237.79999999999998 39.8 C 230.7 40.9 223.49999999999997 41.9 216.29999999999998 43.5 C 196.1 48.1 178.09999999999997 55.3 162.29999999999998 64.8 C 146.49999999999997 74.39999999999999 133.7 86.5 123.99999999999999 101.19999999999999 C 114.29999999999998 115.89999999999999 109.49999999999999 133.2 109.49999999999999 153.2 C 109.49999999999999 169.39999999999998 112.29999999999998 183.5 117.89999999999999 195.5 C 123.49999999999999 207.6 131.29999999999998 218.4 141.2 227.9 C 151.1 237.5 162.7 246.20000000000002 176.1 254.1 C 189.5 262 203.9 269.8 219.39999999999998 277.5 C 225.7 280.2 231.79999999999998 282.8 237.7 285.4 L 237.7 416.59999999999997 C 234.39999999999998 416.7 231.5 416.99999999999994 228 416.99999999999994 C 218.9 416.99999999999994 208.9 416.09999999999997 198.1 414.29999999999995 C 187.29999999999998 412.49999999999994 176.4 409.99999999999994 165.6 406.69999999999993 C 154.79999999999998 403.49999999999994 144.5 399.3999999999999 134.79999999999998 394.69999999999993 C 125.09999999999998 389.99999999999994 116.79999999999998 384.5999999999999 109.79999999999998 378.69999999999993 L 109.79999999999998 453.29999999999995 C 116.19999999999999 457.09999999999997 124.69999999999999 458.4 135.1 461.29999999999995 C 145.5 464.29999999999995 156.5 466.79999999999995 168.2 468.9 C 179.89999999999998 471 191.29999999999998 472.5 202.39999999999998 473.59999999999997 C 213.49999999999997 474.7 227.49999999999997 475.2 235.09999999999997 475.2 C 235.99999999999997 475.2 236.79999999999995 475.09999999999997 237.69999999999996 475.09999999999997 L 237.69999999999996 512 L 274.29999999999995 512 L 274.29999999999995 472.8 C 281.29999999999995 471.8 288.4 470.7 295.9 469.2 C 316.5 465 334.7 458.4 350.59999999999997 449.09999999999997 C 366.4 439.79999999999995 378.99999999999994 427.79999999999995 388.4 412.99999999999994 C 397.79999999999995 398.19999999999993 402.4 379.99999999999994 402.4 358.49999999999994 C 402.4 342.5 399.3 328.2 393 315.6 z M 214.3 194.7 C 206.10000000000002 189 199.9 182.7 195.70000000000002 175.79999999999998 C 191.4 168.89999999999998 189.3 160.7 189.3 151.2 C 189.3 141.1 192.10000000000002 132.6 197.60000000000002 125.49999999999999 C 203.10000000000002 118.39999999999999 210.3 112.59999999999998 219.10000000000002 107.99999999999999 C 224.8 105.09999999999998 231.20000000000002 102.89999999999999 237.90000000000003 100.99999999999999 L 237.90000000000003 208.29999999999998 C 228.9 203.8 220.8 199.3 214.3 194.7 z M 299.4 402.3 C 292.7 406.5 284.2 409.7 274.5 412.1 L 274.5 302.1 C 281.3 305.6 287.6 309.1 293.2 312.8 C 302.5 318.90000000000003 309.8 325.7 315 333.1 C 320.2 340.5 322.8 349.20000000000005 322.8 359.3 C 322.8 378.1 315 392.4 299.4 402.3 z" stroke-linecap="round" />
</g>
<g transform="matrix(NaN NaN NaN NaN 0 0)"  >
<g style=""   >
</g>
</g>
</svg>