<?xml version="1.0" encoding="UTF-8" standalone="no" ?>
<!DOCTYPE svg PUBLIC "-//W3C//DTD SVG 1.1//EN" "http://www.w3.org/Graphics/SVG/1.1/DTD/svg11.dtd">
<svg xmlns="http://www.w3.org/2000/svg" xmlns:xlink="http://www.w3.org/1999/xlink" version="1.1" width="1080" height="1080" viewBox="0 0 1080 1080" xml:space="preserve">
<desc>Created with Fabric.js 5.2.4</desc>
<defs>
</defs>
<rect x="0" y="0" width="100%" height="100%" fill="transparent"></rect>
<g transform="matrix(1 0 0 1 540 540)" id="72e80031-a55b-4610-bffe-96879b196e62"  >
<rect style="stroke: none; stroke-width: 1; stroke-dasharray: none; stroke-linecap: butt; stroke-dashoffset: 0; stroke-linejoin: miter; stroke-miterlimit: 4; fill: rgb(255,255,255); fill-rule: nonzero; opacity: 1; visibility: hidden;" vector-effect="non-scaling-stroke"  x="-540" y="-540" rx="0" ry="0" width="1080" height="1080" />
</g>
<g transform="matrix(1 0 0 1 540 540)" id="d236decb-cf14-4772-ae1a-46f811dd537c"  >
</g>
<g transform="matrix(3.59 0 0 3.27 535.14 550.68)" id="5365693d-0a83-46e7-934a-93cb54d5b8bf"  >
<path style="stroke: rgb(0,0,0); stroke-width: 0; stroke-dasharray: none; stroke-linecap: butt; stroke-dashoffset: 0; stroke-linejoin: miter; stroke-miterlimit: 4; fill: rgb(211,211,211); fill-rule: nonzero; opacity: 1;" vector-effect="non-scaling-stroke"  transform=" translate(-155.38, -155.38)" d="M 183.815 265.726 C 151.37099999999998 265.726 122.947 243.889 107.509 211.401 L 209.61 211.401 L 209.61 166.37800000000001 L 95.643 166.37800000000001 C 95.359 162.73600000000002 95.206 159.08800000000002 95.206 155.36200000000002 C 95.206 151.67100000000002 95.358 147.978 95.643 144.38500000000002 L 209.612 144.38500000000002 L 209.612 99.353 L 107.51 99.353 C 122.94800000000001 66.868 151.371 45.038 183.816 45.038 C 214.826 45.038 244.026 65.797 260.016 99.19 L 300.642 79.77199999999999 C 277.091 30.554 232.329 0 183.815 0 C 147.345 0 113.30499999999999 16.665 87.964 46.966 C 75.219 62.209 65.481 79.995 59.079 99.353 L 10.108 99.353 L 10.108 144.384 L 50.498000000000005 144.384 C 50.281000000000006 148.00099999999998 50.169000000000004 151.695 50.169000000000004 155.361 C 50.169000000000004 159.065 50.281000000000006 162.712 50.498000000000005 166.37699999999998 L 10.108000000000004 166.37699999999998 L 10.108000000000004 211.4 L 59.079 211.4 C 65.481 230.756 75.219 248.522 87.965 263.751 C 113.30600000000001 294.054 147.346 310.75 183.816 310.75 C 232.33100000000002 310.75 277.091 280.2 300.642 230.983 L 260.016 211.529 C 244.025 244.965 214.825 265.726 183.815 265.726 z" stroke-linecap="round" />
</g>
<g transform="matrix(NaN NaN NaN NaN 0 0)"  >
<g style=""   >
</g>
</g>
</svg>