<?xml version="1.0" encoding="UTF-8" standalone="no" ?>
<!DOCTYPE svg PUBLIC "-//W3C//DTD SVG 1.1//EN" "http://www.w3.org/Graphics/SVG/1.1/DTD/svg11.dtd">
<svg xmlns="http://www.w3.org/2000/svg" xmlns:xlink="http://www.w3.org/1999/xlink" version="1.1" width="1080" height="1080" viewBox="0 0 1080 1080" xml:space="preserve">
<desc>Created with Fabric.js 5.2.4</desc>
<defs>
</defs>
<rect x="0" y="0" width="100%" height="100%" fill="transparent"></rect>
<g transform="matrix(1 0 0 1 540 540)" id="d236decb-cf14-4772-ae1a-46f811dd537c"  >
</g>
<g transform="matrix(1 0 0 1 540 540)" id="72e80031-a55b-4610-bffe-96879b196e62"  >
<rect style="stroke: none; stroke-width: 1; stroke-dasharray: none; stroke-linecap: butt; stroke-dashoffset: 0; stroke-linejoin: miter; stroke-miterlimit: 4; fill: rgb(255,255,255); fill-rule: nonzero; opacity: 1; visibility: hidden;" vector-effect="non-scaling-stroke"  x="-540" y="-540" rx="0" ry="0" width="1080" height="1080" />
</g>
<g transform="matrix(0 0 0 0 0 0)"  >
<g style=""   >
</g>
</g>
<g transform="matrix(NaN NaN NaN NaN 0 0)"  >
<g style=""   >
</g>
</g>
<g transform="matrix(40.19 0 0 42.95 551.04 550.17)" id="a1707d78-6a46-427e-afca-a8b1b7130c11"  >
<path style="stroke: rgb(0,0,0); stroke-width: 0; stroke-dasharray: none; stroke-linecap: butt; stroke-dashoffset: 0; stroke-linejoin: miter; stroke-miterlimit: 4; fill: rgb(211,211,211); fill-rule: nonzero; opacity: 1;" vector-effect="non-scaling-stroke"  transform=" translate(-8.69, -12)" d="M 17.386 17.2 L 17.386 23.456 L 17.386 23.477 C 17.386 23.767 17.151 24.002 16.861 24.002 C 16.854 24.002 16.846 24.002 16.839000000000002 24.002 L 16.840000000000003 24.002 L 0.5450000000000017 24.002 C 0.5390000000000017 24.002 0.5310000000000017 24.002 0.5240000000000017 24.002 C 0.2340000000000017 24.002 -0.0009999999999983356 23.767 -0.0009999999999983356 23.477 C -0.0009999999999983356 23.47 -0.0009999999999983356 23.462 -0.0009999999999983356 23.455000000000002 L -0.0009999999999983356 23.456000000000003 L -0.0009999999999983356 20.896000000000004 C 0.0030000000000016645 20.596000000000004 0.24500000000000166 20.354000000000003 0.5440000000000017 20.350000000000005 L 2.1980000000000017 20.350000000000005 L 2.1980000000000017 13.824000000000005 L 0.5790000000000017 13.824000000000005 C 0.5740000000000017 13.824000000000005 0.5670000000000017 13.824000000000005 0.5610000000000017 13.824000000000005 C 0.4140000000000017 13.824000000000005 0.2810000000000017 13.763000000000005 0.18700000000000172 13.664000000000005 C 0.09200000000000172 13.567000000000005 0.03300000000000172 13.434000000000005 0.03300000000000172 13.287000000000004 C 0.03300000000000172 13.285000000000004 0.03300000000000172 13.283000000000005 0.03300000000000172 13.280000000000005 L 0.03300000000000172 11.047000000000004 C 0.03300000000000172 11.041000000000004 0.03300000000000172 11.033000000000005 0.03300000000000172 11.026000000000003 C 0.03300000000000172 10.736000000000004 0.2680000000000017 10.501000000000003 0.5580000000000017 10.501000000000003 L 0.5800000000000017 10.501000000000003 L 0.5790000000000017 10.501000000000003 L 2.1980000000000017 10.501000000000003 L 2.1980000000000017 6.700000000000003 C 2.197000000000002 6.652000000000003 2.196000000000002 6.596000000000003 2.196000000000002 6.540000000000003 C 2.196000000000002 4.6910000000000025 3.008000000000002 3.031000000000003 4.296000000000002 1.8990000000000027 L 4.303000000000002 1.8930000000000027 C 5.651000000000002 0.7140000000000026 7.427000000000001 -0.004999999999997229 9.371000000000002 -0.004999999999997229 C 9.474000000000002 -0.004999999999997229 9.576000000000002 -0.002999999999997229 9.678000000000003 0.0010000000000027712 L 9.663000000000002 0.0010000000000027712 L 9.671000000000001 0.0010000000000027712 C 11.858 0.0010000000000027712 13.856000000000002 0.8080000000000028 15.384 2.1400000000000023 L 15.374 2.1310000000000024 C 15.472000000000001 2.2180000000000026 15.536000000000001 2.3410000000000024 15.544 2.4790000000000023 L 15.544 2.480000000000002 C 15.545 2.494000000000002 15.546000000000001 2.510000000000002 15.546000000000001 2.5270000000000024 C 15.546000000000001 2.6550000000000025 15.500000000000002 2.7730000000000024 15.424000000000001 2.8640000000000025 L 15.425 2.8630000000000027 L 13.669 5.028000000000002 C 13.581000000000001 5.1430000000000025 13.447000000000001 5.220000000000002 13.296000000000001 5.233000000000002 L 13.294 5.233000000000002 C 13.271 5.237000000000002 13.244 5.240000000000002 13.217 5.240000000000002 C 13.095 5.240000000000002 12.984 5.192000000000002 12.902000000000001 5.114000000000002 C 12.771 5.004000000000001 12.627 4.8980000000000015 12.475000000000001 4.803000000000002 L 12.459000000000001 4.794000000000001 C 12.123000000000001 4.589000000000001 11.734000000000002 4.405000000000001 11.326 4.262000000000001 L 11.283000000000001 4.249000000000001 C 10.813 4.061000000000002 10.269000000000002 3.9480000000000013 9.700000000000001 3.9420000000000015 L 9.697000000000001 3.9420000000000015 C 9.65 3.9400000000000017 9.594000000000001 3.9380000000000015 9.539000000000001 3.9380000000000015 C 8.706000000000001 3.9380000000000015 7.944000000000002 4.242000000000002 7.358000000000001 4.745000000000002 L 7.362000000000001 4.741000000000002 C 6.816000000000001 5.236000000000002 6.474000000000001 5.948000000000002 6.474000000000001 6.740000000000002 C 6.474000000000001 6.775000000000002 6.475000000000001 6.809000000000002 6.476000000000001 6.843000000000002 L 6.476000000000001 6.838000000000002 L 6.476000000000001 10.503000000000002 L 11.676000000000002 10.503000000000002 L 11.682000000000002 10.503000000000002 C 11.829000000000002 10.503000000000002 11.962000000000002 10.562000000000001 12.059000000000003 10.657000000000002 C 12.158000000000003 10.751000000000001 12.219000000000003 10.884000000000002 12.219000000000003 11.031000000000002 L 12.219000000000003 11.050000000000002 L 12.219000000000003 11.049000000000003 L 12.219000000000003 13.279000000000003 C 12.215000000000003 13.579000000000004 11.973000000000003 13.821000000000003 11.674000000000003 13.825000000000003 L 6.474000000000003 13.825000000000003 L 6.474000000000003 20.285000000000004 L 13.531000000000002 20.285000000000004 L 13.531000000000002 17.199000000000005 C 13.531000000000002 17.197000000000006 13.531000000000002 17.195000000000004 13.531000000000002 17.193000000000005 C 13.531000000000002 17.046000000000006 13.590000000000002 16.913000000000004 13.685000000000002 16.816000000000006 C 13.779000000000002 16.717000000000006 13.912000000000003 16.656000000000006 14.059000000000003 16.656000000000006 L 14.078000000000003 16.656000000000006 L 14.077000000000004 16.656000000000006 L 16.839000000000002 16.656000000000006 L 16.857000000000003 16.656000000000006 C 17.004 16.656000000000006 17.137000000000004 16.717000000000006 17.231 16.816000000000006 C 17.328000000000003 16.913000000000007 17.388 17.048000000000005 17.388 17.196000000000005 L 17.388 17.199000000000005 z" stroke-linecap="round" />
</g>
<g transform="matrix(NaN NaN NaN NaN 0 0)"  >
<g style=""   >
</g>
</g>
</svg>