<svg width="24" height="24" viewBox="0 0 24 24" fill="none" xmlns="http://www.w3.org/2000/svg">
<path d="M18 12C18 12.55 18.45 13 19 13H21C21.55 13 22 12.55 22 12C22 11.45 21.55 11 21 11H19C18.45 11 18 11.45 18 12Z" fill="#26A17B"/>
<path d="M16.59 16.82C16.26 17.26 16.35 17.87 16.79 18.19C17.32 18.58 17.88 19 18.41 19.4C18.85 19.73 19.47 19.64 19.79 19.2C19.79 19.19 19.8 19.19 19.8 19.18C20.13 18.74 20.04 18.12 19.6 17.8C19.07 17.4 18.51 16.98 17.99 16.59C17.55 16.26 16.93 16.36 16.6 16.8C16.6 16.81 16.59 16.82 16.59 16.82Z" fill="#26A17B"/>
<path d="M19.8099 4.80998C19.8099 4.79998 19.7999 4.79998 19.7999 4.78998C19.4699 4.34998 18.8499 4.25998 18.4199 4.58998C17.8899 4.98998 17.3199 5.40998 16.7999 5.80998C16.3599 6.13998 16.2799 6.75998 16.6099 7.18998C16.6099 7.19998 16.6199 7.19998 16.6199 7.20998C16.9499 7.64998 17.5599 7.73998 17.9999 7.40998C18.5299 7.01998 19.0899 6.58998 19.6199 6.18998C20.0499 5.86998 20.1299 5.24998 19.8099 4.80998Z" fill="#26A17B"/>
<path d="M8 9H4C2.9 9 2 9.9 2 11V13C2 14.1 2.9 15 4 15H5V18C5 18.55 5.45 19 6 19C6.55 19 7 18.55 7 18V15H8L13 18V6L8 9Z" fill="#26A17B"/>
<path d="M15.5 12C15.5 10.67 14.92 9.47002 14 8.65002V15.34C14.92 14.53 15.5 13.33 15.5 12Z" fill="#26A17B"/>
</svg>
