<?xml version="1.0" encoding="UTF-8" standalone="no"?>
<svg
   xmlns:dc="http://purl.org/dc/elements/1.1/"
   xmlns:cc="http://creativecommons.org/ns#"
   xmlns:rdf="http://www.w3.org/1999/02/22-rdf-syntax-ns#"
   xmlns:svg="http://www.w3.org/2000/svg"
   xmlns="http://www.w3.org/2000/svg"
   xmlns:sodipodi="http://sodipodi.sourceforge.net/DTD/sodipodi-0.dtd"
   xmlns:inkscape="http://www.inkscape.org/namespaces/inkscape"
   width="18"
   height="18"
   viewBox="0 0 18 18"
   fill="none"
   version="1.1"
   id="svg4"
   sodipodi:docname="btc.svg"
   inkscape:version="0.92.5 (2060ec1f9f, 2020-04-08)">
  <metadata
     id="metadata10">
    <rdf:RDF>
      <cc:Work
         rdf:about="">
        <dc:format>image/svg+xml</dc:format>
        <dc:type
           rdf:resource="http://purl.org/dc/dcmitype/StillImage" />
      </cc:Work>
    </rdf:RDF>
  </metadata>
  <defs
     id="defs8" />
  <sodipodi:namedview
     pagecolor="#ffffff"
     bordercolor="#666666"
     borderopacity="1"
     objecttolerance="10"
     gridtolerance="10"
     guidetolerance="10"
     inkscape:pageopacity="0"
     inkscape:pageshadow="2"
     inkscape:window-width="1920"
     inkscape:window-height="1043"
     id="namedview6"
     showgrid="false"
     inkscape:zoom="18.541911"
     inkscape:cx="0.69173459"
     inkscape:cy="12.137269"
     inkscape:window-x="1920"
     inkscape:window-y="0"
     inkscape:window-maximized="1"
     inkscape:current-layer="svg4" />
  <path
     d="m 17.591678,9.0252367 c 0,4.7635003 -3.8615,8.6250003 -8.6249998,8.6250003 -4.76347,0 -8.62500007,-3.8615 -8.62500007,-8.6250003 0,-4.76347 3.86153007,-8.62499995 8.62500007,-8.62499995 4.7634998,0 8.6249998,3.86152995 8.6249998,8.62499995 z m -4.9264,-1.22871 c 0.1717,-1.14765 -0.7022,-1.76462 -1.8971,-2.17618 l 0.3876,-1.55466 -0.9464,-0.23583 -0.3773998,1.51369 c -0.24879,-0.06201 -0.50434,-0.12047 -0.75825,-0.17842 l 0.38009,-1.52363 -0.9459,-0.23583 -0.38788,1.5541 c -0.20596,-0.04692 -0.40812,-0.09328 -0.60434,-0.14203 l 0.00108,-0.0049 -1.30523,-0.32588 -0.25176,1.01073 c 0,0 0.70221,0.16092 0.68739,0.17086 0.38333,0.09568 0.4526,0.34932 0.44099,0.55037 l -0.44155,1.77108 c 0.02644,0.0068 0.06066,0.01645 0.09839,0.03155 -0.03154,-0.0078 -0.06524,-0.01645 -0.10002,-0.0248 l -0.61891,2.4809603 c -0.04692,0.1165 -0.16579,0.2911 -0.43372,0.2249 0.00942,0.0137 -0.68792,-0.1717 -0.68792,-0.1717 l -0.46985,1.0832 1.23164,0.307 c 0.22912,0.0574 0.45368,0.1175 0.67469,0.1741 l -0.39167,1.5724 0.94534,0.2358 0.38788,-1.5557 c 0.25071,0.0679 0.50213,0.1332 0.75424,0.1957 l -0.38656,1.5484 0.94642,0.2359 0.39167,-1.5695 c 1.6138398,0.3054 2.8274398,0.1822 3.3382398,-1.2773 0.4116,-1.1752 -0.0205,-1.8530303 -0.8696,-2.2950603 0.6183,-0.14252 1.0842,-0.54922 1.2084,-1.38935 z m -2.1624,3.0319103 c -0.2925,1.1752 -2.2712698,0.5399 -2.9128298,0.3806 l 0.51973,-2.0831903 c 0.64152,0.16009 2.6987998,0.47706 2.3930998,1.7025903 z m 0.2928,-3.0488903 c -0.2669,1.06895 -1.9139298,0.52585 -2.4481898,0.39272 l 0.47117,-1.8894 c 0.5343,0.13313 2.2549198,0.38162 1.9770198,1.49668 z"
     id="path2"
     inkscape:connector-curvature="0"
     style="fill:#f7931a" />
</svg>
