<?xml version="1.0" encoding="UTF-8" standalone="no"?>
<!-- Generator: Adobe Illustrator 25.0.1, SVG Export Plug-In . SVG Version: 6.00 Build 0)  -->

<svg
   xmlns:dc="http://purl.org/dc/elements/1.1/"
   xmlns:cc="http://creativecommons.org/ns#"
   xmlns:rdf="http://www.w3.org/1999/02/22-rdf-syntax-ns#"
   xmlns:svg="http://www.w3.org/2000/svg"
   xmlns="http://www.w3.org/2000/svg"
   xmlns:sodipodi="http://sodipodi.sourceforge.net/DTD/sodipodi-0.dtd"
   xmlns:inkscape="http://www.inkscape.org/namespaces/inkscape"
   version="1.0"
   id="Layer_1"
   x="0px"
   y="0px"
   viewBox="0 0 210 210"
   xml:space="preserve"
   sodipodi:docname="ust.svg"
   inkscape:version="0.92.5 (2060ec1f9f, 2020-04-08)"
   width="210"
   height="210"><metadata
   id="metadata21"><rdf:RDF><cc:Work
       rdf:about=""><dc:format>image/svg+xml</dc:format><dc:type
         rdf:resource="http://purl.org/dc/dcmitype/StillImage" /><dc:title></dc:title></cc:Work></rdf:RDF></metadata><defs
   id="defs19" /><sodipodi:namedview
   pagecolor="#ffffff"
   bordercolor="#666666"
   borderopacity="1"
   objecttolerance="10"
   gridtolerance="10"
   guidetolerance="10"
   inkscape:pageopacity="0"
   inkscape:pageshadow="2"
   inkscape:window-width="1860"
   inkscape:window-height="1016"
   id="namedview17"
   showgrid="false"
   inkscape:zoom="1.0924053"
   inkscape:cx="376.75831"
   inkscape:cy="119.52838"
   inkscape:window-x="60"
   inkscape:window-y="27"
   inkscape:window-maximized="1"
   inkscape:current-layer="Layer_1" />
<style
   type="text/css"
   id="style2">
	.st0{fill:#0E3CA5;}
	.st1{fill:#5493F7;}
	.st2{fill:none;}
</style>
<path
   class="st0"
   d="m 94.648431,160.36618 c 5.1,19.4 23.399999,34.2 32.599999,33.6 0.3,0 35,-6.7 54,-39.4 14.8,-25.4 9.7,-49.99999 -10.3,-50.49999 -7.3,0.5 -85.900002,19.29999 -76.299999,56.29999 M 112.14843,14.166184 c -12.699999,0 -25.199999,2.7 -36.700002,7.8 -2,0.8 -3.9,1.8 -5.7,2.8 -1.3,0.7 -2.5,1.4 -3.8,2.1 l 0.3,0.1 c -3.7,2.5 -6.9,5.6 -9.6,9.1 -26,34.4 61.100002,59.400006 107.700002,59.500006 21.4,15.4 27.4,-43.400006 6.5,-59.700006 -16.4,-14.1 -37.2,-21.8 -58.7,-21.7 z"
   id="path4"
   inkscape:connector-curvature="0"
   style="fill:#0e3ca5"
   sodipodi:nodetypes="cccccccccccccc" />
<path
   class="st1"
   d="m 79.448428,34.366184 c -11.8,17.3 -51,29.5 -57.4,27.6 v -0.1 l 0.8,-1.6 c 6.8,-12.6 16.3,-23.6 28,-31.9 2.4,-1.7 4.9,-3.4 7.5,-4.9 4,-2.2 8.5,-3.3 13,-3.4 17.500003,0.3 8.3,14 8.2,14.2"
   id="path6"
   inkscape:connector-curvature="0"
   style="fill:#5493f7" />
<g
   id="g10"
   transform="translate(-78.851572,-200.83382)">
	<path
   class="st1"
   d="m 148.4,364.8 c 0.9,5.7 0,28.1 -1.2,30 -1,0.1 -3.1,0.2 -9.2,-3.2 -11.9,-6.7 -22.2,-15.7 -30.4,-26.7 -6,-8 -10.6,-16.9 -13.8,-26.4 -6.9,-20.7 -6.6,-43.1 1,-63.6 v 0 c 7,9.2 15.1,17.5 22,26.8 6.7,8.8 15.7,23.3 17.5,26.4 11.4,19.2 13.2,31 14.1,36.7"
   id="path8"
   inkscape:connector-curvature="0"
   style="fill:#5493f7" />
</g>
<path
   class="st1"
   d="m 201.74843,108.36619 c 0,11.89999 -2.2,23.69999 -6.6,34.79999 -11.1,12 -86.1,-17.5 -86.8,-17.8 -10.299999,-4.5 -41.500002,-18.19999 -44.300002,-39.8 -4.1,-30.999996 58.600002,-52.599996 86.200002,-53.399996 3.3,0 13.4,0.2 19.2,4.9 20.6,18 32.3,44 32.3,71.300006 m -65.6,76.69999 c 4.5,-15.9 43.7,-32.1 52.3,-33 1.1,-0.1 1.5,0.6 1.1,1.5 -8.9,16.3 -22.3,29.7 -38.5,38.7 -8.2,3.9 -17.2,1 -14.9,-7.2 z"
   id="path12"
   inkscape:connector-curvature="0"
   style="fill:#5493f7" />
<rect
   x="-24.051569"
   y="4.9661865"
   class="st2"
   width="779.20001"
   height="230.2"
   id="rect14"
   style="fill:none" />
</svg>