<?xml version="1.0" encoding="UTF-8" standalone="no" ?>
<!DOCTYPE svg PUBLIC "-//W3C//DTD SVG 1.1//EN" "http://www.w3.org/Graphics/SVG/1.1/DTD/svg11.dtd">
<svg xmlns="http://www.w3.org/2000/svg" xmlns:xlink="http://www.w3.org/1999/xlink" version="1.1" width="1080" height="1080" viewBox="0 0 1080 1080" xml:space="preserve">
<desc>Created with Fabric.js 5.2.4</desc>
<defs>
</defs>
<g transform="matrix(1 0 0 1 540 540)" id="5fae6362-78e8-4998-97b4-91eaa3385081"  >
</g>
<g transform="matrix(1 0 0 1 540 540)" id="2875cc2d-4b31-4211-8952-e5b0c2c98b30"  >
<rect style="stroke: none; stroke-width: 1; stroke-dasharray: none; stroke-linecap: butt; stroke-dashoffset: 0; stroke-linejoin: miter; stroke-miterlimit: 4; fill: rgb(255,255,255); fill-rule: nonzero; opacity: 1; visibility: hidden;" vector-effect="non-scaling-stroke"  x="-540" y="-540" rx="0" ry="0" width="1080" height="1080" />
</g>
<g transform="matrix(0.48 0 0 0.49 509.69 540)"  >
<g style="" vector-effect="non-scaling-stroke"   >
		<g transform="matrix(1 0 0 1 0 0)"  >
<path style="stroke: none; stroke-width: 1; stroke-dasharray: none; stroke-linecap: butt; stroke-dashoffset: 0; stroke-linejoin: miter; stroke-miterlimit: 4; fill: rgb(39,117,202); fill-rule: nonzero; opacity: 1;" vector-effect="non-scaling-stroke"  transform=" translate(-1000, -1000)" d="M 1000 2000 C 1554.17 2000 2000 1554.17 2000 1000 C 2000 445.8299999999999 1554.17 0 1000 0 C 445.8299999999999 0 0 445.83 0 1000 C 0 1554.17 445.83 2000 1000 2000 z" stroke-linecap="round" />
</g>
		<g transform="matrix(1 0 0 1 -4.17 10.42)"  >
<path style="stroke: none; stroke-width: 1; stroke-dasharray: none; stroke-linecap: butt; stroke-dashoffset: 0; stroke-linejoin: miter; stroke-miterlimit: 4; fill: rgb(255,255,255); fill-rule: nonzero; opacity: 1;" vector-effect="non-scaling-stroke"  transform=" translate(-995.84, -1010.42)" d="M 1275 1158.33 C 1275 1012.4999999999999 1187.5 962.4999999999999 1012.5 941.67 C 887.5 925 862.5 891.67 862.5 833.3299999999999 C 862.5 774.9899999999999 904.17 737.4999999999999 987.5 737.4999999999999 C 1062.5 737.4999999999999 1104.17 762.4999999999999 1125 824.9999999999999 C 1129.17 837.4999999999999 1141.67 845.8299999999999 1154.17 845.8299999999999 L 1220.8300000000002 845.8299999999999 C 1237.5000000000002 845.8299999999999 1250.0000000000002 833.3299999999999 1250.0000000000002 816.67 L 1250.0000000000002 812.5 C 1233.3300000000002 720.83 1158.3300000000002 650 1062.5000000000002 641.67 L 1062.5000000000002 541.67 C 1062.5000000000002 525 1050.0000000000002 512.5 1029.1700000000003 508.3299999999999 L 966.6700000000003 508.3299999999999 C 950.0000000000003 508.3299999999999 937.5000000000003 520.8299999999999 933.3300000000003 541.67 L 933.3300000000003 637.5 C 808.3300000000003 654.17 729.1700000000003 737.5 729.1700000000003 841.67 C 729.1700000000003 979.17 812.5000000000003 1033.33 987.5000000000002 1054.17 C 1104.1700000000003 1075 1141.6700000000003 1100 1141.6700000000003 1166.67 C 1141.6700000000003 1233.3400000000001 1083.3300000000004 1279.17 1004.1700000000003 1279.17 C 895.8300000000003 1279.17 858.3300000000003 1233.3300000000002 845.8300000000003 1170.8300000000002 C 841.6700000000003 1154.17 829.1700000000003 1145.8300000000002 816.6700000000003 1145.8300000000002 L 745.8300000000003 1145.8300000000002 C 729.1700000000003 1145.8300000000002 716.6700000000003 1158.3300000000002 716.6700000000003 1175.0000000000002 L 716.6700000000003 1179.1700000000003 C 733.3300000000003 1283.3300000000004 800.0000000000003 1358.3300000000004 937.5000000000003 1379.1700000000003 L 937.5000000000003 1479.1700000000003 C 937.5000000000003 1495.8300000000004 950.0000000000003 1508.3300000000004 970.8300000000004 1512.5000000000002 L 1033.3300000000004 1512.5000000000002 C 1050.0000000000005 1512.5000000000002 1062.5000000000005 1500.0000000000002 1066.6700000000003 1479.1700000000003 L 1066.6700000000003 1379.1700000000003 C 1191.6700000000003 1358.3300000000004 1275.0000000000002 1270.8300000000004 1275.0000000000002 1158.3300000000004 z" stroke-linecap="round" />
</g>
		<g transform="matrix(1 0 0 1 0 12.5)"  >
<path style="stroke: none; stroke-width: 1; stroke-dasharray: none; stroke-linecap: butt; stroke-dashoffset: 0; stroke-linejoin: miter; stroke-miterlimit: 4; fill: rgb(255,255,255); fill-rule: nonzero; opacity: 1;" vector-effect="non-scaling-stroke"  transform=" translate(-1000, -1012.5)" d="M 787.5 1595.83 C 462.5 1479.1699999999998 295.83 1116.6699999999998 416.67 795.8299999999999 C 479.17 620.8299999999999 616.6700000000001 487.49999999999994 787.5 424.99999999999994 C 804.17 416.66999999999996 812.5 404.16999999999996 812.5 383.3299999999999 L 812.5 325 C 812.5 308.33 804.17 295.83 787.5 291.67 C 783.33 291.67 775 291.67 770.83 295.83000000000004 C 375.00000000000006 420.83000000000004 158.33000000000004 841.6700000000001 283.33000000000004 1237.5 C 358.33000000000004 1470.83 537.5 1650 770.83 1725 C 787.5 1733.33 804.1700000000001 1725 808.33 1708.33 C 812.5 1704.1699999999998 812.5 1700 812.5 1691.6699999999998 L 812.5 1633.33 C 812.5 1620.83 800 1604.1699999999998 787.5 1595.83 z M 1229.17 295.83 C 1212.5 287.5 1195.8300000000002 295.83 1191.67 312.5 C 1187.5 316.67 1187.5 320.83 1187.5 329.17 L 1187.5 387.5 C 1187.5 404.17 1200 420.83 1212.5 429.17 C 1537.5 545.83 1704.17 908.33 1583.33 1229.17 C 1520.83 1404.17 1383.33 1537.5 1212.5 1600 C 1195.83 1608.33 1187.5 1620.83 1187.5 1641.67 L 1187.5 1700 C 1187.5 1716.67 1195.83 1729.17 1212.5 1733.33 C 1216.67 1733.33 1225 1733.33 1229.17 1729.1699999999998 C 1625 1604.1699999999998 1841.67 1183.33 1716.67 787.4999999999999 C 1641.67 549.9999999999999 1458.3300000000002 370.82999999999987 1229.17 295.82999999999987 z" stroke-linecap="round" />
</g>
</g>
</g>
<g transform="matrix(0.48 0 0 0.5 827.14 697.43)"  >
<g style="" vector-effect="non-scaling-stroke"   >
		<g transform="matrix(1 0 0 1 0 0)"  >
<path style="stroke: none; stroke-width: 1; stroke-dasharray: none; stroke-linecap: butt; stroke-dashoffset: 0; stroke-linejoin: miter; stroke-miterlimit: 4; fill: rgb(62,91,242); fill-rule: nonzero; opacity: 1;" vector-effect="non-scaling-stroke"  transform=" translate(-512.1, -512.2)" d="M 512.099961 0.399844 C 794.789535 0.399844 1023.900039 229.510348 1023.900039 512.199922 C 1023.900039 794.889496 794.789535 1024 512.099961 1024 C 229.41038700000001 1024 0.299883 794.889496 0.299883 512.199922 C 0.299883 229.51034800000002 229.510348 0.399844 512.099961 0.399844 z" stroke-linecap="round" />
</g>
		<g transform="matrix(1 0 0 1 0.05 0)"  >
<path style="stroke: none; stroke-width: 1; stroke-dasharray: none; stroke-linecap: butt; stroke-dashoffset: 0; stroke-linejoin: miter; stroke-miterlimit: 4; fill: rgb(255,255,255); fill-rule: nonzero; opacity: 1;" vector-effect="non-scaling-stroke"  transform=" translate(-512.15, -512.2)" d="M 512.199922 147.242483 L 512.199922 657.243264 L 736.3123780000001 522.8957439999999 z M 512.199922 877.15736 L 736.3123780000001 555.383053 L 512.199922 690.930105 z M 512.199922 147.242483 L 512.199922 657.243264 L 287.987505 522.895744 z" stroke-linecap="round" />
</g>
		<g transform="matrix(1 0 0 1 -112.01 204.07)"  >
<path style="stroke: none; stroke-width: 1; stroke-dasharray: none; stroke-linecap: butt; stroke-dashoffset: 0; stroke-linejoin: miter; stroke-miterlimit: 4; fill: rgb(255,255,255); fill-rule: nonzero; opacity: 1;" vector-effect="non-scaling-stroke"  transform=" translate(-400.09, -716.27)" d="M 512.199922 690.930105 L 512.199922 877.15736 L 287.987505 555.383053 z" stroke-linecap="round" />
</g>
</g>
</g>
</svg>