<svg width="82" height="84" viewBox="0 0 82 84" fill="none" xmlns="http://www.w3.org/2000/svg">
<path d="M34.4934 65.6535H17.2721C16.1405 65.6535 15.0552 65.2039 14.2551 64.4038C13.4549 63.6036 13.0054 62.5184 13.0054 61.3868V37.9468H12.4187C12.0406 37.947 11.6707 37.8362 11.355 37.628C11.0393 37.4199 10.7917 37.1236 10.6429 36.776C10.494 36.4283 10.4506 36.0447 10.5179 35.6726C10.5852 35.3004 10.7603 34.9563 11.0214 34.6828L32.7387 11.9201C32.9186 11.7304 33.1353 11.5792 33.3756 11.4759C33.6158 11.3726 33.8746 11.3193 34.1361 11.3193C34.3976 11.3193 34.6563 11.3726 34.8966 11.4759C35.1368 11.5792 35.3535 11.7304 35.5334 11.9201L54.0454 31.3335" stroke="#B4AEB2" stroke-width="2" stroke-miterlimit="10"/>
<path d="M19.3413 37.9468H33.9386" stroke="#B4AEB2" stroke-width="2" stroke-miterlimit="10" stroke-linecap="round"/>
<path d="M67.3413 41.4187V68.416C67.3413 69.5476 66.8918 70.6329 66.0917 71.433C65.2915 72.2332 64.2063 72.6827 63.0747 72.6827H38.6107C37.4791 72.6827 36.3938 72.2332 35.5937 71.433C34.7935 70.6329 34.344 69.5476 34.344 68.416V35.6854C34.344 34.5538 34.7935 33.4685 35.5937 32.6684C36.3938 31.8682 37.4791 31.4187 38.6107 31.4187H63.0747" stroke="#B4AEB2" stroke-width="2" stroke-miterlimit="10" stroke-linecap="round"/>
<path d="M62.8082 31.4187L67.1068 31.4827C69.4535 31.4827 71.5175 33.0294 71.5175 35.376L71.4748 37.152C71.4748 38.2836 71.0253 39.3689 70.2252 40.169C69.425 40.9692 68.3398 41.4187 67.2082 41.4187L42.9415 41.1094C42.6109 41.1068 42.2931 40.9815 42.0496 40.7578C41.8062 40.5341 41.6546 40.2279 41.6242 39.8987C40.7922 32.5814 35.1602 31.6854 34.5415 34.4427" stroke="#B4AEB2" stroke-width="2" stroke-miterlimit="10"/>
<path d="M45.3414 68.4427C48.6315 68.4427 51.2987 65.7756 51.2987 62.4854C51.2987 59.1953 48.6315 56.5281 45.3414 56.5281C42.0512 56.5281 39.384 59.1953 39.384 62.4854C39.384 65.7756 42.0512 68.4427 45.3414 68.4427Z" stroke="#B4AEB2" stroke-width="2" stroke-miterlimit="10"/>
<path d="M42.8135 62.8801L44.5841 64.7468L47.8641 60.2241" stroke="#B4AEB2" stroke-width="2" stroke-linecap="round" stroke-linejoin="round"/>
<path d="M48.3599 46.3948H64.0932" stroke="#B4AEB2" stroke-width="2" stroke-linecap="round" stroke-linejoin="round"/>
<path d="M51.208 51.0188H64.0933" stroke="#B4AEB2" stroke-width="2" stroke-linecap="round" stroke-linejoin="round"/>
<path d="M19.7361 65.664V44.176H25.0694V65.664H30.9361V44.176H33.9601" stroke="#B4AEB2" stroke-width="2" stroke-linecap="square" stroke-linejoin="round"/>
<path d="M17.3999 34.5333L34.2906 17.2L48.4079 31.152" stroke="#B4AEB2" stroke-width="2" stroke-linecap="round" stroke-linejoin="round"/>
</svg>
