<svg width="82" height="84" viewBox="0 0 82 84" fill="none" xmlns="http://www.w3.org/2000/svg">
<path d="M60.552 36.2932H13.2667C10.9103 36.2932 9 38.2035 9 40.5599V66.8959C9 69.2523 10.9103 71.1625 13.2667 71.1625H60.552C62.9084 71.1625 64.8187 69.2523 64.8187 66.8959V40.5599C64.8187 38.2035 62.9084 36.2932 60.552 36.2932Z" stroke="#B4AEB2" stroke-width="2" stroke-miterlimit="10"/>
<path d="M60.1999 62.4801C60.1903 63.4717 59.8694 64.4351 59.2825 65.2344C58.6956 66.0336 57.8723 66.6283 56.9291 66.9342C55.9859 67.2402 54.9704 67.242 54.0261 66.9394C53.0817 66.6369 52.2564 66.0452 51.6666 65.2481C51.0807 66.0604 50.2523 66.666 49.3006 66.9779C48.3489 67.2898 47.3228 67.292 46.3698 66.9841C45.4167 66.6763 44.5858 66.0742 43.9965 65.2645C43.4071 64.4547 43.0896 63.479 43.0896 62.4775C43.0896 61.4759 43.4071 60.5002 43.9965 59.6904C44.5858 58.8807 45.4167 58.2786 46.3698 57.9708C47.3228 57.6629 48.3489 57.6651 49.3006 57.977C50.2523 58.2889 51.0807 58.8945 51.6666 59.7068C52.2566 58.9093 53.0825 58.3175 54.0273 58.0151C54.9721 57.7127 55.9881 57.715 56.9316 58.0216C57.8751 58.3282 58.6983 58.9237 59.2848 59.7238C59.8713 60.5239 60.1914 61.4881 60.1999 62.4801V62.4801Z" stroke="#B4AEB2" stroke-width="2" stroke-linecap="round" stroke-linejoin="round"/>
<path d="M14.0933 46.1174H38.9146" stroke="#B4AEB2" stroke-width="2" stroke-linecap="round" stroke-linejoin="round"/>
<path d="M12.5892 36.3626L11.8372 34.1493C11.4214 32.9129 11.5116 31.5622 12.0882 30.3921C12.6648 29.222 13.6808 28.3276 14.9146 27.904L58.4346 13.104C59.6716 12.6865 61.0237 12.7759 62.195 13.3526C63.3664 13.9293 64.2617 14.9463 64.6852 16.1813L72.7386 39.8666C73.1558 41.103 73.0663 42.4543 72.4896 43.6248C71.9128 44.7953 70.8958 45.6896 69.6612 46.112L64.7919 47.7706" stroke="#B4AEB2" stroke-width="2" stroke-miterlimit="10"/>
<path d="M21.1973 36.2932L61.6666 22.4639" stroke="#B4AEB2" stroke-width="2" stroke-linecap="round" stroke-linejoin="round"/>
<path d="M14.0933 50.064H32.6053" stroke="#B4AEB2" stroke-width="2" stroke-linecap="round" stroke-linejoin="round"/>
</svg>
