<svg width="84" height="84" viewBox="0 0 84 84" fill="none" xmlns="http://www.w3.org/2000/svg">
<path d="M47.7904 69.5073C59.8647 69.5073 69.6528 59.7191 69.6528 47.6449C69.6528 35.5706 59.8647 25.7825 47.7904 25.7825C35.7161 25.7825 25.928 35.5706 25.928 47.6449C25.928 59.7191 35.7161 69.5073 47.7904 69.5073Z" stroke="#B4AEB2" stroke-width="2" stroke-miterlimit="10"/>
<path d="M32.6704 32.2C35.0616 34.4008 40.936 35.9408 47.7904 35.9408C54.6448 35.9408 60.4856 34.384 62.9104 32.2" stroke="#B4AEB2" stroke-width="2" stroke-miterlimit="10" stroke-linecap="round"/>
<path d="M32.6704 63.0841C35.0616 60.8833 40.936 59.3433 47.7904 59.3433C54.6448 59.3433 60.4856 60.9001 62.9104 63.0841" stroke="#B4AEB2" stroke-width="2" stroke-miterlimit="10" stroke-linecap="round"/>
<path d="M47.7903 25.7825V69.5017" stroke="#B4AEB2" stroke-width="2" stroke-miterlimit="10" stroke-linecap="round"/>
<path d="M25.9336 47.6448H69.6528" stroke="#B4AEB2" stroke-width="2" stroke-miterlimit="10" stroke-linecap="round"/>
<path d="M47.7904 69.5073C51.6719 69.5073 54.8184 59.7191 54.8184 47.6449C54.8184 35.5706 51.6719 25.7825 47.7904 25.7825C43.909 25.7825 40.7625 35.5706 40.7625 47.6449C40.7625 59.7191 43.909 69.5073 47.7904 69.5073Z" stroke="#B4AEB2" stroke-width="2" stroke-miterlimit="10" stroke-linecap="round"/>
<path d="M55.1432 17.6511C59.5143 18.7249 63.5979 20.7411 67.108 23.5587C70.6182 26.3762 73.47 29.927 75.464 33.9623C77.4579 37.9977 78.5456 42.4201 78.6511 46.92C78.7565 51.4198 77.8771 55.8883 76.0744 60.0127C74.2717 64.137 71.5892 67.8174 68.2149 70.7963C64.8406 73.7751 60.8559 75.9805 56.5399 77.2578C52.2238 78.5351 47.6808 78.8536 43.2287 78.1909C38.7767 77.5283 34.5233 75.9005 30.7664 73.4215" stroke="#B4AEB2" stroke-width="2" stroke-miterlimit="10" stroke-linecap="round"/>
<path d="M34.7143 72.324L23.4807 66.6848L30.3911 77.1848L34.7143 72.324Z" fill="#B4AEB2"/>
<path d="M28.9241 52.6736C41.9602 52.6736 52.5281 42.1057 52.5281 29.0696C52.5281 16.0334 41.9602 5.46558 28.9241 5.46558C15.8879 5.46558 5.32007 16.0334 5.32007 29.0696C5.32007 42.1057 15.8879 52.6736 28.9241 52.6736Z" fill="white"/>
<path d="M28.9241 49.8904C40.4231 49.8904 49.7449 40.5686 49.7449 29.0696C49.7449 17.5706 40.4231 8.24878 28.9241 8.24878C17.4251 8.24878 8.10327 17.5706 8.10327 29.0696C8.10327 40.5686 17.4251 49.8904 28.9241 49.8904Z" fill="white" stroke="#B4AEB2" stroke-width="2" stroke-miterlimit="10" stroke-linecap="round"/>
<path d="M40.4251 27.2824H39.1763V38.7091C39.1763 39.3167 38.9309 39.8994 38.494 40.329C38.0571 40.7586 37.4645 41 36.8466 41H21.1534C20.5355 41 19.9429 40.7586 19.506 40.329C19.0691 39.8994 18.8237 39.3167 18.8237 38.7091V27.2824H17.5749C17.2721 27.2824 16.9758 27.1966 16.7213 27.0352C16.4668 26.8738 16.2651 26.6437 16.1402 26.3725C16.0153 26.1013 15.9726 25.8004 16.0171 25.5059C16.0617 25.2114 16.1916 24.9358 16.3914 24.712L27.8165 14.5269C27.9643 14.3614 28.1463 14.2287 28.3504 14.1379C28.5545 14.047 28.776 14 29 14C29.224 14 29.4455 14.047 29.6496 14.1379C29.8537 14.2287 30.0357 14.3614 30.1835 14.5269L41.6086 24.712C41.8084 24.9358 41.9383 25.2114 41.9829 25.5059C42.0274 25.8004 41.9847 26.1013 41.8598 26.3725C41.7349 26.6437 41.5332 26.8738 41.2787 27.0352C41.0242 27.1966 40.7279 27.2824 40.4251 27.2824V27.2824Z" stroke="#B4AEB2" stroke-width="2" stroke-miterlimit="10" stroke-linecap="round"/>
<path d="M23 40.9759V28.8969C23 28.659 23.0968 28.4309 23.269 28.2627C23.4413 28.0945 23.6749 28 23.9185 28H26.0815C26.3251 28 26.5587 28.0945 26.731 28.2627C26.9032 28.4309 27 28.659 27 28.8969V41" stroke="#B4AEB2" stroke-width="2" stroke-miterlimit="10" stroke-linecap="round"/>
<path d="M31 40.9759V28.8969C31 28.659 31.0968 28.4309 31.269 28.2627C31.4413 28.0945 31.6749 28 31.9185 28H34.0815C34.3251 28 34.5587 28.0945 34.731 28.2627C34.9032 28.4309 35 28.659 35 28.8969V41" stroke="#B4AEB2" stroke-width="2" stroke-miterlimit="10" stroke-linecap="round"/>
<path d="M23 24L28.6051 19.1835C28.747 19.0655 28.9327 19 29.1254 19C29.3182 19 29.5039 19.0655 29.6458 19.1835L35 24" stroke="#B4AEB2" stroke-width="2" stroke-miterlimit="10" stroke-linecap="round"/>
</svg>
