<?xml version="1.0" encoding="UTF-8" standalone="no"?>
<!-- Created with Inkscape (http://www.inkscape.org/) -->

<svg
   xmlns:dc="http://purl.org/dc/elements/1.1/"
   xmlns:cc="http://creativecommons.org/ns#"
   xmlns:rdf="http://www.w3.org/1999/02/22-rdf-syntax-ns#"
   xmlns:svg="http://www.w3.org/2000/svg"
   xmlns="http://www.w3.org/2000/svg"
   xmlns:sodipodi="http://sodipodi.sourceforge.net/DTD/sodipodi-0.dtd"
   xmlns:inkscape="http://www.inkscape.org/namespaces/inkscape"
   version="1.1"
   id="svg2"
   xml:space="preserve"
   width="1800"
   height="1800"
   viewBox="0 0 1800 1800"
   sodipodi:docname="shutterstock_1556952623.svg"
   inkscape:version="0.92.5 (2060ec1f9f, 2020-04-08)"><metadata
     id="metadata8"><rdf:RDF><cc:Work
         rdf:about=""><dc:format>image/svg+xml</dc:format><dc:type
           rdf:resource="http://purl.org/dc/dcmitype/StillImage" /><dc:title></dc:title></cc:Work></rdf:RDF></metadata><defs
     id="defs6" /><sodipodi:namedview
     pagecolor="#ffffff"
     bordercolor="#666666"
     borderopacity="1"
     objecttolerance="10"
     gridtolerance="10"
     guidetolerance="10"
     inkscape:pageopacity="0"
     inkscape:pageshadow="2"
     inkscape:window-width="1920"
     inkscape:window-height="1043"
     id="namedview4"
     showgrid="false"
     inkscape:zoom="0.17699999"
     inkscape:cx="1695.9562"
     inkscape:cy="840.25608"
     inkscape:window-x="1920"
     inkscape:window-y="0"
     inkscape:window-maximized="1"
     inkscape:current-layer="g10" /><g
     id="g10"
     inkscape:groupmode="layer"
     inkscape:label="ink_ext_XXXXXX"
     transform="matrix(1.3333333,0,0,-1.3333333,0,1800)"><g
       id="g12"
       transform="matrix(0.1,0,0,0.1,-327.50849,-325.78815)"><path
         d="m 8926.2,7942.6 v 0 c 0.09,0 0.17,-0.1 0.26,-0.1 30.91,-22.6 62.25,-44.3 94.05,-65.1 1.1,-0.7 2.18,-1.5 3.28,-2.2 7.86,-5.1 15.76,-10.1 23.66,-15.1 4.52,-2.9 9.03,-5.8 13.56,-8.6 6.75,-4.2 13.52,-8.4 20.3,-12.5 6.01,-3.6 12.04,-7.2 18.08,-10.8 5.88,-3.5 11.75,-7 17.66,-10.4 7.62,-4.4 15.29,-8.8 22.96,-13.1 4.63,-2.6 9.24,-5.2 13.88,-7.8 12.53,-6.9 25.12,-13.7 37.79,-20.3 3.77,-2 7.56,-4 11.33,-6 3.4,-1.7 6.8,-3.4 10.21,-5.2 0.3,-0.1 0.6,-0.3 0.9,-0.4 230.05,-118.3 483.79,-185.5 765.36,-187.8 6.86,-0.1 13.69,-0.1 20.52,-0.1 6.8,0 13.7,0 20.5,0.1 281.6,2.3 535.3,69.5 765.4,187.8 2.4,1.2 4.9,2.5 7.4,3.7 1.2,0.7 2.4,1.3 3.7,1.9 3.8,2 7.5,4 11.3,6 12.7,6.6 25.3,13.4 37.9,20.4 4.5,2.5 9,5 13.6,7.6 7.8,4.4 15.5,8.8 23.3,13.3 5.8,3.3 11.6,6.7 17.3,10.2 6.2,3.6 12.3,7.3 18.4,11 6.7,4.1 13.4,8.2 20.1,12.3 4.6,2.9 9.2,5.8 13.8,8.8 7.9,4.9 15.7,9.9 23.5,15 1.1,0.7 2.3,1.5 3.4,2.3 153.2,100.3 295.9,221.3 430.6,356.6 855.5,859.2 1148.9,2346.3 678.3,3431.3 -369.4,851.4 -1163.8,1362.7 -2088.5,1347.9 -924.71,14.8 -1719.14,-496.5 -2088.48,-1347.9 -470.63,-1085 -177.22,-2572.1 678.32,-3431.3 106.69,-107.2 218.39,-205.4 336.36,-291.5"
         style="fill:#8f8f8f;fill-opacity:1;fill-rule:nonzero;stroke:none"
         id="path14"
         inkscape:connector-curvature="0" /><g
         id="g16"
         transform="scale(1.01703)"><path
           d="m 4955.89,6546.82 c -212.26,314.15 -394.54,650.03 -541.79,998.2 -306.32,724.17 -461.64,1493.86 -461.64,2287.55 0,793.73 155.32,1563.33 461.64,2287.63 147.25,348.1 329.53,683.9 541.79,998.1 210.35,311.4 451.92,604.2 718.04,870.3 266.12,266.1 558.92,507.7 870.26,718 314.2,212.3 650.02,394.6 998.15,541.8 724.23,306.3 1493.89,461.6 2287.6,461.6 793.76,0 1563.36,-155.3 2287.66,-461.6 348,-147.2 683.9,-329.5 998.1,-541.8 311.4,-210.3 604.2,-451.9 870.2,-718 266.1,-266.1 507.7,-558.9 718.1,-870.3 212.2,-314.2 394.5,-650 541.8,-998.1 306.3,-724.3 461.6,-1493.9 461.6,-2287.63 0,-793.69 -155.3,-1563.38 -461.6,-2287.55 -147.3,-348.17 -329.6,-684.05 -541.8,-998.2 -196.8,-291.24 -420.9,-566.36 -666.9,-818.47 l -51.4,72.18 c -154.5,372.16 -437.7,676.48 -797.8,857.5 l -1563.7,785.82 c -209.5,-192.53 -422.3,-344.54 -646.7,-462.24 -3.9,-1.96 -7.6,-3.93 -11.3,-5.89 l -1.7,-0.89 -2.3,-1.18 -2.2,-1.08 c -4.6,-2.36 -9.1,-4.72 -13.7,-6.98 -338,-173.35 -703.2,-263.02 -1085.41,-266.47 -8.46,-0.09 -16.82,-0.09 -25.18,-0.19 h -0.68 -2.46 -2.5 -0.63 c -8.38,0.1 -16.76,0.1 -25.18,0.19 -382.39,3.45 -747.71,93.12 -1085.88,266.66 -4.05,2.07 -8.09,4.14 -12.15,6.2 l -3.09,1.57 -3.08,1.58 -2,1.08 c -3.56,1.86 -7.13,3.73 -10.68,5.6 -224.41,117.6 -437.12,269.61 -646.41,462.04 L 6477.2,6658.03 c -360.1,-181.02 -643.23,-485.34 -797.84,-857.5 l -53.5,-75.32 c -247.18,252.99 -472.37,529.09 -669.97,821.61 z M 12085.6,3769.51 c 24.8,9.25 49.5,18.59 74.1,28.12 3.3,1.28 6.6,2.56 9.9,3.74 24.8,9.63 49.3,19.37 74,29.3 2.5,0.98 4.9,1.97 7.4,2.95 137.2,55.46 272.1,115.43 404.4,179.84 1.7,0.79 3.3,1.67 5,2.46 24.5,11.9 48.8,23.99 73,36.18 2.6,1.28 5.2,2.56 7.8,3.93 23.9,12 47.7,24.29 71.4,36.58 2.2,1.18 4.3,2.26 6.4,3.34 130.7,68.24 258.7,140.71 383.9,217.4 0.5,0.3 1,0.59 1.4,0.88 24.1,14.75 48.1,29.7 72.1,44.84 1.7,1.08 3.5,2.27 5.2,3.34 23.1,14.56 46.1,29.31 69.1,44.25 1.5,1.08 3.2,2.07 4.8,3.15 147.5,96.06 290.8,198.03 429.7,305.5 0.8,0.69 1.7,1.37 2.6,2.06 22.2,17.21 44.4,34.61 66.4,52.11 1,0.79 2.1,1.58 3,2.46 137.8,109.73 270.9,224.97 399.2,345.42 0.2,0.2 0.4,0.4 0.6,0.59 21,19.67 41.8,39.53 62.5,59.49 0.8,0.69 1.4,1.37 2.1,2.06 1218.2,1176.18 1975.8,2826.08 1975.8,4653.07 0,3571.83 -2895.6,6467.43 -6467.46,6467.43 -3571.86,0 -6467.44,-2895.6 -6467.44,-6467.43 0,-1797.3 733.22,-3423.31 1916.75,-4595.35 v 0 c 0.05,-0.1 0.11,-0.1 0.16,-0.2 20.68,-20.45 41.5,-40.8 62.46,-61.06 0.28,-0.19 0.57,-0.49 0.84,-0.78 126.85,-122.22 258.68,-239.33 395.17,-351.03 0,0 0.02,0 0.03,0 22.4,-18.29 44.92,-36.48 67.55,-54.47 0.76,-0.59 1.52,-1.18 2.27,-1.87 22.54,-17.89 45.19,-35.69 67.96,-53.29 0.19,-0.1 0.39,-0.3 0.6,-0.4 116.27,-89.96 235.67,-176.09 358.06,-258.1 0.2,-0.1 0.41,-0.2 0.62,-0.39 23.71,-15.83 47.53,-31.57 71.46,-47.2 1.46,-0.88 2.9,-1.86 4.37,-2.75 23.18,-15.14 46.45,-29.99 69.82,-44.74 1.38,-0.88 2.74,-1.77 4.11,-2.65 124.24,-78.37 251.33,-152.61 381.08,-222.52 0.28,-0.19 0.54,-0.29 0.81,-0.49 25.01,-13.47 50.13,-26.74 75.34,-39.92 2.13,-1.08 4.27,-2.16 6.39,-3.34 23.77,-12.29 47.61,-24.58 71.55,-36.68 2.44,-1.18 4.9,-2.46 7.35,-3.63 24.48,-12.39 49.05,-24.49 73.69,-36.58 1.4,-0.59 2.81,-1.28 4.2,-1.97 132.21,-64.3 266.96,-124.28 404.01,-179.64 2.53,-0.98 5.06,-1.96 7.58,-3.05 24.55,-9.83 49.17,-19.56 73.87,-29.2 3.23,-1.18 6.47,-2.46 9.7,-3.74 24.65,-9.53 49.37,-18.87 74.16,-28.12 2.67,-0.98 5.34,-1.96 8.01,-2.95 26.97,-10.02 53.99,-19.86 81.11,-29.49 0.13,0 0.26,-0.1 0.38,-0.1 0.07,-0.1 0.12,-0.1 0.17,-0.1 18.48,-6.59 37,-12.98 55.56,-19.37 4.08,-1.48 8.15,-2.85 12.23,-4.23 17.59,-6.1 35.22,-12 52.88,-17.9 4.77,-1.57 9.55,-3.14 14.32,-4.72 17.72,-5.89 35.46,-11.69 53.25,-17.4 3.84,-1.18 7.7,-2.46 11.54,-3.64 80.09,-25.56 160.83,-49.55 242.24,-71.97 4.11,-1.18 8.21,-2.36 12.32,-3.44 17.13,-4.72 34.31,-9.25 51.51,-13.87 6.34,-1.67 12.69,-3.34 19.04,-5.01 16.52,-4.33 33.06,-8.55 49.62,-12.78 6.86,-1.67 13.71,-3.44 20.56,-5.11 16.54,-4.14 33.1,-8.26 49.68,-12.2 6.24,-1.57 12.48,-2.95 18.72,-4.42 57.36,-13.67 115.01,-26.55 172.95,-38.74 4.88,-0.98 9.74,-2.07 14.63,-3.05 15.5,-3.15 31.05,-6.29 46.6,-9.34 8.88,-1.77 17.75,-3.54 26.65,-5.31 14.58,-2.85 29.18,-5.6 43.79,-8.36 9.94,-1.87 19.89,-3.63 29.85,-5.51 14.16,-2.55 28.33,-5.11 42.52,-7.57 10.49,-1.86 20.99,-3.63 31.5,-5.5 13.87,-2.36 27.75,-4.72 41.65,-6.98 11.1,-1.77 22.23,-3.54 33.36,-5.31 13.45,-2.07 26.87,-4.33 40.35,-6.3 19.26,-2.95 38.56,-5.7 57.87,-8.45 15.65,-2.26 31.35,-4.42 47.04,-6.49 13.12,-1.77 26.23,-3.64 39.38,-5.31 12.11,-1.57 24.25,-3.05 36.39,-4.52 13.13,-1.58 26.27,-3.25 39.44,-4.72 12,-1.48 24.03,-2.76 36.04,-4.13 13.5,-1.48 27.02,-2.95 40.54,-4.33 11.67,-1.28 23.34,-2.46 35.03,-3.64 14.43,-1.47 28.88,-2.75 43.35,-4.13 10.81,-0.98 21.61,-2.06 32.43,-2.95 17.76,-1.57 35.54,-3.05 53.34,-4.42 7.56,-0.59 15.1,-1.28 22.66,-1.87 24.93,-1.87 49.9,-3.54 74.91,-5.21 8.63,-0.49 17.28,-0.98 25.92,-1.47 17.09,-1.09 34.2,-2.07 51.34,-2.95 10.09,-0.6 20.19,-0.99 30.3,-1.48 15.84,-0.79 31.68,-1.47 47.55,-2.16 10.39,-0.4 20.78,-0.79 31.17,-1.18 15.96,-0.5 31.94,-0.99 47.93,-1.48 10.05,-0.29 20.1,-0.59 30.15,-0.79 17.31,-0.39 34.65,-0.78 51.99,-0.98 8.63,-0.2 17.27,-0.39 25.91,-0.49 25.48,-0.29 50.99,-0.49 76.54,-0.49 0.42,0 0.84,0 1.27,0 0.43,0 0.85,0 1.27,0 25.55,0 51.11,0.2 76.58,0.49 8.65,0.1 17.2,0.29 25.86,0.49 17.3,0.2 34.71,0.59 52.01,0.98 10.03,0.2 20.04,0.5 30.14,0.79 16,0.49 32,0.98 47.9,1.48 10.5,0.39 20.8,0.78 31.2,1.18 15.8,0.69 31.8,1.37 47.6,2.16 10,0.49 20.1,0.88 30.3,1.48 17.1,0.88 34.2,1.86 51.3,2.95 8.7,0.49 17.3,0.98 25.9,1.47 25,1.67 50,3.34 74.9,5.21 7.6,0.59 15.1,1.28 22.7,1.87 17.8,1.37 35.6,2.85 53.3,4.42 10.8,0.89 21.6,1.97 32.4,2.95 14.5,1.38 28.9,2.66 43.4,4.13 11.7,1.18 23.4,2.36 35,3.64 13.6,1.38 27,2.85 40.5,4.33 12.1,1.37 24.1,2.65 36.1,4.13 13.2,1.47 26.4,3.14 39.4,4.72 12.2,1.47 24.3,2.95 36.4,4.52 13.2,1.67 26.3,3.54 39.4,5.31 15.7,2.07 31.4,4.23 47,6.49 19.4,2.75 38.7,5.5 58,8.45 13.4,1.97 26.8,4.23 40.3,6.3 11.1,1.77 22.2,3.54 33.3,5.31 14,2.26 27.8,4.62 41.7,6.98 10.5,1.87 21,3.64 31.5,5.5 14.2,2.46 28.4,5.02 42.5,7.57 10,1.88 19.9,3.64 29.8,5.51 14.7,2.76 29.3,5.51 43.9,8.36 8.8,1.77 17.7,3.54 26.5,5.31 15.7,3.05 31.2,6.19 46.7,9.34 4.8,0.98 9.7,2.07 14.6,3.05 57.9,12.09 115.6,25.07 173,38.74 6.2,1.47 12.4,2.85 18.7,4.42 16.6,3.94 33.1,8.06 49.7,12.2 6.8,1.67 13.7,3.44 20.5,5.11 16.6,4.23 33.1,8.45 49.7,12.78 6.3,1.67 12.7,3.34 18.9,5.01 17.3,4.62 34.5,9.15 51.7,13.87 4,1.08 8.1,2.26 12.2,3.44 81.4,22.42 162.2,46.41 242.2,71.97 3.9,1.18 7.8,2.46 11.6,3.64 17.8,5.71 35.5,11.51 53.3,17.4 4.8,1.58 9.5,3.15 14.3,4.72 17.6,5.9 35.3,11.8 52.9,17.9 4,1.38 8.1,2.75 12.2,4.23 18.6,6.39 37,12.78 55.5,19.37 0.1,0 0.1,0 0.2,0.1 0.1,0 0.2,0.1 0.4,0.1 27.2,9.63 54.2,19.47 81.1,29.49 2.8,0.99 5.5,2.07 8.2,3.05"
           style="fill:#8f8f8f;fill-opacity:1;fill-rule:nonzero;stroke:none"
           id="path18"
           inkscape:connector-curvature="0" /></g></g></g></svg>