<svg width="124" height="106" viewBox="0 0 124 106" fill="none" xmlns="http://www.w3.org/2000/svg">
<g id="&#208;&#156;&#208;&#190;&#208;&#189;&#209;&#130;&#208;&#176;&#208;&#182;&#208;&#189;&#208;&#176;&#209;&#143; &#208;&#190;&#208;&#177;&#208;&#187;&#208;&#176;&#209;&#129;&#209;&#130;&#209;&#140; 1 1">
<path id="Vector" d="M62.32 82.41C61.32 82.41 60.32 82.41 59.32 82.41C49.81 82 40.47 86 40.47 62.92C40.47 49.62 44.36 36.39 49.03 26.57" stroke="#0070C0" stroke-width="2" stroke-miterlimit="10" stroke-linecap="round"/>
<path id="Vector_2" d="M52.38 20.32C54.81 16.32 57.24 13.32 59.31 11.84C66.51 17.11 78.15 39.9 78.15 62.92C78.15 77.99 74.15 81.5 68.73 82.26" stroke="#0070C0" stroke-width="2" stroke-miterlimit="10" stroke-linecap="round"/>
<path id="Vector_3" d="M42.51 43.28C42.51 43.28 32.51 53.28 29.75 56.62C26.99 59.96 21.17 66.31 23.62 72C26.07 77.69 41.85 75.84 41.85 75.84" stroke="#0070C0" stroke-width="2" stroke-miterlimit="10" stroke-linecap="round"/>
<path id="Vector_4" d="M75.86 43.4C75.86 43.4 86.13 53.32 88.86 56.62C91.59 59.92 97.46 66.31 95 72C92.54 77.69 76.77 75.84 76.77 75.84" stroke="#0070C0" stroke-width="2" stroke-miterlimit="10" stroke-linecap="round"/>
<path id="Vector_5" d="M63.72 34.4C63.7229 35.3614 63.4157 36.298 62.8441 37.071C62.2725 37.844 61.4669 38.412 60.5469 38.691C59.6269 38.9699 58.6414 38.9447 57.7368 38.6193C56.8322 38.2938 56.0567 37.6854 55.5252 36.8843C54.9937 36.0832 54.7347 35.1321 54.7865 34.1722C54.8384 33.2122 55.1983 32.2945 55.813 31.5553C56.4276 30.8161 57.2642 30.2948 58.1986 30.0686C59.133 29.8425 60.1154 29.9236 61 30.3" stroke="#0070C0" stroke-width="2" stroke-miterlimit="10" stroke-linecap="round"/>
<path id="Vector_6" d="M51.37 85.46V93.07" stroke="#0070C0" stroke-width="2" stroke-miterlimit="10" stroke-linecap="round"/>
<path id="Vector_7" d="M67.26 85.46V93.07" stroke="#0070C0" stroke-width="2" stroke-miterlimit="10" stroke-linecap="round"/>
<path id="Vector_8" d="M59.31 85.96V99.84" stroke="#0070C0" stroke-width="2" stroke-miterlimit="10" stroke-linecap="round"/>
<path id="Vector_9" d="M48.07 105C47.5569 103.379 46.6291 101.919 45.3785 100.767C44.1279 99.6146 42.5979 98.809 40.94 98.43C39.9631 96.2556 38.4215 94.3826 36.4754 93.006C34.5293 91.6294 32.2498 90.7994 29.8742 90.6023C27.4986 90.4053 25.1135 90.8484 22.9672 91.8856C20.8209 92.9228 18.9918 94.5162 17.67 96.5C16.1295 95.3216 14.2893 94.599 12.3586 94.414C10.4279 94.2291 8.48404 94.5893 6.74781 95.4538C5.01158 96.3182 3.55258 97.6523 2.53655 99.3044C1.52052 100.957 0.988185 102.86 1.00001 104.8C1.00001 104.87 1.00001 104.93 1.00001 105" stroke="#0070C0" stroke-width="2" stroke-miterlimit="10" stroke-linecap="round"/>
<path id="Vector_10" d="M123 94.75C122.485 93.1296 121.557 91.6714 120.306 90.5193C119.056 89.3671 117.527 88.5609 115.87 88.18C114.893 86.0056 113.351 84.1326 111.405 82.756C109.459 81.3794 107.18 80.5494 104.804 80.3523C102.429 80.1553 100.044 80.5984 97.8972 81.6356C95.7509 82.6728 93.9218 84.2662 92.6 86.25C91.0584 85.0756 89.2188 84.3563 87.2895 84.1734C85.3602 83.9905 83.4183 84.3514 81.6835 85.2151C79.9487 86.0789 78.4903 87.411 77.4735 89.0608C76.4567 90.7106 75.922 92.6121 75.93 94.55C75.93 94.62 75.93 94.69 75.93 94.75" stroke="#0070C0" stroke-width="2" stroke-miterlimit="10" stroke-linecap="round"/>
<path id="Vector_11" d="M45.17 0.309999L46.23 2.26C46.2861 2.36077 46.3693 2.44388 46.47 2.5L48.41 3.56C48.5036 3.6133 48.5813 3.69041 48.6354 3.7835C48.6895 3.87659 48.718 3.98233 48.718 4.09C48.718 4.19766 48.6895 4.30341 48.6354 4.3965C48.5813 4.48959 48.5036 4.5667 48.41 4.62L46.47 5.68C46.3693 5.73612 46.2861 5.81923 46.23 5.92L45.17 7.92C45.1181 8.01378 45.0421 8.09195 44.9498 8.14638C44.8574 8.20082 44.7522 8.22953 44.645 8.22953C44.5379 8.22953 44.4326 8.20082 44.3403 8.14638C44.248 8.09195 44.1719 8.01378 44.12 7.92L43.06 5.92C43.0013 5.82126 42.9188 5.73877 42.82 5.68L40.88 4.62C40.7838 4.56892 40.7033 4.49261 40.6471 4.39923C40.5909 4.30586 40.5613 4.19896 40.5613 4.09C40.5613 3.98104 40.5909 3.87414 40.6471 3.78077C40.7033 3.68739 40.7838 3.61107 40.88 3.56L42.82 2.5C42.9188 2.44123 43.0013 2.35873 43.06 2.26L44.12 0.309999C44.1719 0.216219 44.248 0.138048 44.3403 0.0836151C44.4326 0.0291819 44.5379 0.000473022 44.645 0.000473022C44.7522 0.000473022 44.8574 0.0291819 44.9498 0.0836151C45.0421 0.138048 45.1181 0.216219 45.17 0.309999Z" fill="#0070C0"/>
<path id="Vector_12" d="M30.66 14.61L31.31 15.79C31.3368 15.8554 31.3866 15.9087 31.45 15.94L32.63 16.58C32.6861 16.6125 32.7326 16.6592 32.7649 16.7154C32.7973 16.7715 32.8143 16.8352 32.8143 16.9C32.8143 16.9648 32.7973 17.0285 32.7649 17.0846C32.7326 17.1408 32.6861 17.1875 32.63 17.22L31.45 17.87C31.3897 17.9007 31.3407 17.9497 31.31 18.01L30.66 19.19C30.6314 19.2492 30.5866 19.2991 30.5309 19.334C30.4752 19.3689 30.4108 19.3874 30.345 19.3874C30.2793 19.3874 30.2148 19.3689 30.1591 19.334C30.1034 19.2991 30.0587 19.2492 30.03 19.19L29.39 18C29.353 17.9411 29.3013 17.8928 29.24 17.86L28.07 17.21C28.0113 17.1797 27.962 17.1338 27.9276 17.0774C27.8931 17.0209 27.8749 16.9561 27.8749 16.89C27.8749 16.8239 27.8931 16.7591 27.9276 16.7026C27.962 16.6462 28.0113 16.6003 28.07 16.57L29.24 15.93C29.3039 15.8962 29.3562 15.8439 29.39 15.78L30 14.61C30.028 14.5458 30.0742 14.4911 30.1328 14.4527C30.1914 14.4143 30.2599 14.3939 30.33 14.3939C30.4001 14.3939 30.4686 14.4143 30.5273 14.4527C30.5859 14.4911 30.632 14.5458 30.66 14.61Z" fill="#0070C0"/>
<path id="Vector_13" d="M38.57 32.6L39.06 33.49C39.0826 33.5326 39.1174 33.5675 39.16 33.59L40.05 34.08C40.0941 34.1027 40.1311 34.1371 40.1569 34.1795C40.1827 34.2218 40.1963 34.2704 40.1963 34.32C40.1963 34.3696 40.1827 34.4182 40.1569 34.4605C40.1311 34.5029 40.0941 34.5373 40.05 34.56L39.16 35.04C39.1171 35.0666 39.0824 35.1047 39.06 35.15L38.57 36.04C38.5465 36.0816 38.5123 36.1162 38.4711 36.1403C38.4298 36.1644 38.3828 36.1771 38.335 36.1771C38.2872 36.1771 38.2403 36.1644 38.199 36.1403C38.1577 36.1162 38.1236 36.0816 38.1 36.04L37.61 35.15C37.5876 35.1047 37.553 35.0666 37.51 35.04L36.62 34.56C36.5786 34.5351 36.5443 34.4999 36.5205 34.4579C36.4968 34.4158 36.4843 34.3683 36.4843 34.32C36.4843 34.2717 36.4968 34.2242 36.5205 34.1821C36.5443 34.1401 36.5786 34.1049 36.62 34.08L37.51 33.59C37.5526 33.5675 37.5875 33.5326 37.61 33.49L38.1 32.6C38.1236 32.5584 38.1577 32.5238 38.199 32.4997C38.2403 32.4756 38.2872 32.463 38.335 32.463C38.3828 32.463 38.4298 32.4756 38.4711 32.4997C38.5123 32.5238 38.5465 32.5584 38.57 32.6Z" fill="#0070C0"/>
<path id="Vector_14" d="M82.79 8.31L83.27 9.19C83.296 9.236 83.334 9.27404 83.38 9.3L84.26 9.78C84.3041 9.80272 84.3411 9.83713 84.3669 9.87946C84.3927 9.9218 84.4063 9.97042 84.4063 10.02C84.4063 10.0696 84.3927 10.1182 84.3669 10.1605C84.3411 10.2029 84.3041 10.2373 84.26 10.26L83.38 10.75C83.334 10.776 83.296 10.814 83.27 10.86L82.79 11.74C82.7673 11.7841 82.7329 11.821 82.6906 11.8468C82.6482 11.8727 82.5996 11.8863 82.55 11.8863C82.5005 11.8863 82.4518 11.8727 82.4095 11.8468C82.3672 11.821 82.3327 11.7841 82.31 11.74L81.83 10.86C81.82 10.8352 81.8051 10.8128 81.7862 10.7939C81.7673 10.775 81.7448 10.7601 81.72 10.75L80.84 10.26C80.796 10.2373 80.759 10.2029 80.7332 10.1605C80.7074 10.1182 80.6937 10.0696 80.6937 10.02C80.6937 9.97042 80.7074 9.9218 80.7332 9.87946C80.759 9.83713 80.796 9.80272 80.84 9.78L81.72 9.3C81.7448 9.28995 81.7673 9.27503 81.7862 9.25614C81.8051 9.23724 81.82 9.21476 81.83 9.19L82.31 8.31C82.3327 8.26593 82.3672 8.22896 82.4095 8.20316C82.4518 8.17735 82.5005 8.1637 82.55 8.1637C82.5996 8.1637 82.6482 8.17735 82.6906 8.20316C82.7329 8.22896 82.7673 8.26593 82.79 8.31Z" fill="#0070C0"/>
<path id="Vector_15" d="M77.2 18.92L77.84 20.1C77.8707 20.1603 77.9197 20.2093 77.98 20.24L79.16 20.89C79.216 20.9225 79.2625 20.9692 79.2949 21.0254C79.3272 21.0815 79.3442 21.1452 79.3442 21.21C79.3442 21.2748 79.3272 21.3385 79.2949 21.3946C79.2625 21.4508 79.216 21.4975 79.16 21.53L78 22.17C77.9411 22.207 77.8928 22.2587 77.86 22.32L77.2 23.5C77.1675 23.5561 77.1208 23.6026 77.0646 23.6349C77.0085 23.6672 76.9448 23.6843 76.88 23.6843C76.8152 23.6843 76.7515 23.6672 76.6954 23.6349C76.6392 23.6026 76.5925 23.5561 76.56 23.5L75.92 22.32C75.8804 22.2606 75.8294 22.2096 75.77 22.17L74.6 21.53C74.5412 21.4997 74.4919 21.4538 74.4575 21.3974C74.4231 21.3409 74.4049 21.2761 74.4049 21.21C74.4049 21.1439 74.4231 21.0791 74.4575 21.0226C74.4919 20.9662 74.5412 20.9203 74.6 20.89L75.77 20.24C75.8313 20.2072 75.883 20.1589 75.92 20.1L76.56 18.92C76.5925 18.864 76.6392 18.8174 76.6954 18.7851C76.7515 18.7528 76.8152 18.7357 76.88 18.7357C76.9448 18.7357 77.0085 18.7528 77.0646 18.7851C77.1208 18.8174 77.1675 18.864 77.2 18.92Z" fill="#0070C0"/>
</g>
</svg>
