<svg width="18" height="18" viewBox="0 0 18 18" fill="none" xmlns="http://www.w3.org/2000/svg">
<path d="M18 9.375C18 14.1385 14.1385 18 9.375 18C4.61153 18 0.75 14.1385 0.75 9.375C0.75 4.61153 4.61153 0.75 9.375 0.75C14.1385 0.75 18 4.61153 18 9.375ZM13.0736 8.14629C13.2453 6.99864 12.3714 6.38167 11.1765 5.97011L11.5641 4.41545L10.6177 4.17962L10.2403 5.69331C9.99151 5.6313 9.73596 5.57284 9.48205 5.51489L9.86214 3.99126L8.91624 3.75543L8.52836 5.30953C8.3224 5.26261 8.12024 5.21625 7.92402 5.1675L7.9251 5.16263L6.61987 4.83675L6.36811 5.84748C6.36811 5.84748 7.07032 6.0084 7.0555 6.01834C7.43883 6.11402 7.5081 6.36766 7.49649 6.56871L7.05494 8.33979C7.08138 8.34654 7.1156 8.35624 7.15333 8.37134C7.12179 8.36351 7.08809 8.35489 7.05331 8.34654L6.4344 10.8275C6.38748 10.944 6.26861 11.1186 6.00068 11.0524C6.0101 11.0661 5.31276 10.8807 5.31276 10.8807L4.84291 11.9639L6.07455 12.2709C6.30367 12.3283 6.52823 12.3884 6.74924 12.445L6.35757 14.0174L7.30291 14.2532L7.69079 12.6975C7.9415 12.7654 8.19292 12.8307 8.44503 12.8932L8.05847 14.4416L9.00489 14.6775L9.39656 13.108C11.0104 13.4134 12.224 13.2902 12.7348 11.8307C13.1464 10.6555 12.7143 9.97767 11.8652 9.53564C12.4835 9.39312 12.9494 8.98642 13.0736 8.14629ZM10.9112 11.1782C10.6187 12.3534 8.63993 11.7181 7.99837 11.5588L8.5181 9.47561C9.15962 9.6357 11.2169 9.95267 10.9112 11.1782ZM11.204 8.12931C10.9371 9.19826 9.29007 8.65516 8.75581 8.52203L9.22698 6.63263C9.76128 6.76576 11.4819 7.01425 11.204 8.12931Z" fill="#F7931A"/>
</svg>
