<svg width="56" height="32" viewBox="0 0 56 32" fill="none" xmlns="http://www.w3.org/2000/svg">
<path fill-rule="evenodd" clip-rule="evenodd" d="M0 2.71795C0 1.21687 1.32023 0 2.94728 0H52.3254C53.9532 0 55.2727 1.21658 55.2727 2.71795V29.2821C55.2727 30.7831 53.9525 32 52.3254 32H2.94728C1.31954 32 0 30.7834 0 29.2821V2.71795ZM13.2051 17.5932C13.2051 17.5932 13.1849 11.5123 13.2073 8.71241C13.5061 7.07579 15.3234 5.85082 17.1033 6.00029H22.0639C22.0581 11.5675 22.0588 17.1348 22.0489 22.7019C21.9939 24.349 20.4361 25.791 18.6456 25.8322C16.8329 25.8371 15.02 25.8329 13.2072 25.8343V18.8797C14.5533 19.1072 15.9064 19.3521 17.2836 19.278C18.6045 19.2148 20.1974 19.0283 20.9539 17.8892C21.5137 17.0477 21.2628 16.0437 21.3093 15.1131L21.2922 12.7332C20.2713 12.7384 19.2504 12.7437 18.2295 12.749C18.2148 14.1334 18.2599 15.5209 18.2055 16.9034C18.0878 17.8229 17.0206 18.2951 16.104 18.2102C15.0439 18.2012 14.1003 17.8364 13.2051 17.5932ZM23.2035 13.7618C23.2149 12.1964 23.1802 10.6293 23.2221 9.06495C23.3462 7.57412 24.7052 6.31932 26.3029 6.13728C27.9095 6.0885 29.5213 6.1296 31.13 6.11603H32.0661C32.0619 11.7099 32.0744 17.3042 32.0598 22.8978C31.9439 24.6356 30.1253 26.0947 28.2406 25.9296H23.2035V18.3174C24.5169 19.2737 26.291 19.4174 27.9096 19.3982C28.9724 19.3727 30.0319 19.2271 31.0567 18.9663C31.0493 18.5063 31.0419 18.0464 31.0344 17.5864C29.5871 18.2287 27.7931 18.6826 26.2831 17.9517C25.0836 17.3187 24.9427 15.7253 25.5839 14.6999C26.3759 13.6361 27.9757 13.6045 29.2211 13.8294C29.8323 13.8796 30.6532 14.3837 31.0567 14.3723V13.1088C28.9677 12.6219 26.7294 12.4644 24.6366 13.0157C24.1163 13.1797 23.6069 13.4118 23.2035 13.7618H23.2035ZM33.0833 19.1036V25.8266C34.9559 25.8225 36.8295 25.8348 38.7014 25.8204C40.4817 25.6732 42.0277 24.1741 41.9355 22.5024V5.99968C40.0883 6.00594 38.2403 5.98709 36.3935 6.00922C34.5362 6.11259 32.9573 7.71159 33.0833 9.43351V12.747C34.9425 12.7547 36.8029 12.7315 38.6613 12.7589C39.6379 12.781 40.6796 13.4861 40.5026 14.4742C40.4283 15.2303 39.6481 15.7263 38.8814 15.8086C39.8395 15.8791 40.9573 16.4492 40.9384 17.4492C40.9635 18.5278 39.6995 19.1402 38.6614 19.1036H33.0833V19.1036ZM34.8564 13.8095V15.4255H36.7705C36.7705 15.4255 37.6674 15.4231 37.6674 14.6163C37.6674 13.8095 36.7705 13.8095 36.7705 13.8095H34.8564ZM36.9037 16.3746H34.8564V18.1108H36.9037C36.9096 18.1108 37.9131 18.1647 37.9131 17.2427C37.9131 16.3208 36.9037 16.3746 36.9037 16.3746Z" fill="white"/>
</svg>
