<svg width="65" height="32" viewBox="0 0 65 32" fill="none" xmlns="http://www.w3.org/2000/svg">
<path fill-rule="evenodd" clip-rule="evenodd" d="M0.727295 2.71795C0.727295 1.21687 2.25599 0 4.13994 0H61.3146C63.1994 0 64.7273 1.21658 64.7273 2.71795V29.2821C64.7273 30.7831 63.1986 32 61.3146 32H4.13994C2.25519 32 0.727295 30.7834 0.727295 29.2821V2.71795ZM60.7998 15.9987C60.7998 23.6326 52.9828 29.8453 43.375 29.8453C39.3676 29.8453 35.6733 28.7622 32.7261 26.9509C29.7808 28.7622 26.0866 29.8453 22.0791 29.8453C12.4715 29.8453 4.65479 23.6326 4.65479 15.9987C4.65479 8.36444 12.4715 2.15467 22.0791 2.15467C26.0866 2.15467 29.7808 3.23373 32.7261 5.04765C35.6733 3.23373 39.3676 2.15467 43.375 2.15467C52.9828 2.15467 60.7998 8.36444 60.7998 15.9987ZM43.375 3.39266C39.8405 3.39266 36.5775 4.31278 33.9414 5.86554C36.3323 7.6336 38.1004 9.92958 38.9453 12.5171H37.3304C36.503 10.2295 34.8857 8.20984 32.7261 6.65554C30.5688 8.20984 28.9503 10.2295 28.1261 12.5171H26.5088C27.3557 9.92958 29.1239 7.6336 31.5147 5.86554C28.8771 4.31278 25.6152 3.39266 22.0791 3.39266C13.3181 3.39266 6.21589 9.03579 6.21589 15.9987C6.21589 22.9598 13.3181 28.6046 22.0791 28.6046C25.6152 28.6046 28.8771 27.6846 31.5147 26.1319C29.265 24.4671 27.5678 22.3341 26.6706 19.9331H28.3035C29.171 22.0354 30.7111 23.891 32.7261 25.3416C34.7434 23.891 36.2855 22.0354 37.153 19.9331H38.7855C37.8868 22.3341 36.1899 24.4671 33.9414 26.1319C36.5775 27.6846 39.8405 28.6046 43.375 28.6046C52.1359 28.6046 59.2383 22.9598 59.2383 15.9987C59.2383 9.03579 52.1359 3.39266 43.375 3.39266ZM15.6584 12.9939H13.1183L11.5308 16.7543L11.4647 12.9939H9.11072L7.83291 19.0696H9.36477L10.3486 14.4279L10.486 19.0696H11.6021L13.6937 14.4001L12.7566 19.0696H14.3926L15.6584 12.9939ZM18.701 16.8677C18.5289 16.8538 18.4539 16.8483 18.3357 16.8483C17.4073 16.8483 16.9396 17.1009 16.9396 17.5984C16.9396 17.9066 17.1691 18.1027 17.5238 18.1027C18.1915 18.1027 18.6712 17.5984 18.701 16.8677ZM19.89 19.0696H18.5339L18.5654 18.5571C18.1514 18.9619 17.6003 19.1555 16.8512 19.1555C15.9627 19.1555 15.3578 18.6043 15.3578 17.807C15.3578 16.6023 16.4129 15.902 18.2281 15.902C18.414 15.902 18.6522 15.9158 18.8956 15.9406C18.9462 15.7761 18.9584 15.7071 18.9584 15.6187C18.9584 15.2927 18.6748 15.1697 17.9097 15.1697C17.1101 15.1614 16.4495 15.3203 16.1782 15.3921C16.1957 15.3092 16.4061 14.2814 16.4061 14.2814C17.2198 14.0908 17.7585 14.0189 18.3636 14.0189C19.7685 14.0189 20.5126 14.519 20.5109 15.4668C20.5126 15.7209 20.4604 16.0345 20.3787 16.4478C20.2362 17.1618 19.9319 18.6953 19.89 19.0696ZM41.2613 12.8447C39.0931 12.8447 37.5768 14.3615 37.5768 16.5335C37.5768 18.1469 38.6744 19.1555 40.4355 19.1555C40.8874 19.1555 41.2785 19.1084 41.8801 18.9759L42.1671 17.5928C41.6263 17.8044 41.1814 17.9051 40.7775 17.9051C39.8265 17.9051 39.2526 17.3469 39.2526 16.4254C39.2526 15.0868 40.1068 14.1487 41.3288 14.1487C41.7826 14.1487 42.2068 14.2427 42.7909 14.4776L43.0587 13.1597C42.819 13.0852 41.9756 12.8447 41.2613 12.8447ZM45.9763 16.8677C45.806 16.8538 45.7295 16.8483 45.6094 16.8483C44.6827 16.8483 44.2132 17.1009 44.2132 17.5984C44.2132 17.9066 44.4429 18.1027 44.8012 18.1027C45.4671 18.1027 45.9487 17.5984 45.9763 16.8677ZM47.1655 19.0696H45.8114L45.8426 18.5571C45.427 18.9619 44.8741 19.1555 44.1263 19.1555C43.2397 19.1555 42.631 18.6043 42.631 17.807C42.631 16.6023 43.69 15.902 45.5034 15.902C45.6894 15.902 45.9276 15.9158 46.1713 15.9406C46.2212 15.7761 46.2337 15.7071 46.2337 15.6187C46.2337 15.2927 45.9502 15.1697 45.1868 15.1697C44.3856 15.1614 43.7266 15.3203 43.4553 15.3921C43.4709 15.3092 43.6814 14.2814 43.6814 14.2814C44.4967 14.0908 45.0355 14.0189 45.6371 14.0189C47.0439 14.0189 47.7882 14.519 47.7862 15.4668C47.7897 15.7209 47.7359 16.0345 47.6541 16.4478C47.5133 17.1618 47.2076 18.6953 47.1655 19.0696ZM27.9312 17.9008C27.8216 17.9315 27.6773 17.9478 27.4914 17.9478C27.1019 17.9478 26.9299 17.8374 26.9299 17.5817C26.9334 17.4244 27.2028 16.2556 27.3908 15.3175H28.2302L28.4528 14.1293H27.6165L27.806 13.3836H26.1803C26.1803 13.3836 25.565 16.2915 25.4728 16.7515C25.3685 17.278 25.2364 17.8512 25.2466 18.0694C25.2466 18.7728 25.7023 19.1555 26.5385 19.1555C26.9178 19.1555 27.2668 19.1056 27.7159 18.9952L27.9312 17.9008ZM32.9351 18.9565C32.3752 19.092 31.836 19.1555 31.2659 19.1555C29.4436 19.1525 28.4946 18.397 28.4946 16.9506C28.4946 15.2623 29.7029 14.0189 31.3424 14.0189C32.6828 14.0189 33.5402 14.7138 33.5402 15.808C33.5402 16.1699 33.4794 16.5222 33.3382 17.0238H30.1009C29.9914 17.7378 30.5688 18.0364 31.5147 18.0364C32.0968 18.0364 32.6204 17.9423 33.2045 17.7269L32.9351 18.9565ZM32.0204 16.0264C32.0309 15.9241 32.1923 15.142 31.264 15.142C30.7458 15.142 30.3739 15.4584 30.2245 16.0264H32.0204ZM21.1472 15.6906C21.1472 16.3165 21.5262 16.7461 22.392 17.0708C23.0545 17.3193 23.157 17.3911 23.157 17.6166C23.157 17.923 22.8649 18.0612 22.2164 18.0612C21.7297 18.0612 21.2741 18.0031 20.7506 17.8679C20.7506 17.8679 20.5353 18.9565 20.5248 19.0091C20.8987 19.0727 21.2289 19.1332 22.2286 19.1555C23.955 19.1555 24.7514 18.6318 24.7514 17.5045C24.7514 16.8235 24.4192 16.4284 23.5984 16.1284C22.9137 15.877 22.8337 15.8217 22.8337 15.5911C22.8337 15.323 23.1066 15.1876 23.6368 15.1876C23.9566 15.1876 24.3965 15.2153 24.8103 15.2623L25.0435 14.1156C24.6192 14.0631 23.9777 14.0189 23.6037 14.0189C21.7731 14.0189 21.1403 14.7773 21.1472 15.6906ZM56.3799 19.0696H54.8313L54.9092 18.6098C54.4589 18.9898 53.9985 19.1555 53.4004 19.1555C52.2108 19.1555 51.4251 18.3417 51.4251 17.1067C51.4251 15.4611 52.6436 14.0769 54.0866 14.0769C54.7198 14.0769 55.2028 14.2814 55.6501 14.7497L56.0115 12.9939H57.6253L56.3799 19.0696ZM53.9653 17.9287C54.7268 17.9287 55.2641 17.2419 55.2641 16.2638C55.2641 15.6352 54.9599 15.2953 54.3961 15.2953C53.6538 15.2953 53.127 15.982 53.127 16.9532C53.127 17.6011 53.4089 17.9287 53.9653 17.9287ZM48.9181 14.1293C48.713 15.6574 48.3496 17.206 48.0662 18.7368L47.9913 19.0696H49.6258C50.2118 16.0484 50.3541 15.4584 51.2703 15.533C51.4162 14.9126 51.6875 14.3727 51.8926 14.0991C51.2064 13.9856 50.8235 14.2952 50.3249 14.8796C50.3646 14.6254 50.436 14.3808 50.4204 14.1293H48.9181ZM34.6183 14.1293C34.4128 15.6574 34.0479 17.206 33.7644 18.7368L33.6895 19.0696H35.3255C35.9116 16.0484 36.0523 15.4584 36.9686 15.533C37.1163 14.9126 37.3893 14.3727 37.5912 14.0991C36.9077 13.9856 36.5221 14.2952 36.0227 14.8796C36.0628 14.6254 36.1338 14.3808 36.1202 14.1293H34.6183Z" fill="white"/>
</svg>
